<svg width="47" height="13" viewBox="0 0 47 13" fill="none" xmlns="http://www.w3.org/2000/svg">
<path fill-rule="evenodd" clip-rule="evenodd" d="M7.03189 10.2573C7.23666 10.4631 7.34894 10.7369 7.34511 11.0205C7.34129 11.304 7.22162 11.5749 7.01136 11.7757C6.80111 11.9765 6.51693 12.0912 6.21926 12.0956C5.92158 12.0999 5.63382 11.9935 5.41721 11.799L0.320064 6.94015C0.11333 6.70622 -5.52037e-07 6.41027 -5.25306e-07 6.1045C-4.98575e-07 5.79873 0.11333 5.50278 0.320064 5.26885L5.41721 0.413824C5.5234 0.312848 5.64943 0.232782 5.7881 0.178198C5.92678 0.123614 6.0754 0.0955819 6.22545 0.0956999C6.52849 0.0959383 6.81909 0.210836 7.03319 0.415104C7.2473 0.619373 7.36736 0.896293 7.3671 1.18493C7.36685 1.47357 7.24635 1.75029 7.03189 1.95422L3.74928 5.08962L45.9458 5.08962C46.0843 5.08912 46.2216 5.11471 46.3496 5.16491C46.4776 5.21511 46.594 5.28895 46.692 5.38215C46.79 5.47535 46.8676 5.58609 46.9205 5.70799C46.9734 5.82989 47.0003 5.96051 47 6.0924L47 6.12293C47.0002 6.25471 46.973 6.3852 46.92 6.50695C46.8671 6.6287 46.7894 6.7393 46.6915 6.83236C46.5935 6.92543 46.4772 6.99914 46.3493 7.04926C46.2213 7.09938 46.0842 7.12493 45.9458 7.12442L3.74928 7.12442L7.03189 10.2573Z" fill="white"/>
</svg>
