<svg width="47" height="13" viewBox="0 0 47 13" fill="none" xmlns="http://www.w3.org/2000/svg">
<path fill-rule="evenodd" clip-rule="evenodd" d="M39.9681 1.9341C39.7633 1.72827 39.6511 1.45449 39.6549 1.17095C39.6587 0.887403 39.7784 0.616461 39.9886 0.415701C40.1989 0.214941 40.4831 0.100173 40.7807 0.0958309C41.0784 0.0914888 41.3662 0.197896 41.5828 0.392429L46.6799 5.25126C46.8867 5.48518 47 5.78113 47 6.0869C47 6.39267 46.8867 6.68862 46.6799 6.92255L41.5828 11.7776C41.4766 11.8786 41.3506 11.9586 41.2119 12.0132C41.0732 12.0678 40.9246 12.0958 40.7746 12.0957C40.4715 12.0955 40.1809 11.9806 39.9668 11.7763C39.7527 11.572 39.6326 11.2951 39.6329 11.0065C39.6331 10.7178 39.7537 10.4411 39.9681 10.2372L43.2507 7.10178L1.05419 7.10178C0.915726 7.10229 0.778447 7.0767 0.650402 7.0265C0.522356 6.9763 0.405992 6.90246 0.308018 6.80926C0.210045 6.71606 0.132358 6.60531 0.0794911 6.48342C0.0266243 6.36152 -0.000349477 6.23089 3.41835e-06 6.09901L3.41835e-06 6.06848C-0.000173388 5.9367 0.0270341 5.80621 0.0799797 5.68446C0.132925 5.56271 0.210551 5.45211 0.308507 5.35904C0.406463 5.26598 0.52277 5.19227 0.650727 5.14215C0.778685 5.09203 0.915838 5.06648 1.05419 5.06698L43.2507 5.06698L39.9681 1.9341Z" fill="white"/>
</svg>
