<svg viewBox="0 0 35 35" fill="none" xmlns="http://www.w3.org/2000/svg" class="absolute-centered w-[52%]"><path d="M33.8837 28.3802L28.644 23.1295C27.1732 21.6557 24.7885 21.6557 23.3176 23.1295L22.4978 23.951C21.8381 24.6105 21.3797 25.4449 21.1763 26.3562C19.4003 26.3894 17.3917 26.0868 15.6738 24.9699C14.6186 24.184 13.6222 23.3217 12.6925 22.3901C11.9071 21.6036 11.1707 20.7694 10.4874 19.8923C9.14858 18.0898 8.79526 15.9024 8.83099 13.9852C9.74041 13.7814 10.573 13.322 11.2311 12.6609L12.0509 11.8394C13.5217 10.3656 13.5217 7.97589 12.0509 6.50193L6.81114 1.25124C5.83057 0.268628 4.24076 0.268628 3.26025 1.25124L2.36067 2.15291C1.20744 3.30855 0.617092 4.81369 0.586396 6.32815C0.291086 9.52347 0.901779 13.041 2.35253 16.5005C3.3104 18.7847 4.62554 21.015 6.22722 23.0881C6.24743 23.1152 6.2666 23.1426 6.28709 23.1696L6.28944 23.1678C7.10718 24.2191 7.98885 25.2188 8.92943 26.1612C9.90151 27.1361 10.9343 28.0481 12.0217 28.8919L12.0112 28.9058C12.1923 29.0434 12.3771 29.1762 12.5653 29.304C17.1361 32.6918 22.3023 34.5952 27.1098 34.5949C27.3907 34.5949 27.6706 34.5869 27.949 34.5738C29.7397 34.7944 31.6095 34.2177 32.9841 32.8402L33.8838 31.9386C34.8643 30.956 34.8643 29.3628 33.8837 28.3802Z" fill="white"></path></svg>