<svg width="102" height="111" viewBox="0 0 102 111" fill="none" xmlns="http://www.w3.org/2000/svg">
<path d="M73.0998 99.7036C70.7998 89.9036 65.7998 74.7036 55.9998 68.9036C54.0998 67.8036 51.5998 66.3036 50.1998 65.4036L49.5998 58.9036C50.0998 58.6036 50.6998 58.3036 51.2998 58.0036H51.3998L51.5998 57.8036C52.9998 56.9036 53.9998 55.8036 54.3998 53.8036L55.1998 50.4036L57.8998 38.5036C57.9998 38.1036 58.0998 37.7036 58.1998 37.4036L58.2998 37.1036C58.3998 36.2036 58.4998 35.3036 58.5998 34.2036C58.3998 23.7036 51.1998 10.9036 42.1998 5.60361C38.0998 3.20361 34.6998 2.60361 31.7998 3.80361L31.3998 3.90361L31.1998 4.00361C30.8998 4.20361 30.4998 4.30361 30.1998 4.50361L22.5998 8.70361L22.1998 9.50361L25.8998 12.3036C25.7998 13.1036 25.6998 13.9036 25.6998 14.7036C25.6998 15.7036 25.6998 16.5036 25.7998 17.5036L25.8998 17.7036L25.9998 18.3036C26.0998 18.9036 26.1998 19.2036 26.2998 19.8036L29.2998 38.8036C29.7998 42.2036 31.5998 46.8036 33.8998 50.1036L32.9998 55.5036C31.5998 54.7036 28.9998 53.0036 27.1998 51.9036C23.3998 49.6036 20.5998 49.5036 17.9998 50.7036L17.6998 50.8036L16.7998 51.3036L10.0998 55.0036L11.5998 57.4036C10.7998 58.9036 10.0998 60.5036 9.59982 62.0036C8.39982 65.2036 10.7998 70.6036 14.2998 72.7036L40.6998 88.3036L41.7998 89.0036L62.1998 101.104C62.4998 103.504 62.8998 106.804 63.0998 108.604C63.1998 109.204 63.7998 109.504 64.2998 109.204L71.6998 105.104C73.0998 104.404 73.6998 102.404 73.0998 99.7036Z" fill="#8C9EFB"/>
<path d="M72.3999 103.504C70.0999 93.7036 65.0999 78.5036 55.2999 72.7036C53.3999 71.6036 50.8999 70.1036 49.4999 69.2036L33.1999 78.2036L31.8999 68.1036L39.4999 63.3036L48.4999 61.4036L48.9999 58.8036C50.3999 57.9036 50.5999 56.8036 50.9999 54.9036L54.4999 54.1036L57.1999 42.2036C57.2999 41.8036 57.3999 41.4036 57.4999 41.1036L57.5999 40.8036C57.6999 39.9036 57.7999 39.0036 57.8999 37.9036C57.9999 27.4036 50.7999 14.6036 41.7999 9.30356C37.6999 6.90356 34.2999 6.30356 31.3999 7.50356L30.9999 7.60356L30.7999 7.70356C30.4999 7.90356 30.0999 8.00356 29.7999 8.20356L22.1999 12.4036L21.7999 13.2036L25.4999 16.0036C25.0999 16.9036 24.9999 17.7036 24.9999 18.6036C24.9999 19.6036 24.9999 20.4036 25.0999 21.4036L25.1999 21.6036L25.2999 22.2036C25.3999 22.8036 25.4999 23.1036 25.5999 23.7036L28.5999 42.7036C29.0999 46.1036 30.8999 50.7036 33.1999 54.0036L32.3999 59.1036C30.9999 58.3036 28.3999 56.6036 26.5999 55.5036C22.7999 53.2036 19.9999 53.1036 17.3999 54.3036L16.9999 54.6036L16.0999 55.1036L9.39987 58.8036L10.8999 61.2036C10.0999 62.7036 9.39987 64.3036 8.89987 65.8036C7.69987 69.0036 10.0999 74.4036 13.5999 76.5036L39.9999 92.2036L41.0999 92.9036L61.4999 105.004C61.7999 107.404 62.0999 104.904 62.2999 106.604C62.3999 107.204 62.9999 107.504 63.4999 107.204L68.9999 106.704L69.1999 104.204C70.5999 103.504 72.9999 106.104 72.3999 103.504Z" fill="#F2F4F4"/>
<path d="M63.9998 110.004C63.7998 110.004 63.4999 109.904 63.2999 109.804C62.8998 109.604 62.5998 109.204 62.4998 108.704C62.2998 107.104 61.8998 104.004 61.5998 101.604L13.9998 73.4036C10.1998 71.2036 7.69985 65.4036 8.99985 61.9036C9.59985 60.4036 10.1998 58.9036 10.8998 57.6036L9.19985 54.9036L17.7998 50.2036C20.6998 48.8036 23.7998 49.2036 27.5998 51.4036C28.5998 52.0036 29.7998 52.7036 30.8998 53.4036C31.4998 53.8036 31.9998 54.1036 32.4998 54.4036L33.0998 50.6036C30.8998 47.3036 28.9998 42.7036 28.4998 39.2036L25.3998 19.7036C25.2998 19.3036 25.2998 19.1036 25.1998 18.6036L25.0998 17.8036C24.9998 16.6036 24.9998 15.8036 24.9998 14.9036C24.9998 14.2036 25.0998 13.5036 25.0998 12.8036L21.2998 9.90358L22.0998 8.30358L29.8998 4.00358C30.1998 3.80358 30.5998 3.60358 30.8998 3.40358L31.0998 3.30358L31.5998 3.10358C34.6998 1.80358 38.2998 2.40358 42.5998 5.00358C51.7998 10.4036 59.1998 23.6036 58.9998 34.2036C58.9998 35.0036 58.8998 35.8036 58.7999 36.7036L58.5998 37.5036C58.4998 37.9036 58.3998 38.3036 58.2999 38.7036L54.9998 54.0036C54.4998 56.4036 53.0998 57.6036 51.8998 58.4036L51.6998 58.5036C51.1998 58.8036 50.6998 59.1036 50.2998 59.3036L50.7998 65.0036L56.2999 68.3036C65.9999 74.0036 71.0998 88.5036 73.6998 99.5036C74.3998 102.304 73.6998 104.704 71.9998 105.604L64.5998 109.704C64.4998 110.004 64.1998 110.004 63.9998 110.004ZM11.0998 55.3036L12.3998 57.4036L12.1998 57.8036C11.4998 59.2036 10.7998 60.7036 10.1998 62.3036C9.19985 65.2036 11.3998 70.3036 14.5998 72.2036L62.7999 100.804V101.104C63.0998 103.504 63.4998 106.804 63.6998 108.504L71.2999 104.404C72.3998 103.804 72.7999 102.004 72.2999 99.8036C70.1999 90.9036 65.2998 75.2036 55.4998 69.4036L49.3998 65.8036L48.6998 58.5036L49.0998 58.3036C49.5998 58.0036 50.1998 57.7036 50.6998 57.4036L50.8998 57.2036C52.3998 56.2036 53.0998 55.2036 53.3998 53.7036L56.8998 38.4036C56.9998 38.0036 57.0998 37.7036 57.1998 37.3036V37.0036C57.3998 36.0036 57.3998 35.1036 57.4998 34.2036C57.5998 24.0036 50.5998 11.4036 41.7998 6.20358C37.8998 3.90358 34.6998 3.30358 31.9998 4.40358L31.4998 4.70358C31.0998 4.90358 30.7998 5.00358 30.5998 5.20358L23.0998 9.40358L26.6998 12.1036L26.5998 12.5036C26.4998 13.4036 26.3998 14.1036 26.3998 14.9036C26.3998 15.9036 26.3998 16.6036 26.4998 17.6036V17.8036L26.5998 18.5036C26.5998 18.9036 26.6998 19.1036 26.7998 19.5036L26.8998 19.9036L29.8998 38.9036C30.3998 42.3036 32.1998 46.7036 34.3998 50.0036L34.5998 50.2036L33.5998 56.7036L32.6998 56.2036C31.9998 55.8036 31.0998 55.2036 30.1998 54.6036C29.0998 53.9036 27.8998 53.2036 26.8998 52.6036C23.4998 50.6036 20.8998 50.2036 18.3998 51.5036H17.9998L11.0998 55.3036Z" fill="#2E2E35"/>
<path d="M64.8999 104.304C62.5999 94.5036 57.5999 79.3036 47.7999 73.5036C45.8999 72.4036 43.3999 70.9036 41.9999 70.0036L41.3999 63.5036C43.2999 62.5036 45.5999 61.2036 46.0999 58.4036L46.8999 55.0036L49.5999 43.1036C49.6999 42.7036 49.7999 42.3036 49.8999 42.0036L49.9999 41.7036C50.0999 40.8036 50.1999 39.9036 50.2999 38.8036C50.3999 28.3036 43.1999 15.5036 34.1999 10.2036C25.1999 4.90357 17.7999 9.00357 17.6999 19.5036C17.6999 20.5036 17.6999 21.3036 17.7999 22.3036L17.8999 22.5036L17.9999 23.1036C18.0999 23.7036 18.1999 24.0036 18.2999 24.6036L21.2999 43.6036C21.7999 47.0036 23.5999 51.6036 25.8999 54.9036L25.0999 60.1036C23.6999 59.3036 21.0999 57.6036 19.2999 56.5036C9.29987 50.6036 3.89987 59.7036 1.39987 66.7036C0.199872 69.9036 2.59987 75.3036 6.09987 77.4036L32.4999 93.0036L33.5999 93.7036L59.9999 109.304C63.4999 111.304 65.9999 108.804 64.8999 104.304Z" fill="#8C9EFB"/>
<path d="M62.2999 110.704C61.4999 110.704 60.4999 110.404 59.5999 109.904L5.79989 78.0037C1.99989 75.8037 -0.500105 70.0037 0.799895 66.5037C2.39989 62.0037 5.39989 56.2037 10.1999 54.5037C12.9999 53.5037 16.0999 54.0037 19.4999 55.9037C20.4999 56.5037 21.6999 57.2037 22.7999 57.9037C23.3999 58.3037 23.8999 58.6037 24.3999 58.9037L24.9999 55.1037C22.7999 51.8037 20.9999 47.2037 20.3999 43.7037L17.2999 24.3037C17.1999 24.0037 17.1999 23.7037 17.0999 23.2037L16.9999 22.4037C16.8999 21.2037 16.8999 20.4037 16.8999 19.5037C16.9999 14.2037 18.7999 10.2037 22.1999 8.30369C25.4999 6.40369 29.8999 6.90369 34.4999 9.60369C43.6999 15.0037 51.0999 28.2037 50.8999 38.8037C50.8999 39.6037 50.7999 40.4037 50.6999 41.3037L50.4999 42.1037C50.3999 42.5037 50.2999 42.9037 50.1999 43.3037L46.6999 58.6037C46.0999 61.4037 44.0999 62.9037 41.9999 63.9037L42.4999 69.6037L47.9999 72.9037C57.6999 78.6037 62.7999 93.1037 65.3999 104.104C65.9999 106.704 65.4999 109.004 64.0999 110.004C63.6999 110.504 62.9999 110.704 62.2999 110.704ZM13.0999 55.3037C12.1999 55.3037 11.3999 55.4037 10.5999 55.7037C6.29989 57.2037 3.59989 62.6037 2.09989 66.9037C1.09989 69.8037 3.29989 74.9037 6.49989 76.8037L60.3999 108.704C61.5999 109.404 62.6999 109.504 63.4999 109.004C64.4999 108.304 64.7999 106.604 64.2999 104.504C62.1999 95.6037 57.2999 79.9037 47.4999 74.1037L41.3999 70.5037L40.6999 63.2037L41.0999 63.0037C43.0999 62.0037 44.9999 60.8037 45.4999 58.4037L48.9999 43.1037C49.0999 42.7037 49.1999 42.4037 49.2999 42.0037V41.7037C49.4999 40.7037 49.4999 39.8037 49.5999 38.9037C49.6999 28.7037 42.6999 16.1037 33.8999 10.9037C29.7999 8.50369 25.8999 8.00369 22.9999 9.60369C20.0999 11.2037 18.4999 14.8037 18.3999 19.6037C18.3999 20.6037 18.3999 21.3037 18.4999 22.3037V22.5037L18.5999 23.2037C18.5999 23.6037 18.6999 23.8037 18.7999 24.2037L18.8999 24.7037L21.8999 43.7037C22.3999 47.1037 24.1999 51.5037 26.3999 54.8037L26.5999 55.0037L25.5999 61.5037L24.4999 60.7037C23.7999 60.3037 22.8999 59.7037 21.8999 59.1037C20.7999 58.4037 19.5999 57.7037 18.6999 57.1037C16.6999 55.9037 14.8999 55.3037 13.0999 55.3037Z" fill="#2E2E35"/>
<path d="M58.3999 35.6037L57.7999 28.5037L49.5999 33.1037L50.4999 38.0037L46.8999 55.7037L46.5999 55.9037L45.6999 59.7037L42.6999 63.0037L41.3999 63.5037L41.9999 70.0037L50.1999 65.5037L49.5999 59.0037L53.2999 56.9037L54.4999 52.6037L54.8999 51.1037L58.3999 35.6037Z" fill="#2E2E35"/>
<path d="M63 97.2037L70.9 92.5037L73 98.3037L73.3 102.004L72.6 104.804L64.4 109.204L65.2 105.804L63.5 98.6037L63 97.2037Z" fill="#2E2E35"/>
<path d="M100.8 29.3038C100.8 19.1038 93.1998 6.70376 84.1998 2.60376C80.8998 1.10376 78.0998 1.00376 75.7998 2.20376L75.4998 2.30376C75.4998 2.30376 75.4998 2.30376 75.3998 2.30376L68.1998 6.70376C67.8998 6.90376 67.7998 7.30376 67.9998 7.70376L71.0998 11.9038C70.9998 19.2038 74.7998 27.7038 80.3998 33.5038V39.6038C80.3998 40.7038 81.5998 42.0038 82.2998 41.7038L87.1998 39.5038L88.9998 42.7038C89.1998 43.0038 89.5998 43.2038 89.9998 43.0038L96.4998 39.2038C99.0998 37.4038 100.8 34.1038 100.8 29.3038Z" fill="#89E1F3"/>
<path d="M100.1 32.9036C100.1 22.7036 92.4998 10.3036 83.4998 6.20361C80.1998 4.70361 77.3998 4.60361 75.0998 5.80361L74.7998 5.90361C74.7998 5.90361 74.7998 5.90361 74.6998 5.90361L67.3998 10.2036C67.0998 10.4036 66.9998 10.8036 67.1998 11.2036L70.2998 15.4036C70.1998 22.7036 73.9998 31.2036 79.5998 37.0036V43.1036C79.5998 44.2036 83.5998 41.7036 84.2998 41.4036L86.3998 43.0036L88.3998 41.1036L92.9998 41.0036V38.3036C95.6998 36.8036 100.1 37.7036 100.1 32.9036Z" fill="#F2F4F4"/>
<path d="M89.4998 43.6037C89.3998 43.6037 89.1998 43.6037 89.0998 43.5037C88.6998 43.4037 88.3998 43.2037 88.1998 42.8037L86.6998 40.2037L82.3998 42.2037C81.8998 42.4037 81.3998 42.3037 80.8998 42.0037C80.1998 41.6037 79.4998 40.5037 79.4998 39.5037V33.7037C73.7998 27.6037 70.1998 19.2037 70.1998 12.1037L67.2998 8.1037C67.0998 7.8037 66.9998 7.40371 67.0998 7.00371C67.1998 6.60371 67.3998 6.3037 67.6998 6.1037L75.3998 1.60371C77.8998 0.203706 80.7998 0.403706 84.3998 2.00371C93.4998 6.10371 101.4 18.8037 101.4 29.3037C101.4 34.0037 99.7998 37.5037 96.9998 39.4037L96.6998 39.6037L90.1998 43.4037C89.9998 43.5037 89.7998 43.6037 89.4998 43.6037ZM87.3998 38.4037L89.4998 42.1037L96.0998 38.3037C98.6998 36.8037 100.2 33.6037 100.2 29.3037C100.2 19.3037 92.5998 7.10371 83.9998 3.30371C80.8998 1.90371 78.2998 1.80371 76.1998 2.90371L75.8998 3.10371L68.5998 7.40371L71.7998 11.7037V11.9037C71.6998 18.7037 75.2998 27.2037 80.8998 33.0037L81.0998 33.2037V39.6037C81.0998 40.3037 81.7998 41.0037 81.9998 41.0037L87.3998 38.4037Z" fill="#2E2E35"/>
<path d="M93.6999 33.5038C93.6999 23.3038 86.0999 10.9038 77.0999 6.80376C70.3999 3.80376 64.8999 6.80376 63.9999 14.0038C63.0999 21.6038 67.0999 31.2038 73.0999 37.5038V43.7038C73.0999 44.8038 74.2999 46.1038 74.9999 45.8038L80.7999 43.2038C88.0999 46.1038 93.6999 42.2038 93.6999 33.5038Z" fill="#89E1F3"/>
<path d="M74.7999 46.5038C74.4999 46.5038 74.1999 46.4038 73.8999 46.2038C73.1999 45.8038 72.4999 44.7038 72.4999 43.7038V37.9038C66.1999 31.2038 62.4999 21.4038 63.3999 14.0038C63.7999 10.3038 65.4999 7.50379 67.9999 6.10379C70.5999 4.60379 73.8999 4.70379 77.3999 6.30379C86.4999 10.4038 94.3999 23.1038 94.3999 33.6038C94.3999 38.2038 92.8999 41.7038 90.0999 43.6038C87.5999 45.2038 84.3999 45.4038 80.8999 44.0038L75.3999 46.5038C75.0999 46.5038 74.9999 46.5038 74.7999 46.5038ZM72.0999 6.40379C70.7999 6.40379 69.5999 6.7038 68.5999 7.3038C66.3999 8.5038 64.9999 11.0038 64.6999 14.2038C63.7999 21.3038 67.4999 30.7038 73.5999 37.2038L73.7999 37.4038V43.7038C73.7999 44.4038 74.4999 45.1038 74.6999 45.1038L80.7999 42.3038L81.0999 42.4038C84.2999 43.7038 87.1999 43.7038 89.2999 42.2038C91.6999 40.6038 92.9999 37.5038 92.9999 33.4038C92.9999 23.4038 85.3999 11.2038 76.7999 7.40379C75.1999 6.70379 73.5999 6.40379 72.0999 6.40379Z" fill="#2E2E35"/>
<path d="M92.3999 25.7037L99.5999 21.5037L100.8 25.3037V31.6037L100.1 34.9037L94.7999 40.2037L90.5999 42.2037L93.6999 35.9037V29.3037L92.3999 25.7037Z" fill="#2E2E35"/>
<path d="M74.5999 24.8038C74.5999 26.5038 73.3999 27.1038 71.9999 26.3038C70.5999 25.5038 69.3999 23.5038 69.3999 21.8038C69.3999 20.1038 70.5999 19.5038 71.9999 20.3038C73.3999 21.2038 74.5999 23.2038 74.5999 24.8038Z" fill="#F2F4F4"/>
<path d="M72.2999 25.3038C71.8999 25.3038 71.3999 25.2038 70.8999 24.9038C69.2999 24.0038 68.0999 21.8038 68.0999 20.0038C68.0999 19.0038 68.4999 18.3038 69.0999 17.9038C69.6999 17.5038 70.5999 17.6038 71.3999 18.1038C72.9999 19.0038 74.1999 21.2038 74.1999 23.0038C74.1999 24.0038 73.7999 24.7038 73.1999 25.1038C72.8999 25.2038 72.5999 25.3038 72.2999 25.3038ZM69.9999 18.6038C69.7999 18.6038 69.6999 18.6038 69.5999 18.7038C69.2999 18.9038 69.0999 19.4038 69.0999 20.0038C69.0999 21.5038 70.1999 23.3038 71.4999 24.1038C71.9999 24.4038 72.4999 24.5038 72.8999 24.3038C73.1999 24.1038 73.3999 23.6038 73.3999 23.0038C73.3999 21.5038 72.2999 19.7038 70.9999 18.9038C70.5999 18.7038 70.1999 18.6038 69.9999 18.6038Z" fill="#2E2E35"/>
<path d="M81.7999 29.0038C81.7999 30.7038 80.5999 31.3038 79.1999 30.5038C77.7999 29.7038 76.5999 27.7038 76.5999 26.0038C76.5999 24.3038 77.7999 23.7038 79.1999 24.5038C80.5999 25.3038 81.7999 27.3038 81.7999 29.0038Z" fill="#F2F4F4"/>
<path d="M79.4998 29.5038C79.0998 29.5038 78.5998 29.4038 78.0998 29.1038C76.4998 28.2038 75.2998 26.0038 75.2998 24.2038C75.2998 23.2038 75.6998 22.5038 76.2998 22.1038C76.8998 21.7038 77.7998 21.8038 78.5998 22.3038C80.1998 23.2038 81.3998 25.4038 81.3998 27.2038C81.3998 28.2038 80.9998 28.9037 80.3998 29.3038C80.0998 29.4037 79.7998 29.5038 79.4998 29.5038ZM77.1998 22.8038C76.9998 22.8038 76.8998 22.8038 76.7998 22.9038C76.4998 23.1038 76.2998 23.6038 76.2998 24.2038C76.2998 25.7038 77.3998 27.5037 78.6998 28.3038C79.1998 28.6038 79.6998 28.7038 80.0998 28.5038C80.3998 28.3038 80.5998 27.8038 80.5998 27.2038C80.5998 25.7038 79.4998 23.9038 78.1998 23.1038C77.7998 22.9038 77.3998 22.8038 77.1998 22.8038Z" fill="#2E2E35"/>
<path d="M88.9998 33.1036C88.9998 34.8036 87.7998 35.4036 86.3998 34.6036C84.9998 33.8036 83.7998 31.8036 83.7998 30.1036C83.7998 28.4036 84.9998 27.8036 86.3998 28.6036C87.7998 29.5036 88.9998 31.5036 88.9998 33.1036Z" fill="#F2F4F4"/>
<path d="M86.6998 33.6036C86.2998 33.6036 85.7998 33.5036 85.2998 33.2036C83.6998 32.3036 82.4998 30.1036 82.4998 28.3036C82.4998 27.3036 82.8998 26.6036 83.4998 26.2036C84.0998 25.8036 84.9998 25.9036 85.7998 26.4036C87.3998 27.3036 88.5998 29.5036 88.5998 31.3036C88.5998 32.3036 88.1998 33.0036 87.5998 33.4036C87.2998 33.5036 86.9998 33.6036 86.6998 33.6036ZM84.2998 26.9036C84.0998 26.9036 83.9998 26.9036 83.8998 27.0036C83.5998 27.2036 83.3998 27.7036 83.3998 28.3036C83.3998 29.8036 84.4998 31.6036 85.7998 32.4036C86.2998 32.7036 86.7998 32.8036 87.1998 32.6036C87.4998 32.4036 87.6998 31.9036 87.6998 31.3036C87.6998 29.8036 86.5998 28.0036 85.2998 27.2036C84.8998 27.0036 84.5998 26.9036 84.2998 26.9036Z" fill="#2E2E35"/>
</svg>
