<svg width="120" height="121" viewBox="0 0 120 121" fill="none" xmlns="http://www.w3.org/2000/svg">
<path d="M106.6 81.5454L106.4 39.1454H13.4001L13.5001 81.3454C13.5001 81.6454 13.5001 81.3454 13.5001 81.6454C13.7001 83.2454 15.0001 84.9454 17.3001 86.2454L52.0001 106.245C56.6001 108.945 63.6001 109.245 67.7001 106.845L103.9 85.9454C106 84.7454 106.8 83.1454 106.6 81.5454Z" fill="#92C29C"/>
<path d="M60.9001 109.245C57.7001 109.245 54.3001 108.445 51.6001 106.945L16.9001 86.9454C14.5001 85.5454 13.0001 83.7454 12.7001 81.7454C12.6001 81.5454 12.6001 81.3454 12.7001 81.1454L12.6001 38.2454H107.4L107.6 81.4454C107.8 83.4454 106.7 85.3454 104.5 86.6454L68.3001 107.545C66.2001 108.745 63.6001 109.245 60.9001 109.245ZM14.3001 81.2454C14.3001 81.2454 14.3001 81.3454 14.3001 81.4454C14.5001 82.8454 15.7001 84.3454 17.7001 85.4454L52.4001 105.445C54.6001 106.745 57.3001 107.445 59.9001 107.545V60.5454L105.5 39.9454H14.2001L14.3001 81.2454Z" fill="#2E2E35"/>
<path d="M103.8 43.7454L67.6001 64.6454C63.6001 66.9454 56.6001 66.6454 51.9001 64.0454L17.2001 44.0454C12.6001 41.3454 12.1001 37.3454 16.1001 35.0454L52.3001 14.1454C56.3001 11.8454 63.3001 12.1454 68.0001 14.7454L102.7 34.7454C107.3 37.4454 107.8 41.4454 103.8 43.7454Z" fill="#92C29C"/>
<path d="M51.4001 64.2454C56 66.9454 63 67.2454 67.1 64.8454L103.3 43.9454C103.8 43.6454 104.2 43.3454 104.6 43.0454C104 42.4454 103.2 41.8454 102.3 41.2454L67.6 21.2454C63 18.5454 56 18.2454 51.9001 20.6454L15.6 41.5454C15.1 41.8454 14.7 42.1454 14.3 42.4454C14.9 43.0454 15.7 43.6454 16.6 44.2454L51.4001 64.2454Z" fill="#F2F4F4"/>
<path d="M60.8 67.0454C57.6 67.0454 54.2 66.2454 51.5 64.7454L16.8 44.7454C14.1 43.1454 12.5 41.0454 12.5 38.9454C12.5 37.1454 13.6 35.4454 15.6 34.2454L51.8 13.3454C56 10.8454 63.4 11.1454 68.3 13.9454L103 33.9454C105.7 35.5454 107.3 37.6454 107.3 39.8454C107.3 41.6454 106.2 43.3454 104.2 44.5454L68 65.4454C66.1 66.5454 63.5 67.0454 60.8 67.0454ZM59.1 13.3454C56.7 13.3454 54.4 13.8454 52.7 14.8454L16.5 35.6454C15 36.5454 14.2 37.6454 14.2 38.8454C14.2 40.3454 15.4 41.9454 17.6 43.2454L52.3 63.2454C56.7 65.7454 63.3 66.0454 67.1 63.8454L103.3 42.9454L103.7 43.6454L103.3 42.9454C104.8 42.0454 105.6 40.9454 105.6 39.7454C105.6 38.2454 104.4 36.6454 102.2 35.3454L67.5 15.4454C65.1 14.0454 62 13.3454 59.1 13.3454Z" fill="#2E2E35"/>
<path d="M74.3002 33.1454L47.2002 34.8454C47.0002 34.8454 46.9002 35.0454 47.0002 35.0454L52.7002 38.3454C52.8002 38.4454 52.8002 38.4454 52.7002 38.5454L37.9002 47.1454C37.8002 47.2454 37.8002 47.2454 37.9002 47.3454L44.0002 50.8454L50.1002 54.3454C50.2002 54.4454 50.4002 54.4454 50.5002 54.3454L65.3002 45.7454C65.4002 45.6454 65.6002 45.6454 65.7002 45.7454L71.4002 49.0454C71.5002 49.1454 71.8002 49.0454 71.8002 48.9454L74.7002 33.2454C74.6002 33.2454 74.5002 33.1454 74.3002 33.1454Z" fill="#92C29C"/>
<path d="M50.2001 52.4454C50.0001 52.4454 49.8001 52.4454 49.7001 52.3454L37.2001 45.1454L37.1001 44.6454C37.1001 44.3454 37.2001 44.1454 37.5001 43.9454L51.5001 35.8454L46.6001 33.0454C46.3001 32.8454 46.1001 32.5454 46.2001 32.2454C46.3001 31.8454 46.6001 31.6454 47.0001 31.6454L74.1001 29.9454C74.4001 29.9454 74.7001 30.0454 74.9001 30.2454L75.1001 30.4454V30.8454L72.2001 46.5454C72.2001 46.7454 72.0001 47.0454 71.7001 47.1454C71.4001 47.2454 71.0001 47.2454 70.8001 47.1454L65.3001 43.9454L50.6001 52.4454C50.6001 52.4454 50.4001 52.4454 50.2001 52.4454ZM39.0001 44.6454L50.2001 51.1454L64.9001 42.6454C65.2001 42.4454 65.6001 42.4454 65.9001 42.6454L71.2001 45.6454L73.9001 31.2454L48.9001 32.7454L53.4001 35.3454L53.5001 35.8454C53.5001 36.1454 53.4001 36.3454 53.1001 36.5454L39.0001 44.6454Z" fill="#2E2E35"/>
</svg>
