<svg width="93" height="111" viewBox="0 0 93 111" fill="none" xmlns="http://www.w3.org/2000/svg">
<path d="M91.8001 69.6034C91.8001 45.0034 73.4001 14.7034 51.6001 5.00345C43.5001 1.40345 36.8001 1.00345 31.2001 4.10345L30.5001 4.40345L30.4001 4.50345L12.7001 14.8034C11.9001 15.3034 11.7001 16.4034 12.2001 17.1034L19.6001 27.2034C19.4001 44.8034 28.7001 65.4034 42.0001 79.4034V94.2034C42.0001 97.0034 44.8001 100.003 46.6001 99.2034L58.5001 93.8034L62.8001 101.503C63.3001 102.303 64.3001 102.603 65.2001 102.203L81.0001 93.0034C87.7001 89.2034 91.8001 81.1034 91.8001 69.6034Z" fill="#92C29C"/>
<path d="M64.4001 103.604C64.1001 103.604 63.9001 103.604 63.6001 103.504C62.8001 103.304 62.2001 102.804 61.8001 102.104L58.0001 95.4035L47.1001 100.304C46.2001 100.704 45.1001 100.604 44.0001 99.9035C42.4001 98.9035 40.8001 96.6035 40.8001 94.2035V79.9035C27.1001 65.3035 18.3001 44.8035 18.4001 27.6035L11.2001 17.9035C10.7001 17.3035 10.6001 16.5035 10.7001 15.7035C10.9001 14.9035 11.3001 14.3035 12.0001 13.9035L30.7001 2.90351C36.6001 -0.296486 43.6001 0.00351453 52.1001 3.80351C73.9001 13.6035 93.0001 44.3035 93.0001 69.5035C93.0001 80.8035 89.2001 89.4035 82.2001 93.6035L81.7001 93.9035L65.9001 103.104C65.4001 103.504 64.9001 103.604 64.4001 103.604ZM59.1001 92.3035L63.9001 100.904C64.0001 101.104 64.1001 101.104 64.2001 101.104C64.3001 101.104 64.4001 101.104 64.6001 101.004L80.5001 91.8035C87.0001 88.1035 90.6001 80.2035 90.6001 69.5035C90.6001 45.1035 72.1001 15.4035 51.1001 6.00351C43.3001 2.50351 37.0001 2.20351 31.8001 5.00351L31.1001 5.40351L13.3001 15.9035C13.2001 16.0035 13.1001 16.1035 13.1001 16.1035C13.1001 16.2035 13.1001 16.3035 13.2001 16.4035L20.9001 26.8035V27.2035C20.7001 44.1035 29.3001 64.2035 43.0001 78.6035L43.3001 78.9035V94.2035C43.3001 95.7035 44.4001 97.2035 45.4001 97.9035C45.8001 98.2035 46.1001 98.2035 46.2001 98.1035L59.1001 92.3035Z" fill="#2E2E35"/>
<path d="M90.1001 78.2035C90.1001 53.6035 71.7001 23.3035 49.9001 13.6035C41.8001 10.0035 35.1001 9.60355 29.5001 12.7035L28.8001 13.0035L28.7001 13.1035L11.0001 23.5035C10.2001 24.0035 10.0001 25.1035 10.5001 25.8035L17.9001 35.9035C17.7001 53.5035 27.0001 74.1035 40.4001 88.1035V102.904C40.4001 105.704 50.1001 99.6035 51.9001 98.7035L56.9001 102.504L61.6001 98.0035L72.7001 97.8035V91.3035C79.3001 87.6035 90.1001 89.8035 90.1001 78.2035Z" fill="#F2F4F4"/>
<path d="M74.4001 79.7034C74.4001 55.1034 56.0001 24.8034 34.2001 15.1034C18.0001 7.80342 4.70008 15.1034 2.50008 32.6034C0.200081 51.1034 10.1001 74.3034 24.6001 89.6034V104.403C24.6001 107.203 27.4001 110.203 29.2001 109.403L43.3001 103.003C60.9001 110.303 74.4001 100.703 74.4001 79.7034Z" fill="#92C29C"/>
<path d="M28.6001 110.703C27.9001 110.703 27.3001 110.503 26.6001 110.003C25.0001 109.003 23.4001 106.703 23.4001 104.303V90.0035C8.20008 73.8035 -0.899919 50.2035 1.30008 32.4035C2.40008 23.6035 6.30008 16.9035 12.3001 13.5035C18.4001 10.0035 26.4001 10.2035 34.6001 13.9035C56.5001 23.7035 75.6001 54.5035 75.6001 79.7035C75.6001 90.6035 72.0001 99.1035 65.5001 103.403C59.6001 107.303 51.8001 107.603 43.4001 104.303L29.8001 110.503C29.4001 110.603 29.0001 110.703 28.6001 110.703ZM22.3001 13.4035C19.1001 13.4035 16.1001 14.1035 13.6001 15.6035C8.30008 18.6035 4.80008 24.7035 3.80008 32.6035C1.70008 49.9035 10.7001 72.9035 25.6001 88.6035L25.9001 88.9035V104.203C25.9001 105.703 27.0001 107.203 28.0001 107.903C28.3001 108.103 28.7001 108.203 28.8001 108.203L43.4001 101.603L43.9001 101.803C51.7001 105.003 58.9001 104.903 64.2001 101.303C70.0001 97.4035 73.3001 89.7035 73.3001 79.6035C73.3001 55.2035 54.8001 25.5035 33.8001 16.1035C29.7001 14.3035 25.8001 13.4035 22.3001 13.4035Z" fill="#2E2E35"/>
<path d="M71.3001 60.9036L88.8001 50.7036L91.8001 59.7036V75.0036L90.1001 83.1036L84.3001 90.6036L77.3001 95.8036L66.9001 100.704L74.4001 85.6036V69.5036L71.3001 60.9036Z" fill="#2E2E35"/>
<path d="M50.1001 77.4036C50.1001 79.9036 49.3001 81.6036 47.6001 82.3036C45.9001 83.0036 43.6001 82.7036 40.7001 81.4036V87.9036L37.6001 86.1036V79.8036C35.8001 78.8036 34.0001 77.6036 32.3001 76.3036C30.6001 75.0036 29.2001 73.7036 28.1001 72.5036V68.1036C29.4001 69.6036 31.0001 71.0036 32.8001 72.5036C34.6001 74.0036 36.2001 75.1036 37.6001 75.9036V63.7036C34.3001 60.6036 32.0001 57.8036 30.6001 55.4036C29.3001 53.0036 28.6001 50.6036 28.6001 48.0036C28.6001 45.6036 29.4001 44.0036 31.1001 43.4036C32.7001 42.8036 34.9001 43.1036 37.6001 44.3036V39.2036L40.7001 41.0036V46.0036C43.7001 47.8036 46.6001 50.2036 49.3001 53.1036L48.0001 56.0036C45.6001 53.5036 43.1001 51.4036 40.6001 49.8036V62.0036C43.1001 64.4036 45.0001 66.4036 46.3001 68.0036C47.6001 69.6036 48.5001 71.2036 49.1001 72.7036C49.8001 74.2036 50.1001 75.8036 50.1001 77.4036ZM32.7001 50.3036C32.7001 51.7036 33.1001 53.1036 33.8001 54.4036C34.5001 55.7036 35.8001 57.2036 37.6001 59.0036V48.2036C36.0001 47.6036 34.8001 47.5036 34.0001 47.8036C33.2001 48.2036 32.7001 49.0036 32.7001 50.3036ZM46.0001 75.4036C46.0001 74.1036 45.6001 72.8036 44.9001 71.5036C44.2001 70.3036 42.8001 68.6036 40.7001 66.6036V77.5036C44.3001 79.0036 46.0001 78.3036 46.0001 75.4036Z" fill="#F2F4F4"/>
<path d="M47.4001 73.9035C47.4001 76.4035 46.6001 78.1035 44.9001 78.8035C43.2001 79.5035 40.9001 79.2035 38.0001 77.9035V84.4035L34.9001 82.6035V76.3035C33.1001 75.3035 31.3001 74.1035 29.6001 72.8035C27.9001 71.5035 26.5001 70.2035 25.4001 69.0035V64.6035C26.7001 66.1035 28.3001 67.5035 30.1001 69.0035C31.9001 70.5035 33.5001 71.6035 34.9001 72.4035V60.1035C31.6001 57.0035 29.3001 54.2035 27.9001 51.8035C26.6001 49.4035 25.9001 47.0035 25.9001 44.4035C25.9001 42.0035 26.7001 40.4035 28.4001 39.8035C30.0001 39.2035 32.2001 39.5035 34.9001 40.7035V35.6035L38.0001 37.4035V42.4035C41.0001 44.2035 43.9001 46.6035 46.6001 49.5035L45.3001 52.4035C42.9001 49.9035 40.4001 47.8035 37.9001 46.2035V58.4035C40.4001 60.8035 42.3001 62.8035 43.6001 64.4035C44.9001 66.0035 45.8001 67.6035 46.4001 69.1035C47.1001 70.6035 47.4001 72.2035 47.4001 73.9035ZM29.9001 46.8035C29.9001 48.2035 30.3001 49.6035 31.0001 50.9035C31.7001 52.2035 33.0001 53.7035 34.8001 55.5035V44.6035C33.2001 44.0035 32.0001 43.9035 31.2001 44.2035C30.4001 44.6035 29.9001 45.5035 29.9001 46.8035ZM43.2001 71.8035C43.2001 70.5035 42.8001 69.2035 42.1001 67.9035C41.4001 66.7035 40.0001 65.1035 38.0001 63.0035V73.9035C41.5001 75.4035 43.2001 74.7035 43.2001 71.8035Z" fill="#2E2E35"/>
</svg>
