<?xml version="1.0" encoding="utf-8"?>
<!-- Generator: Adobe Illustrator 22.1.0, SVG Export Plug-In . SVG Version: 6.00 Build 0)  -->
<svg version="1.1" id="Layer_1" xmlns="http://www.w3.org/2000/svg" xmlns:xlink="http://www.w3.org/1999/xlink" x="0px" y="0px"
	 viewBox="0 0 185 185" style="enable-background:new 0 0 185 185;" xml:space="preserve">
<style type="text/css">
	.st0{fill:#FFFFFF;}
	.st1{fill:#464547;}
	.st2{fill:#00B6CE;}
</style>
<circle class="st0" cx="92.5" cy="92.5" r="92.5"/>
<g>
	<path class="st1" d="M61.3,93.8v6.5c0,1.7,0.8,2.5,2.4,2.5h0.7c1.6,0,2.4-0.8,2.4-2.5v-3.2h3.8v3c0,4.2-2.1,6.3-6.2,6.3h-0.8
		c-4.1,0-6.2-2.1-6.2-5.9v-16c0-4.6,2.1-6.9,6.2-6.9h0.8c4.1,0,6.2,2.1,6.2,6.3v9.6L61.3,93.8L61.3,93.8z M61.3,90h5.5v-6
		c0-1.7-0.8-2.5-2.4-2.5h-0.6c-1.6,0-2.4,0.8-2.4,2.5L61.3,90L61.3,90z"/>
	<path class="st1" d="M73.3,78.2h3.9V80c0.9-1,2.5-2.1,4.7-2.1c3.3,0,5,2.2,5,5.5V101c0,3.3-1.6,5.5-5,5.5c-2.2,0-3.8-1.1-4.7-2.1v9
		h-3.9V78.2z M77.2,101.3c1.1,1,2.3,1.4,3.6,1.4c1.4,0,2.2-0.7,2.2-2.3V83.9c0-1.6-0.8-2.3-2.2-2.3c-1.2,0-2.5,0.5-3.6,1.4V101.3z"
		/>
	<path class="st1" d="M89.3,96.4c0-3.5,1.1-4.8,4.1-5.9l5.3-1.8V84c0-1.7-0.8-2.6-2.4-2.6h-0.6c-1.6,0-2.4,0.9-2.4,2.6v3.9h-3.8
		v-3.8c0-4.2,2.1-6.3,6.2-6.3h0.7c4.1,0,6.2,2.1,6.2,6.3v22h-3.9v-1.8c-1.1,1.1-2.5,2.1-4.7,2.1c-3.1,0-4.6-1.8-4.6-4.9L89.3,96.4
		L89.3,96.4z M98.7,101.4v-9.2l-3.6,1.3c-1.4,0.6-1.9,1.3-1.9,2.9v4.3c0,1.3,0.6,2.1,1.9,2.1C96.2,102.7,97.3,102.3,98.7,101.4z"/>
	<path class="st1" d="M118.3,106.1h-3.9V83.6c0-1.4-0.6-2.1-1.9-2.1c-1.1,0-2.2,0.4-3.6,1.4v23.2H105v-28h3.9V80
		c1.1-1.1,2.6-2.1,4.7-2.1c2,0,3.3,0.8,4,2.3c1.3-1.2,3-2.3,5.3-2.3c3,0,4.6,1.9,4.6,4.9v23.4h-3.9V83.6c0-1.4-0.6-2.1-1.9-2.1
		c-1.1,0-2.2,0.4-3.6,1.4L118.3,106.1L118.3,106.1z"/>
	<path class="st2" d="M52.5,80.7v5.2L46,92.2l6.5,6.2v5.3l-10-9.6v-3.7L52.5,80.7z"/>
	<path class="st2" d="M142.5,90.3v3.8l-10,9.6v-5.3l6.5-6.2l-6.5-6.3v-5.1L142.5,90.3z"/>
</g>
</svg>
