<svg width="98" height="80" viewBox="0 0 98 80" fill="none" xmlns="http://www.w3.org/2000/svg">
<path d="M1.18042 11.074L18.5597 0.882446L49.2954 18.6104L31.9161 28.802L1.18042 11.074Z" fill="#89E1F3"/>
<path d="M24.9695 24.5107L12.4446 27.2732V43.6333L15.1266 44.1697L33.3373 33.4686L24.9695 24.5107Z" fill="#2E2E35"/>
<path d="M30.6017 52.5107L47.981 42.3191L32.3986 33.3345L15.0193 43.526L30.6017 52.5107Z" fill="#89E1F3"/>
<path d="M30.6018 53.2081L13.8394 43.5261L32.3987 32.6372L48.5712 41.9705V42.6679L30.6018 53.2081ZM16.1995 43.5261L30.575 51.8403L46.7742 42.346L32.3987 34.0318L16.1995 43.5261Z" fill="#2E2E35"/>
<path d="M14.4294 56.051V79.4111L15.0195 79.7598L32.9888 69.2196L33.0425 52.618L14.4294 56.051Z" fill="#2E2E35"/>
<path d="M15.0195 79.0625L1.18042 71.0701V11.074L31.8892 28.8019V41.8096L14.9927 32.0472V43.4993L30.5751 52.4839V65.4916L14.9927 56.5069V79.0625H15.0195Z" fill="#89E1F3"/>
<path d="M1.18042 14.8556L18.5597 4.66406L49.2954 22.392L31.9161 32.5836L1.18042 14.8556Z" fill="#F2F4F4"/>
<path d="M30.6017 56.2923L47.981 46.1008L32.3986 37.1161L15.0193 47.2808L30.6017 56.2923Z" fill="#F2F4F4"/>
<path d="M31.916 42.5068L49.8853 31.9665V18.2616L18.5597 0.184937L0.590332 10.7252V71.4187L15.0195 79.7597L15.6095 79.411V57.5796L30.575 66.2156L48.5444 55.6754V41.9704L47.9543 41.6217L30.575 51.8133L15.6095 43.1773V33.1198L31.916 42.5068ZM18.5865 1.57957L48.1152 18.637L40.5788 23.0623L31.9428 28.1313L5.95432 13.139L2.41409 11.1006L18.5865 1.57957ZM29.985 52.8593V64.4991L14.4026 55.5144V78.0432L1.79723 70.7482V12.1198L7.21485 15.2577L31.326 29.1773V40.8171L14.4294 31.0547V43.9014L29.985 52.8593Z" fill="#2E2E35"/>
<path d="M69.2491 79.1697L54.6055 71.0165V17.4034L69.2491 25.5567V79.1697Z" fill="#89E1F3"/>
<path d="M82.1764 1.47241L96.82 9.62567L69.2491 25.5567L54.6055 17.4034L82.1764 1.47241Z" fill="#89E1F3"/>
<path d="M96.8202 51.438L87.9428 46.4495L81.801 49.9897V60.1008L96.8202 51.438Z" fill="#89E1F3"/>
<path d="M95.7206 30.3307L88.4792 26.0663L81.801 29.9284V38.3766L95.7206 30.3307Z" fill="#89E1F3"/>
<path d="M82.1764 5.17346L96.82 13.3267L69.2491 29.2309L54.6055 21.0777L82.1764 5.17346Z" fill="#F2F4F4"/>
<path d="M96.8202 54.7904L87.9428 49.8019L81.801 53.3421V63.4532L96.8202 54.7904Z" fill="#F2F4F4"/>
<path d="M95.7206 33.6832L88.4792 29.4188L81.801 33.2809V41.7023L95.7206 33.6832Z" fill="#F2F4F4"/>
<path d="M96.8202 8.95514L82.1497 0.80188L54.5788 16.7061L53.9888 17.0279V17.6984V71.3115L68.6593 79.4647L69.2493 79.7866L69.8393 79.4647L97.4102 63.5605V51.7597V51.0892L96.8202 50.7674L89.1229 46.4494L96.2838 42.3191V30.7061V30.0356L95.6938 29.6869L89.6056 26.1199L97.3834 21.641V9.97429V9.30379L96.8202 8.95514ZM68.6861 78.1774L55.1957 70.6678V18.3957L68.6861 25.9053V78.1774ZM55.7857 17.3766L82.1765 2.14288L95.6401 9.62563L92.9313 11.208L69.2761 24.8594L55.7857 17.3766ZM95.6401 51.4379L82.3911 59.0816V50.3115L87.9428 47.0931L95.6401 51.4379ZM94.5673 30.3306L82.3911 37.3574V30.277L88.4792 26.7636L94.5673 30.3306Z" fill="#2E2E35"/>
</svg>
