<?xml version="1.0" encoding="utf-8"?>
<!-- Generator: Adobe Illustrator 22.1.0, SVG Export Plug-In . SVG Version: 6.00 Build 0)  -->
<svg version="1.1" id="Layer_1" xmlns="http://www.w3.org/2000/svg" xmlns:xlink="http://www.w3.org/1999/xlink" x="0px" y="0px"
	 viewBox="0 0 185 185" style="enable-background:new 0 0 185 185;" xml:space="preserve">
<style type="text/css">
	.st0{fill:#FFFFFF;}
	.st1{fill:#C8102E;}
</style>
<circle class="st0" cx="92.5" cy="92.5" r="92.5"/>
<g>
	<path class="st1" d="M69.2,70.3v12.9h-3.3v-4.8h-5.2v4.9h-3.2V70.4h3.2v5.2h5.2v-5.2L69.2,70.3L69.2,70.3z M106.2,83.3H103v-6.4
		l-2.9,4.5h-1.8l-3-4.6v6.5h-3.2v-13h2.4l4.6,6.9l4.6-6.9h2.4L106.2,83.3L106.2,83.3z M80.6,69.8c-5.2,0-9.3,4-9.3,8.8
		c0,1.7,0.5,3.3,1.4,4.7h4.5c-1.4-1-2.2-2.6-2.2-4.5c0-3.1,2.5-5.6,5.6-5.6c3.1,0,5.6,2.5,5.6,5.6c0,1.9-0.8,3.5-2.2,4.5h4.5
		c0.8-1.4,1.4-3,1.4-4.7C89.9,73.7,85.8,69.8,80.6,69.8z"/>
	<path class="st1" d="M77.6,80.1c0.4,1.3,1.6,2.2,3,2.2c1.4,0,2.6-0.9,3-2.2H77.6z M112,75.5h5.7v2.7H112v2.2h6.5v2.8h-9.8V70.3h9.8
		V73H112V75.5z"/>
	<path class="st1" d="M68.6,111.6c0,2.2-1.7,3.6-4.6,3.6h-6.5v-12.9h6.2c2.9,0,4.5,1.4,4.5,3.5c0,1.2-0.7,2.5-1.8,2.9
		C67.7,108.8,68.6,110.2,68.6,111.6z M60.6,104.8v2.7h2.5c1.3,0,1.9-0.6,1.9-1.4s-0.7-1.3-1.9-1.3L60.6,104.8L60.6,104.8z
		 M65.4,111.1c0-0.8-0.7-1.3-1.9-1.3h-3v2.6h2.9C64.8,112.5,65.4,111.9,65.4,111.1z M78.5,113H73l-0.8,2.2h-3.5l5.5-12.9h3.1
		l5.5,12.9h-3.6L78.5,113z M77.4,110.2l-1.7-4.4l-1.7,4.4H77.4z M95.8,102.2v12.9h-2.5L87,108v7.1h-3.1v-12.9h2.5l6.3,7.3v-7.3H95.8
		z M103.6,110.3l-1.9,2.2v2.6h-3.2v-12.9h3.2v5.9l5.2-5.9h3.8l-4.9,5.7l5.4,7.3h-4L103.6,110.3z"/>
	<path class="st1" d="M80.6,99.3l-2.5-3.8h-2.4v3.8h-3.3v-13h5.7c3.2,0,5.4,1.7,5.4,4.6c0,1.7-0.8,3.1-2.2,3.9l3,4.5H80.6z
		 M75.7,92.7h2.5c1.3,0,2.2-0.7,2.2-1.7s-1-1.7-2.2-1.7h-2.5V92.7z M89.2,89.1v2.4h5.7v2.7h-5.7v2.2h6.5v2.8h-9.8v-13h9.8V89
		L89.2,89.1C89.2,89,89.2,89.1,89.2,89.1z M110.2,92.7c0,3.8-2.9,6.5-7,6.5H98V86.3h5.2C107.2,86.3,110.2,88.9,110.2,92.7z
		 M106.9,92.7c0-1.9-1.6-3.6-3.7-3.6h-1.9v7.2h1.9C105.3,96.4,106.9,94.8,106.9,92.7z M115.1,86.3v12.9h-3.2V86.3H115.1z
		 M127.4,89.2h-3.7v10.1h-3.2V89.2h-3.7v-2.9h10.7v2.9H127.4z M67.2,94.6c-0.5,1.2-1.5,1.9-3,1.9c-2.1,0-3.6-1.5-3.6-3.7
		s1.5-3.7,3.6-3.7c1.4,0,2.5,0.7,3,1.9h3.4c-0.7-3-3.1-4.9-6.3-4.9c-3.9,0-6.8,2.9-6.8,6.8s3,6.8,6.8,6.8c3.3,0,5.7-1.9,6.3-4.9
		h-3.4V94.6z"/>
</g>
</svg>
