<svg width="96" height="91" viewBox="0 0 96 91" fill="none" xmlns="http://www.w3.org/2000/svg">
<path d="M19.1001 26.9417C3.50007 33.7417 11.3001 56.6417 24.9001 54.3417C33.4001 52.9417 40.1001 44.5417 37.3001 35.7417C35.1001 29.0417 27.7001 25.0417 22.3001 26.6417" fill="#92C29C"/>
<path d="M11.4 90.8417C20.7 91.1417 42.2 90.7417 42.2 90.7417C41.9 86.2417 41.5 81.6417 41 77.1417C40.4 71.0417 39.7 63.8417 35.8 58.9417C28.9 50.1417 13.8 55.0417 9.59996 63.7417C5.89996 71.5417 7.29995 82.4417 8.29995 90.8417" fill="#92C29C"/>
<path d="M72.4001 26.6417C56.8001 33.4417 64.6001 56.3417 78.2001 54.0417C86.7001 52.6417 93.4001 44.2417 90.6001 35.4417C88.4001 28.7417 81.0001 24.7417 75.6001 26.3417" fill="#8C9EFB"/>
<path d="M64.7 90.5417C74 90.8417 95.5 90.4417 95.5 90.4417C95.2 85.9417 94.8 81.3417 94.3 76.8417C93.7 70.7417 93 63.5417 89.1 58.6417C82.2 49.8417 67.1 54.7417 62.9 63.4417C59.2 71.2417 60.6 82.1417 61.6 90.5417" fill="#8C9EFB"/>
<path d="M12.8 25.1417C7.69998 27.3417 4.29998 31.6417 3.89998 37.2417C3.59998 42.0417 5.49998 47.2417 9.09998 50.5417C19.2 59.7417 35.3 47.1417 32.1 34.9417C30.5 28.7417 22.7 21.8417 16 24.9417C15.7 25.1417 15.8 25.6417 16.2 25.6417C24.2 25.1417 31.9 31.1417 31.1 39.7417C30.4 47.3417 21.9 54.2417 14.3 52.1417C9.09998 50.7417 5.69998 45.5417 5.09998 40.3417C4.29998 34.0417 7.59998 28.5417 13.2 25.8417C13.5 25.5417 13.2 24.9417 12.8 25.1417Z" fill="white"/>
<path d="M2.50002 89.4417C2.70002 81.6417 0.700018 73.9417 2.80002 66.2417C4.60002 59.7417 9.70002 55.2417 16.4 53.8417C36.5 49.8417 33 77.6417 35.7 89.3417C35.8 89.8417 36.5 89.6417 36.5 89.2417C36.9 84.8417 36 80.0417 35.5 75.6417C35.2 72.3417 34.8 69.1417 34.1 65.9417C32.9 60.5417 30.2 55.1417 24.7 53.0417C20 51.2417 14.6 52.2417 10.3 54.5417C5.50002 57.1417 2.50002 61.2417 1.30002 66.5417C0.500018 70.1417 0.400018 73.9417 0.500018 77.7417C0.700018 81.6417 0.900017 85.7417 1.90002 89.4417C2.00002 89.7417 2.40002 89.7417 2.50002 89.4417Z" fill="white"/>
<path d="M5.2001 89.5417C10.0001 89.9417 14.9001 89.9417 19.7001 89.7417C24.2001 89.5417 28.8001 89.4417 33.2001 88.5417C33.6001 88.4417 33.5001 87.8417 33.1001 87.8417C28.5001 87.8417 23.8001 88.5417 19.2001 88.7417C14.6001 88.9417 9.9001 88.9417 5.2001 89.0417C4.9001 89.1417 4.9001 89.5417 5.2001 89.5417Z" fill="white"/>
<path d="M63.8 24.5417C58.7 26.7417 55.3 31.0417 54.9 36.6417C54.6 41.4417 56.5 46.6417 60.1 49.9417C70.2 59.1417 86.3 46.5417 83.1 34.3417C81.5 28.1417 73.7 21.2417 67 24.3417C66.7 24.5417 66.8 25.0417 67.2 25.0417C75.2 24.5417 82.9 30.5417 82.1 39.1417C81.4 46.7417 72.9 53.6417 65.3 51.5417C60.1 50.1417 56.7 44.9417 56.1 39.7417C55.3 33.4417 58.6 27.9417 64.2 25.2417C64.6 24.9417 64.2 24.3417 63.8 24.5417Z" fill="white"/>
<path d="M53.5 88.8417C53.7 81.0417 51.7 73.3417 53.8 65.6417C55.6 59.1417 60.7 54.6417 67.4 53.2417C87.5 49.2417 84 77.0417 86.7 88.7417C86.8 89.2417 87.5 89.0417 87.5 88.6417C87.9 84.2417 87 79.4417 86.5 75.0417C86.2 71.7417 85.8 68.5417 85.1 65.3417C83.9 59.9417 81.2 54.5417 75.7 52.4417C71 50.6417 65.6 51.6417 61.3 53.9417C56.5 56.5417 53.5 60.6417 52.3 65.9417C51.5 69.5417 51.4 73.3417 51.5 77.1417C51.7 81.0417 51.9 85.1417 52.9 88.8417C53.1 89.1417 53.5 89.1417 53.5 88.8417Z" fill="white"/>
<path d="M56.3 88.9417C61.1 89.3417 66 89.3417 70.8 89.1417C75.3 88.9417 79.9 88.8417 84.3 87.9417C84.7 87.8417 84.5999 87.2417 84.1999 87.2417C79.5999 87.2417 74.9 87.9417 70.3 88.1417C65.7 88.3417 61 88.3417 56.3 88.4417C56 88.5417 56 88.9417 56.3 88.9417Z" fill="white"/>
<path d="M18.4 22.3417C18.6 21.7417 18.8 21.0417 19 20.4417C19.2 19.9417 19.5 19.3417 19.3 18.8417C19.3 18.6417 19 18.5417 18.8 18.6417C18.3 19.0417 18.2 19.6417 18 20.2417C17.8 20.9417 17.8 21.6417 17.8 22.3417C17.9 22.5417 18.3 22.6417 18.4 22.3417Z" fill="white"/>
<path d="M21.4001 15.4417C21.6001 14.3417 22.2001 13.4417 22.4001 12.4417C22.4001 12.2417 22.2001 12.0417 22.0001 12.1417C21.5001 12.4417 21.2001 12.8417 21.0001 13.4417C20.8001 14.0417 20.7001 14.7417 20.6001 15.3417C20.6001 15.8417 21.3001 15.9417 21.4001 15.4417Z" fill="white"/>
<path d="M24.8 9.14169C25.1 8.64169 25.5 8.14169 26 7.74169C26.4 7.44169 26.9 7.14169 27.1 6.64169C27.2 6.54169 27.1 6.24169 26.9 6.34169C26.3 6.34169 25.9 6.84169 25.5 7.24169C25 7.74169 24.6 8.24169 24.3 8.84169C24 9.14169 24.6 9.54169 24.8 9.14169Z" fill="white"/>
<path d="M30.5 4.3417C31 4.0417 31.6 3.7417 32.2 3.4417C32.7 3.2417 33.2 3.1417 33.7 2.7417C33.9 2.6417 33.8 2.3417 33.6 2.2417C32.4 2.1417 31.1 2.9417 30.2 3.6417C29.8 4.0417 30.2 4.6417 30.5 4.3417Z" fill="white"/>
<path d="M37.8001 1.44169C38.6001 1.54168 39.3001 1.64168 40.1001 1.64168C40.8001 1.64168 41.5001 1.74169 42.1001 1.54169C42.3001 1.44169 42.4001 1.14169 42.2001 0.941685C41.0001 0.341685 39.1001 0.541685 37.8001 0.641685C37.2001 0.641685 37.2001 1.44169 37.8001 1.44169Z" fill="white"/>
<path d="M46.6 1.74169C47.2 2.04169 47.8 2.24169 48.4 2.54169C48.9 2.74169 49.3 3.04169 49.8 2.94169C50 2.94169 50.1 2.64169 50 2.44169C49.7 1.94169 49.1 1.74169 48.6 1.54169C48 1.34169 47.3 1.14169 46.7 1.04169C46.4 1.04169 46.2 1.64169 46.6 1.74169Z" fill="white"/>
<path d="M52.4001 3.74169C53.2001 4.24169 53.9001 4.74169 54.6001 5.34169C55.1001 5.84169 55.6001 6.34169 56.4001 6.44169C56.6001 6.44169 56.7001 6.24169 56.7001 6.04169C56.6001 5.24169 55.7001 4.74169 55.1001 4.34169C54.4001 3.84169 53.6001 3.44169 52.7001 3.14169C52.3001 3.04169 52.1001 3.64169 52.4001 3.74169Z" fill="white"/>
<path d="M58.1001 9.14169C59.1001 10.4417 59.8001 11.9417 60.9001 13.1417C61.1001 13.3417 61.4001 13.2417 61.4001 12.9417C61.3001 11.1417 60.0001 9.74169 58.7001 8.54169C58.3001 8.14169 57.8001 8.64169 58.1001 9.14169Z" fill="white"/>
<path d="M62.8001 16.6417C63.0001 17.1417 63.2001 17.7417 63.4001 18.2417C63.6001 18.7417 63.8001 19.1417 64.4001 19.3417C64.6001 19.4417 64.8001 19.2417 64.9001 19.0417C65.1001 18.5417 64.8001 18.1417 64.6001 17.7417C64.3001 17.2417 64.0001 16.8417 63.7001 16.3417C63.3001 15.9417 62.6001 16.1417 62.8001 16.6417Z" fill="white"/>
<path d="M64.8 20.8417C64.9 21.9417 65 23.0417 65.3 24.1417C65.5 24.8417 66.6 24.7417 66.6 23.9417C66.6 22.8417 66.1 21.6417 65.6 20.6417C65.5 20.2417 64.8 20.3417 64.8 20.8417Z" fill="white"/>
</svg>
