<svg width="120" height="121" viewBox="0 0 120 121" fill="none" xmlns="http://www.w3.org/2000/svg">
<g clip-path="url(#clip0)">
<path d="M95.7 20.6454L76.9 9.54542C76.7 9.44542 76.6 9.34542 76.4 9.24542L76.1 9.14541C69.4 5.54541 60.4 6.24542 50.5 11.9454C30.1 23.7454 13.5 52.4454 13.5 76.0454C13.5 86.9454 17.1 94.8454 22.9 99.0454L23.6 99.5454C24 99.8454 24.5 100.045 24.9 100.345L42.4 110.745L52.3 94.1454C69.2 82.5454 82.7 59.8454 85.2 39.1454L86.5 36.9454L95.7 20.6454Z" fill="#F25A22"/>
<path d="M50.1 11.6454C31.5 22.4454 16.1 47.1454 13.5 69.3454C13.7 79.8454 17.2 87.5454 22.9 91.6454L23.6 92.1454C24 92.4454 24.5 92.6454 24.9 92.9454L42.4 103.345L52.3 86.7454C69.2 75.1454 82.7 52.4454 85.2 31.7454L86.5 29.5454L92.5 18.7454L76.5 9.24541C76.3 9.14541 76.2 9.04541 76 8.94541L75.7 8.84541C69.1 5.24541 60 5.84541 50.1 11.6454Z" fill="white"/>
<path d="M77.6999 16.4454C77.4999 16.3454 77.3999 16.2454 77.1999 16.1454L76.8999 16.0454C70.1999 12.4454 61.1999 13.1454 51.2999 18.8454C38.4999 26.2454 27.1999 40.2454 20.5999 55.5454L65.5999 83.2454C76.5999 70.9454 84.5999 54.3454 86.5999 38.9454L87.8999 36.7454L93.8999 25.9454L77.6999 16.4454Z" fill="#F25A22"/>
<path d="M42.7999 112.045L24.3999 101.145C23.9999 100.945 23.4999 100.645 22.9999 100.345L22.2999 99.8454C15.8999 95.3454 12.3999 86.8454 12.3999 76.0454C12.3999 52.1454 29.1999 23.0454 49.8999 11.0454C59.7999 5.34543 69.2999 4.34543 76.4999 8.14543L77.2999 8.54543L96.9999 20.1454L86.2999 39.5454C83.5999 60.4454 69.9999 83.1454 53.0999 94.8454L42.7999 112.045ZM66.9999 7.94543C62.0999 7.94543 56.6999 9.54542 50.9999 12.8454C30.8999 24.4454 14.4999 52.8454 14.4999 76.0454C14.4999 86.1454 17.6999 94.0454 23.4999 98.2454L24.0999 98.6454C24.4999 98.8454 24.8999 99.1454 25.2999 99.3454L41.9999 109.245L51.6999 93.2454C68.2999 81.8454 81.5999 59.5454 84.1999 38.9454L84.2999 38.5454L85.5999 36.3454L94.1999 20.9454L75.4999 9.94543C73.0999 8.64543 70.0999 7.94543 66.9999 7.94543Z" fill="#2E2E35"/>
<path d="M95.6258 81.2626C110.068 56.2487 110.067 29.2103 95.6226 20.8708C81.1786 12.5313 57.7617 26.0487 43.3194 51.0626C28.8772 76.0766 28.8786 103.115 43.3226 111.454C57.7666 119.794 81.1836 106.277 95.6258 81.2626Z" fill="#F25A22"/>
<path d="M52.9999 114.945C49.2999 114.945 45.8999 114.045 42.8999 112.345C35.5999 108.145 31.5999 99.3454 31.5999 87.5454C31.5999 63.6454 48.3999 34.5454 69.0999 22.5454C79.2999 16.6454 88.8999 15.7454 96.2999 19.9454C103.6 24.1454 107.6 32.9454 107.6 44.7454C107.6 68.6454 90.7999 97.7454 70.0999 109.745C63.9999 113.245 58.1999 114.945 52.9999 114.945ZM85.9999 19.3454C81.0999 19.3454 75.6999 21.0454 69.9999 24.2454C49.8999 35.8454 33.4999 64.2454 33.4999 87.4454C33.4999 98.4454 37.1999 106.645 43.7999 110.545C50.4999 114.345 59.3999 113.445 68.9999 107.945C89.0999 96.3454 105.5 67.9454 105.5 44.7454C105.5 33.7454 101.8 25.5454 95.1999 21.6454C92.4999 20.1454 89.3999 19.3454 85.9999 19.3454Z" fill="#2E2E35"/>
<path d="M52.4998 80.8454L53.8998 86.2454C54.3998 88.2454 55.3998 89.8454 56.7998 90.8454L62.4998 94.9454C64.4998 96.3454 67.2999 96.4454 70.2999 95.0454L73.9998 93.3454C76.2998 92.2454 78.6999 90.3454 80.7999 87.8454C83.4999 84.6454 85.4998 80.6454 86.4998 76.6454L89.7999 63.0454C90.1999 61.1454 90.1998 59.4454 89.6998 58.1454L85.7999 47.6454C84.8998 45.2454 83.6998 43.3454 82.0998 41.7454L77.3998 37.2454C76.1998 36.0454 73.9999 36.9454 72.2999 39.1454C71.6999 39.9454 71.3998 40.8454 71.3998 41.6454V42.5454C71.3998 43.5454 70.8998 44.6454 70.0998 45.4454L69.7999 45.7454C69.0998 46.5454 68.5998 47.6454 68.4998 48.5454V49.6454C68.4998 50.6454 68.8998 51.2454 69.5998 51.3454C70.5998 51.4454 72.1998 51.8454 73.6998 53.0454C75.0998 54.2454 73.2998 58.3454 71.0998 58.6454L68.9998 59.0454C67.5998 59.2454 66.0998 60.0454 64.6998 61.3454L58.8998 66.7454C57.6999 67.8454 56.9998 69.6454 57.3998 70.8454L57.8998 72.4454C58.1999 73.4454 59.1998 73.6454 60.2998 72.9454L66.7999 68.4454C67.2999 68.1454 67.6998 67.9454 68.0998 68.0454L73.1998 68.5454C74.5998 68.6454 75.0998 70.4454 74.2999 72.5454C73.9999 73.3454 73.4998 74.1454 72.8998 74.8454L68.3998 79.6454C66.5998 81.5454 64.5998 82.4454 62.9998 82.1454C61.9998 81.9454 61.2998 81.2454 60.7998 80.2454L59.2998 76.4454C59.0998 75.8454 58.4998 75.5454 57.8998 75.6454L55.4998 76.1454C54.5998 76.3454 53.6998 77.2454 53.0998 78.3454C52.4998 79.1454 52.3998 80.1454 52.4998 80.8454Z" fill="white"/>
<path d="M63.7998 95.4454C62.1998 95.4454 60.7998 95.0454 59.5998 94.1454L53.9998 90.0454C52.3998 88.9454 51.2998 87.1454 50.6998 84.8454L49.2998 79.4454C49.0998 78.5454 49.2998 77.3454 49.7998 76.1454C50.4998 74.6454 51.6998 73.6454 52.8998 73.3454L55.2998 72.8454C56.3998 72.6454 57.3998 73.1454 57.8998 74.2454L59.3998 78.0454C59.6998 78.7454 60.1998 79.2454 60.7998 79.3454C61.9998 79.6454 63.7998 78.7454 65.2998 77.1454L69.7998 72.3454C70.2998 71.8454 70.6998 71.1454 70.9998 70.3454C71.3998 69.2454 71.3998 68.3454 71.0998 67.9454C70.9998 67.7454 70.8998 67.7454 70.6998 67.7454L65.7998 67.4454C65.6998 67.4454 65.3998 67.5454 65.0998 67.7454L58.5998 72.2454C57.6998 72.8454 56.7998 73.0454 56.0998 72.7454C55.3998 72.5454 54.9998 71.9454 54.6998 71.2454L54.1998 69.6454C53.6998 68.1454 54.4998 65.8454 55.9998 64.5454L61.7998 59.1454C63.3998 57.6454 65.0998 56.7454 66.6998 56.5454L68.7998 56.2454C69.5998 56.1454 70.4998 55.0454 70.8998 53.7454C71.0998 53.0454 70.9998 52.5454 70.8998 52.3454C69.5998 51.2454 68.2998 50.9454 67.3998 50.8454C66.0998 50.7454 65.2998 49.6454 65.3998 48.1454V47.0454C65.3998 45.8454 65.9998 44.5454 66.8998 43.5454L67.1998 43.2454C67.7998 42.6454 68.1998 41.7454 68.1998 41.0454V40.1454C68.1998 39.1454 68.5998 38.0454 69.2998 37.0454C70.4998 35.3454 72.0998 34.3454 73.5998 34.1454C74.4998 34.0454 75.2998 34.3454 75.8998 34.9454L80.5998 39.4454C82.2998 41.0454 83.5998 43.1454 84.5998 45.6454L88.4998 56.1454C89.0998 57.6454 89.0998 59.5454 88.5998 61.5454L85.2998 75.1454C84.2998 79.2454 82.1998 83.3454 79.3998 86.7454C77.1998 89.3454 74.7998 91.3454 72.2998 92.5454L68.5998 94.2454C66.7998 95.0454 65.2998 95.4454 63.7998 95.4454ZM51.2998 78.9454L52.6998 84.3454C53.1998 86.1454 53.9998 87.5454 55.1998 88.3454L60.8998 92.4454C62.5998 93.6454 64.9998 93.6454 67.6998 92.4454L71.3998 90.7454C73.5998 89.7454 75.8998 87.8454 77.7998 85.5454C80.3998 82.4454 82.3998 78.5454 83.2998 74.7454L86.5998 61.1454C86.9998 59.4454 86.9998 57.9454 86.5998 56.8454L82.6998 46.3454C81.8998 44.1454 80.6998 42.2454 79.1998 40.8454L74.4998 36.3454C74.2998 36.1454 74.0998 36.0454 73.7998 36.1454C73.0998 36.2454 71.9998 36.7454 70.8998 38.2454C70.4998 38.8454 70.1998 39.5454 70.1998 40.1454V41.0454C70.1998 42.2454 69.5998 43.6454 68.5998 44.6454L68.2998 44.9454C67.6998 45.5454 67.2998 46.4454 67.2998 47.1454V48.2454C67.2998 48.4454 67.2998 48.9454 67.4998 48.9454C68.6998 49.0454 70.4998 49.5454 72.0998 50.9454C72.8998 51.6454 73.1998 52.9454 72.7998 54.3454C72.2998 56.0454 70.7998 57.9454 69.0998 58.2454L66.8998 58.4454C65.6998 58.6454 64.3998 59.3454 63.0998 60.5454L57.2998 65.9454C56.2998 66.8454 55.8998 68.3454 56.0998 69.0454L56.5998 70.6454C56.7998 70.8454 57.0998 70.8454 57.4998 70.6454L63.9998 66.1454C64.6998 65.7454 65.2998 65.4454 65.9998 65.5454L71.0998 66.0454C71.8998 66.1454 72.5998 66.5454 72.9998 67.2454C73.5998 68.2454 73.6998 69.8454 72.9998 71.4454C72.5998 72.4454 72.0998 73.3454 71.3998 74.0454L66.8998 78.8454C64.8998 80.9454 62.4998 82.0454 60.5998 81.6454C59.2998 81.3454 58.2998 80.4454 57.6998 79.1454L56.1998 75.3454C56.0998 75.2454 56.0998 75.1454 55.8998 75.2454L53.4998 75.7454C52.9998 75.8454 52.1998 76.4454 51.6998 77.4454C51.2998 77.7454 51.1998 78.5454 51.2998 78.9454Z" fill="#2E2E35"/>
</g>
<defs>
<clipPath id="clip0">
<rect width="120" height="120" fill="white" transform="translate(0 0.445435)"/>
</clipPath>
</defs>
</svg>
