<?xml version="1.0" encoding="utf-8"?>
<!-- Generator: Adobe Illustrator 22.1.0, SVG Export Plug-In . SVG Version: 6.00 Build 0)  -->
<svg version="1.1" id="Layer_1" xmlns="http://www.w3.org/2000/svg" xmlns:xlink="http://www.w3.org/1999/xlink" x="0px" y="0px"
	 viewBox="0 0 185 185" style="enable-background:new 0 0 185 185;" xml:space="preserve">
<style type="text/css">
	.st0{fill:#FFFFFF;}
	.st1{fill:#1A9660;}
	.st2{fill:#1D1E1C;}
</style>
<circle class="st0" cx="92.5" cy="92.5" r="92.5"/>
<g>
	<path class="st1" d="M70.7,79.7h5.3l-6.2,5.7L70.7,79.7z"/>
	<path class="st2" d="M62.1,81.6h-4.2c-1.5,0-3.1,0.6-4.4,1.8l-11,10h3.8l9-8.2c0.7-0.6,1.5-0.9,2.4-0.9h1.1l-0.6,3.7h-2.2
		c-2.1,0-3.5,1.3-3.5,1.3l-1.4,1.4h6.7l-0.5,2.8h3L62.1,81.6z"/>
	<path class="st2" d="M142.4,87.5c0.6-3.3-1.6-5.9-4.8-5.9h0.1h-3.4c-3.1,0.1-6.2,2.6-6.7,5.9c-0.6,3.2,1.5,5.8,4.6,5.9h3.8
		C134.6,93.3,141.4,93.7,142.4,87.5z M135.7,90.7H133c-1.8,0-3-1.4-2.6-3.2c0.3-1.8,2-3.2,3.8-3.2h2.6c1.8,0,3,1.4,2.6,3.2
		C139.1,89.3,137.5,90.7,135.7,90.7z"/>
	<path class="st2" d="M96.3,81.6c-3,0-13.4,0-13.4,0l-0.5,2.6h4.3l-1.6,9.1h3l1.6-9.1h3.8C93.4,84.2,94.4,82.6,96.3,81.6z"/>
	<path class="st2" d="M127.9,81.6h-3.8l-5,4.6h-2.8l0.8-4.6h-3l-2.1,11.8h3l0.8-4.6h3.3l2.3,3.1c0,0,1,1.4,3.1,1.4
		c0.6,0,1.4,0,1.4,0l-4.4-6L127.9,81.6z"/>
	<path class="st2" d="M76.2,81.6l-9,8.2l1.4-8.2h-3l-2.1,11.8h1.1c2.3,0,4.2-1.8,4.2-1.8l7.3-6.6l-1.4,8.3h3l2.1-11.8L76.2,81.6"/>
	<path class="st2" d="M100.7,90.7c-1.8,0-3-1.4-2.6-3.2s2-3.2,3.8-3.2h5.3c0.6,0,0.9,0.4,0.8,1c-0.1,0.6-0.6,1-1.1,1h-6.9
		c-0.4,0.4-0.6,0.8-0.7,1.3c-0.1,0.5,0,1,0.2,1.3h7c2,0,3.8-1.6,4.2-3.6c0.4-2-1-3.6-3-3.6H102c-3.2,0-6.3,2.6-6.9,5.9
		s1.6,5.9,4.8,5.9h9.1l0.5-2.6L100.7,90.7"/>
	<path class="st2" d="M49.2,99.7h-1.1v3H47v-3h-1.2v-0.9h3.5L49.2,99.7L49.2,99.7z"/>
	<path class="st2" d="M53.1,102.4c-0.2,0.2-0.4,0.2-0.7,0.3c-0.3,0.1-0.6,0.2-1,0.2c-0.6,0-1.1-0.2-1.4-0.6
		c-0.3-0.4-0.5-0.9-0.5-1.5s0.2-1.2,0.6-1.5s0.9-0.6,1.4-0.6c0.2,0,0.4,0.1,0.6,0.1c0.2,0.1,0.4,0.2,0.6,0.2
		c0.2,0.2,0.3,0.3,0.4,0.5c0.1,0.2,0.2,0.5,0.2,0.7c0,0.2,0,0.2,0,0.3s-0.1,0.2-0.1,0.4h-2.6c0.1,0.3,0.2,0.6,0.3,0.7
		c0.2,0.2,0.5,0.2,0.8,0.2c0.2,0,0.5-0.1,0.6-0.1c0.2-0.1,0.3-0.2,0.4-0.2L53.1,102.4z M51.5,99.5c-0.3,0-0.6,0.1-0.7,0.2
		c-0.2,0.2-0.2,0.4-0.2,0.6h1.7c0-0.3-0.1-0.5-0.2-0.6C52,99.6,51.8,99.5,51.5,99.5z"/>
	<path class="st2" d="M55,100.7l-1.3-1.8H55l0.5,0.8l0.3,0.6l0.3-0.6l0.6-0.8h1l-1.3,1.9l1.4,2h-1.2l-0.6-0.9l-0.3-0.7l-0.3,0.7
		l-0.6,0.9h-1.1L55,100.7z"/>
	<path class="st2" d="M60.9,101.2h-1.4v1.5h-1v-3.8h1v1.4h1.4v-1.4h1v3.9h-1V101.2z"/>
	<path class="st2" d="M62.7,100.8c0-0.6,0.2-1.1,0.5-1.5c0.3-0.4,0.8-0.6,1.4-0.6c0.3,0,0.6,0.1,0.9,0.2c0.2,0.2,0.5,0.2,0.6,0.5
		c0.2,0.2,0.3,0.4,0.4,0.6c0.1,0.2,0.2,0.6,0.2,0.8c0,0.3-0.1,0.6-0.2,0.9c-0.1,0.2-0.2,0.5-0.4,0.6c-0.2,0.2-0.4,0.3-0.6,0.4
		c-0.2,0.1-0.6,0.2-0.8,0.2c-0.3,0-0.6-0.1-0.9-0.2c-0.2-0.2-0.5-0.2-0.6-0.5c-0.2-0.2-0.3-0.4-0.4-0.6
		C62.8,101.3,62.7,101.1,62.7,100.8z M63.9,100.8c0,0.2,0,0.3,0.1,0.5c0.1,0.2,0.1,0.3,0.2,0.4c0.1,0.2,0.2,0.2,0.3,0.2
		c0.2,0.1,0.2,0.1,0.4,0.1c0.6,0,0.9-0.4,0.9-1.2c0-0.2,0-0.3-0.1-0.5c-0.1-0.2-0.1-0.3-0.2-0.4c-0.1-0.2-0.2-0.2-0.3-0.2
		c-0.2-0.1-0.2-0.1-0.4-0.1c-0.3,0-0.5,0.1-0.6,0.3C63.9,100.1,63.9,100.4,63.9,100.8z"/>
	<path class="st2" d="M69.9,99.7H69c0,0.4-0.1,0.8-0.1,1.1c-0.1,0.4-0.2,0.7-0.2,1c-0.2,0.3-0.2,0.5-0.4,0.6
		c-0.2,0.2-0.4,0.2-0.6,0.2c-0.3,0-0.6-0.1-0.6-0.2l0.2-0.9c0.1,0.1,0.2,0.1,0.2,0.1c0.2,0,0.2-0.1,0.3-0.2c0.1-0.1,0.2-0.2,0.2-0.5
		c0.1-0.2,0.2-0.6,0.2-0.9c0.1-0.4,0.1-0.9,0.1-1.5H71v3.9h-1L69.9,99.7"/>
	<path class="st2" d="M71.8,100.8c0-0.6,0.2-1.1,0.5-1.5s0.8-0.6,1.4-0.6c0.3,0,0.6,0.1,0.9,0.2c0.2,0.2,0.5,0.2,0.6,0.5
		c0.2,0.2,0.3,0.4,0.4,0.6c0.1,0.2,0.2,0.6,0.2,0.8c0,0.3-0.1,0.6-0.2,0.9c-0.1,0.2-0.2,0.5-0.4,0.6c-0.2,0.2-0.4,0.3-0.6,0.4
		c-0.2,0.1-0.6,0.2-0.8,0.2c-0.3,0-0.6-0.1-0.9-0.2c-0.2-0.2-0.5-0.2-0.6-0.5c-0.2-0.2-0.3-0.4-0.4-0.6
		C71.8,101.3,71.8,101.1,71.8,100.8z M72.8,100.8c0,0.2,0,0.3,0.1,0.5c0.1,0.2,0.1,0.3,0.2,0.4c0.1,0.2,0.2,0.2,0.3,0.2
		c0.2,0.1,0.2,0.1,0.4,0.1c0.6,0,0.9-0.4,0.9-1.2c0-0.2,0-0.3-0.1-0.5c-0.1-0.2-0.1-0.3-0.2-0.4c-0.1-0.2-0.2-0.2-0.3-0.2
		c-0.2-0.1-0.2-0.1-0.4-0.1c-0.3,0-0.5,0.1-0.6,0.3C72.9,100.1,72.8,100.4,72.8,100.8z"/>
	<path class="st2" d="M79.2,99.7h-1.6v3h-1.1v-3.8h2.7V99.7z"/>
	<path class="st2" d="M82.3,100.9l0.1-0.6l-0.5,0.6l-1.5,1.8h-0.6v-3.8h1v1.8l-0.1,0.6h0.1c0.1-0.1,0.2-0.2,0.2-0.2
		c0.1-0.1,0.2-0.2,0.2-0.2l1.5-1.8h0.6v3.9h-1L82.3,100.9"/>
	<path class="st2" d="M87,100.9l0.1-0.6l-0.5,0.6l-1.5,1.8h-0.6v-3.8h1v1.8l-0.1,0.6h0.1c0.1-0.1,0.2-0.2,0.2-0.2
		c0.1-0.1,0.2-0.2,0.2-0.2l1.5-1.8h0.6v3.9h-1L87,100.9"/>
	<path class="st2" d="M90.3,99.7c0.2-0.2,0.4-0.4,0.6-0.5c0.2-0.2,0.5-0.2,0.8-0.2c0.5,0,0.9,0.2,1.2,0.4c0.3,0.3,0.5,0.7,0.5,1.3
		c0,0.7-0.2,1.2-0.5,1.6c-0.3,0.4-0.8,0.6-1.4,0.6c-0.6,0-1.1-0.2-1.4-0.6c-0.3-0.4-0.5-1-0.5-1.8c0-0.5,0.1-0.8,0.1-1.1
		c0.1-0.3,0.2-0.6,0.2-0.8s0.2-0.4,0.4-0.5c0.2-0.2,0.3-0.2,0.5-0.2c0.2-0.1,0.4-0.2,0.6-0.2c0.2-0.1,0.4-0.1,0.6-0.1
		c0.3-0.1,0.6-0.1,0.7-0.1c0.2-0.1,0.4-0.1,0.5-0.2l0.1,0.9c-0.2,0.1-0.3,0.2-0.5,0.2c-0.2,0.1-0.5,0.1-0.9,0.1
		c-0.2,0-0.4,0.1-0.6,0.1c-0.2,0-0.3,0.1-0.5,0.2c-0.2,0.1-0.2,0.2-0.3,0.4C90.3,99.3,90.3,99.5,90.3,99.7L90.3,99.7z M90.4,100.9
		c0,0.2,0,0.3,0.1,0.5c0.1,0.2,0.1,0.2,0.2,0.3c0.1,0.1,0.2,0.2,0.3,0.2s0.2,0.1,0.4,0.1c0.3,0,0.6-0.1,0.7-0.3
		c0.2-0.2,0.2-0.5,0.2-0.8c0-0.3-0.1-0.6-0.2-0.7s-0.4-0.2-0.6-0.2c-0.3,0-0.6,0.1-0.7,0.2C90.5,100.3,90.4,100.5,90.4,100.9z"/>
	<path class="st2" d="M97.4,102.4c-0.2,0.2-0.4,0.2-0.7,0.3c-0.3,0.1-0.6,0.2-1,0.2c-0.6,0-1.1-0.2-1.4-0.6
		c-0.3-0.4-0.5-0.9-0.5-1.5s0.2-1.2,0.6-1.5c0.4-0.3,0.9-0.6,1.4-0.6c0.2,0,0.4,0.1,0.6,0.1c0.2,0.1,0.4,0.2,0.6,0.2
		c0.2,0.2,0.3,0.3,0.4,0.5c0.1,0.2,0.2,0.5,0.2,0.7c0,0.2,0,0.2,0,0.3s-0.1,0.2-0.1,0.4h-2.6c0.1,0.3,0.2,0.6,0.3,0.7
		s0.5,0.2,0.8,0.2c0.2,0,0.5-0.1,0.6-0.1c0.2-0.1,0.3-0.2,0.4-0.2L97.4,102.4z M95.9,99.5c-0.3,0-0.6,0.1-0.7,0.2
		c-0.2,0.2-0.2,0.4-0.2,0.6h1.7c0-0.3-0.1-0.5-0.2-0.6S96.1,99.5,95.9,99.5z"/>
	<path class="st2" d="M98.9,101.1v-0.6h0.5c0.2,0,0.4-0.1,0.6-0.2c0.2-0.1,0.2-0.2,0.2-0.3c0-0.2-0.1-0.2-0.2-0.3
		c-0.2-0.1-0.3-0.1-0.6-0.1c-0.2,0-0.4,0.1-0.6,0.1c-0.2,0.1-0.3,0.2-0.4,0.2c-0.1-0.2-0.1-0.2-0.1-0.4c-0.1-0.2-0.1-0.2-0.1-0.4
		c0.2-0.1,0.4-0.2,0.6-0.2c0.3-0.1,0.6-0.1,0.9-0.1c0.5,0,0.8,0.1,1,0.2s0.4,0.4,0.4,0.7c0,0.1,0,0.2-0.1,0.2s-0.1,0.2-0.2,0.2
		c-0.1,0.1-0.2,0.2-0.2,0.2c-0.1,0.1-0.2,0.2-0.3,0.2v0.1c0.3,0.1,0.6,0.2,0.6,0.3c0.2,0.2,0.2,0.4,0.2,0.6c0,0.2-0.1,0.3-0.2,0.5
		c-0.1,0.2-0.2,0.2-0.3,0.4c-0.2,0.2-0.3,0.2-0.6,0.2c-0.2,0.1-0.5,0.1-0.8,0.1c-0.3,0-0.6-0.1-0.8-0.1c-0.2-0.1-0.4-0.2-0.6-0.2
		c0.1-0.2,0.1-0.2,0.2-0.4c0.1-0.2,0.1-0.2,0.2-0.4c0.2,0.1,0.3,0.2,0.5,0.2c0.2,0.1,0.4,0.1,0.6,0.1c0.6,0,0.8-0.2,0.8-0.5
		c0-0.1,0-0.2-0.1-0.2c-0.1-0.1-0.1-0.1-0.2-0.2c-0.1-0.1-0.2-0.1-0.3-0.1c-0.2,0-0.3-0.1-0.5-0.1h-0.6"/>
	<path class="st2" d="M104.9,99.7h-1.4v3h-1v-3.8h3.5v3.9h-1.1V99.7z"/>
	<path class="st2" d="M107,98.9h0.7l0.2,0.5h0.1c0.2-0.2,0.3-0.3,0.6-0.5c0.2-0.1,0.5-0.2,0.7-0.2c0.6,0,0.9,0.2,1.2,0.5
		c0.2,0.3,0.4,0.8,0.4,1.5c0,0.3-0.1,0.6-0.2,0.9c-0.1,0.2-0.2,0.5-0.4,0.7c-0.2,0.2-0.4,0.3-0.6,0.5c-0.2,0.1-0.6,0.2-0.8,0.2
		c-0.2,0-0.3,0-0.5-0.1c-0.2-0.1-0.2-0.1-0.4-0.2v1.3h-1L107,98.9L107,98.9z M108.9,99.6c-0.2,0-0.4,0.1-0.6,0.2
		c-0.2,0.2-0.2,0.3-0.3,0.5v1.5c0.1,0.1,0.2,0.2,0.3,0.2c0.2,0.1,0.2,0.1,0.4,0.1c0.3,0,0.6-0.2,0.7-0.3c0.2-0.2,0.2-0.6,0.2-1
		c0-0.3-0.1-0.6-0.2-0.8C109.4,99.7,109.2,99.6,108.9,99.6z"/>
	<path class="st2" d="M111.4,100.8c0-0.6,0.2-1.1,0.5-1.5c0.3-0.4,0.8-0.6,1.4-0.6c0.3,0,0.6,0.1,0.9,0.2c0.2,0.2,0.5,0.2,0.6,0.5
		c0.2,0.2,0.3,0.4,0.4,0.6c0.1,0.2,0.2,0.6,0.2,0.8c0,0.3-0.1,0.6-0.2,0.9c-0.1,0.2-0.2,0.5-0.4,0.6c-0.2,0.2-0.4,0.3-0.6,0.4
		c-0.2,0.1-0.6,0.2-0.8,0.2c-0.3,0-0.6-0.1-0.9-0.2c-0.2-0.1-0.5-0.2-0.6-0.5c-0.2-0.2-0.3-0.4-0.4-0.6
		C111.5,101.3,111.4,101.1,111.4,100.8z M112.5,100.8c0,0.2,0,0.3,0.1,0.5c0.1,0.2,0.1,0.3,0.2,0.4c0.1,0.2,0.2,0.2,0.3,0.2
		c0.2,0.1,0.2,0.1,0.4,0.1c0.6,0,0.9-0.4,0.9-1.2c0-0.2,0-0.3-0.1-0.5c-0.1-0.2-0.1-0.3-0.2-0.4c-0.1-0.2-0.2-0.2-0.3-0.2
		c-0.2-0.1-0.2-0.1-0.4-0.1c-0.3,0-0.5,0.1-0.6,0.3C112.5,100.1,112.5,100.4,112.5,100.8z"/>
	<path class="st2" d="M116.8,99.7c0.2-0.2,0.4-0.4,0.6-0.5c0.2-0.2,0.5-0.2,0.8-0.2c0.5,0,0.9,0.2,1.2,0.4c0.3,0.3,0.5,0.7,0.5,1.3
		c0,0.7-0.2,1.2-0.5,1.6c-0.3,0.4-0.8,0.6-1.4,0.6c-0.6,0-1.1-0.2-1.4-0.6c-0.3-0.4-0.5-1-0.5-1.8c0-0.5,0.1-0.8,0.1-1.1
		c0.1-0.3,0.2-0.6,0.2-0.8c0.1-0.2,0.2-0.4,0.4-0.5c0.2-0.2,0.3-0.2,0.5-0.2c0.2-0.1,0.4-0.2,0.6-0.2c0.2-0.1,0.4-0.1,0.6-0.1
		c0.3-0.1,0.6-0.1,0.7-0.1c0.2-0.1,0.4-0.1,0.5-0.2l0.1,0.9c-0.2,0.1-0.3,0.2-0.5,0.2c-0.2,0.1-0.5,0.1-0.9,0.1
		c-0.2,0-0.4,0.1-0.6,0.1c-0.2,0-0.3,0.1-0.5,0.2c-0.2,0.1-0.2,0.2-0.3,0.4C116.9,99.3,116.8,99.5,116.8,99.7L116.8,99.7z
		 M117,100.9c0,0.2,0,0.3,0.1,0.5c0.1,0.2,0.1,0.2,0.2,0.3c0.1,0.1,0.2,0.2,0.3,0.2s0.2,0.1,0.4,0.1c0.3,0,0.6-0.1,0.7-0.3
		c0.2-0.2,0.2-0.5,0.2-0.8c0-0.3-0.1-0.6-0.2-0.7s-0.4-0.2-0.6-0.2c-0.3,0-0.6,0.1-0.7,0.2C117.1,100.3,117,100.5,117,100.9z"/>
	<path class="st2" d="M124,102.4c-0.2,0.2-0.4,0.2-0.7,0.3c-0.3,0.1-0.6,0.2-1,0.2c-0.6,0-1.1-0.2-1.4-0.6c-0.3-0.4-0.5-0.9-0.5-1.5
		s0.2-1.2,0.6-1.5s0.9-0.6,1.4-0.6c0.2,0,0.4,0.1,0.6,0.1s0.4,0.2,0.6,0.2c0.2,0.2,0.3,0.3,0.4,0.5c0.1,0.2,0.2,0.5,0.2,0.7
		c0,0.2,0,0.2,0,0.3s-0.1,0.2-0.1,0.4h-2.6c0.1,0.3,0.2,0.6,0.3,0.7c0.2,0.2,0.5,0.2,0.8,0.2c0.2,0,0.5-0.1,0.6-0.1
		c0.2-0.1,0.3-0.2,0.4-0.2L124,102.4z M122.5,99.5c-0.3,0-0.6,0.1-0.7,0.2c-0.2,0.2-0.2,0.4-0.2,0.6h1.7c0-0.3-0.1-0.5-0.2-0.6
		C122.9,99.6,122.7,99.5,122.5,99.5z"/>
	<path class="st2" d="M127.3,99.7h-0.9c0,0.4-0.1,0.8-0.1,1.1c-0.1,0.4-0.2,0.7-0.2,1c-0.2,0.3-0.2,0.5-0.4,0.6
		c-0.2,0.2-0.4,0.2-0.6,0.2c-0.3,0-0.6-0.1-0.6-0.2l0.2-0.9c0.1,0.1,0.2,0.1,0.2,0.1c0.2,0,0.2-0.1,0.3-0.2c0.1-0.1,0.2-0.2,0.2-0.5
		c0.1-0.2,0.2-0.6,0.2-0.9c0.1-0.4,0.1-0.9,0.1-1.5h2.8v3.9h-1.1V99.7z"/>
	<path class="st2" d="M129.1,100.8c0-0.6,0.2-1.1,0.5-1.5c0.3-0.4,0.8-0.6,1.4-0.6c0.3,0,0.6,0.1,0.9,0.2c0.2,0.2,0.5,0.2,0.6,0.5
		c0.2,0.2,0.3,0.4,0.4,0.6s0.2,0.6,0.2,0.8c0,0.3-0.1,0.6-0.2,0.9c-0.1,0.2-0.2,0.5-0.4,0.6c-0.2,0.2-0.4,0.3-0.6,0.4
		c-0.2,0.1-0.6,0.2-0.8,0.2c-0.3,0-0.6-0.1-0.9-0.2c-0.2-0.2-0.5-0.2-0.6-0.5c-0.2-0.2-0.3-0.4-0.4-0.6
		C129.2,101.3,129.1,101.1,129.1,100.8z M130.3,100.8c0,0.2,0,0.3,0.1,0.5c0.1,0.2,0.1,0.3,0.2,0.4c0.1,0.2,0.2,0.2,0.3,0.2
		c0.2,0.1,0.2,0.1,0.4,0.1c0.6,0,0.9-0.4,0.9-1.2c0-0.2,0-0.3-0.1-0.5c-0.1-0.2-0.1-0.3-0.2-0.4c-0.1-0.2-0.2-0.2-0.3-0.2
		c-0.2-0.1-0.2-0.1-0.4-0.1c-0.3,0-0.5,0.1-0.6,0.3C130.3,100.1,130.3,100.4,130.3,100.8z"/>
	<path class="st2" d="M133.9,98.9c0.2,0,0.5-0.1,0.7-0.1c0.3,0,0.6-0.1,0.9-0.1c0.6,0,1,0.1,1.3,0.2c0.2,0.2,0.4,0.4,0.4,0.7
		c0,0.2-0.1,0.4-0.2,0.6c-0.2,0.2-0.3,0.3-0.6,0.4v0.1c0.3,0.1,0.6,0.2,0.6,0.3c0.2,0.2,0.2,0.4,0.2,0.6c0,0.4-0.2,0.6-0.5,0.9
		c-0.3,0.2-0.9,0.3-1.5,0.3c-0.2,0-0.5,0-0.7,0s-0.5-0.1-0.7-0.1L133.9,98.9L133.9,98.9z M135.6,100.5c0.2,0,0.4-0.1,0.5-0.2
		c0.2-0.1,0.2-0.2,0.2-0.3c0-0.2-0.1-0.2-0.2-0.3c-0.2-0.1-0.3-0.2-0.6-0.2c-0.1,0-0.2,0-0.2,0c-0.1,0-0.2,0-0.2,0h-0.1
		c-0.1,0-0.1,0-0.1,0v0.8L135.6,100.5L135.6,100.5z M135,102c0.1,0,0.2,0.1,0.2,0.1c0.1,0,0.2,0,0.2,0c0.3,0,0.6-0.1,0.7-0.2
		c0.2-0.1,0.2-0.2,0.2-0.4s-0.1-0.2-0.2-0.3c-0.2-0.1-0.3-0.2-0.6-0.2H135V102z"/>
	<path class="st1" d="M100.7,104.7H89.6v0.6h11.1V104.7z"/>
	<path class="st2" d="M88,104.7H46.9v0.6H88V104.7z"/>
	<path class="st2" d="M137.1,104.7h-34.8v0.6h34.8V104.7z"/>
</g>
</svg>
