<svg width="107" height="85" viewBox="0 0 107 85" fill="none" xmlns="http://www.w3.org/2000/svg">
<path d="M1.41064 65.5375L15.5447 73.3957V84.2578L1.41064 76.3995V65.5375Z" fill="#8C9EFB"/>
<path d="M11.4678 7.84786L25.6019 15.7329L37.7781 8.7061L23.6172 0.821045L11.4678 7.84786Z" fill="#8C9EFB"/>
<path d="M17.6362 72.6716C18.3603 72.4302 19.1649 72.0547 20.0231 71.5451C22.0346 70.3919 23.4561 68.8631 24.3143 66.9857C25.1726 65.1083 25.6017 62.48 25.6017 59.1007V15.7329L23.617 14.6333L11.4408 7.87463V51.2424C11.4408 54.6218 11.0117 57.2501 10.1534 59.1275C9.29518 61.0049 7.87372 62.5336 5.86223 63.6869C5.00399 64.1965 4.19939 64.5451 3.47526 64.8133C2.75112 65.0547 2.0538 65.2961 1.3833 65.5375L11.3335 71.0624L15.5442 73.3957C16.2147 73.1543 16.912 72.9129 17.6362 72.6716Z" fill="#8C9EFB"/>
<path d="M1.97363 69.4263C1.97363 69.4263 6.39892 68.2462 9.02727 66.4761C11.6556 64.706 12.6211 62.9091 12.6211 62.9091L24.6365 69.9627L15.1422 76.5336L1.97363 69.4263Z" fill="#F2F4F4"/>
<path d="M11.4678 12.6485L25.6019 20.5068L37.7781 13.4799L23.6172 5.6217L11.4678 12.6485Z" fill="#F2F4F4"/>
<path d="M23.617 0.177368L10.8776 7.52603V51.2157C10.8776 54.4877 10.4753 57.0624 9.64386 58.8862C8.83926 60.6563 7.47144 62.1046 5.59405 63.2042C4.78945 63.6869 4.01167 64.0356 3.31436 64.277C2.67068 64.4915 2.05382 64.7061 1.46378 64.9207L0.846924 65.1352V65.8594V76.7214L15.4906 84.8747C15.4906 84.8747 20.0232 83.0778 22.1151 81.8709C27.5059 78.7597 31.5826 74.549 34.2914 69.3459C36.9734 64.1429 38.3412 57.9475 38.3412 50.867V8.35745L23.617 0.177368ZM23.6439 1.46473L36.6515 8.7061L36.1419 9.00112L25.6285 15.0624L19.0845 11.4417L12.5941 7.84787L23.6439 1.46473ZM14.981 83.2923L1.94654 76.0509V66.4762L14.981 73.7176V83.2923ZM2.77796 65.6448C3.07298 65.5375 3.368 65.4302 3.68984 65.3498C4.46761 65.0816 5.29903 64.7061 6.18409 64.1965C8.27604 62.9896 9.80478 61.3536 10.7167 59.3689C11.6017 57.4111 12.0577 54.6754 12.0577 51.2425V8.81339L25.0921 16.0548V59.1007C25.0921 62.3728 24.6898 64.9475 23.8584 66.7712C23.0538 68.5414 21.686 69.9896 19.8086 71.0892C19.4063 71.3306 19.004 71.5452 18.6285 71.7061C18.2531 71.8938 17.8776 72.0279 17.5289 72.162C17.4753 72.1889 17.4485 72.1889 17.3948 72.2157C16.8048 72.4302 16.2147 72.618 15.6783 72.8057L2.77796 65.6448Z" fill="#2E2E35"/>
<path d="M99.5448 31.1542C95.2805 24.0469 89.2192 18.227 81.3609 13.6945L64.4375 3.93201L49.3647 12.8362C49.3647 12.8362 60.3609 22.3037 60.6559 22.4914C60.7364 22.545 62.3188 23.6446 64.4644 25.1734L77.6866 34.8286L82.9701 58.3496L83.7479 71.3305L84.1502 81.7098L99.223 72.8055C103.729 70.3113 105.955 64.3305 105.955 54.9167C105.955 46.2002 103.836 38.2615 99.5448 31.1542Z" fill="#8C9EFB"/>
<path d="M83.6136 82.7291L83.1845 71.4111L82.4067 58.457L77.1768 35.231L64.1423 25.6831C61.9967 24.1812 60.4412 23.0816 60.3607 23.0011C60.0657 22.8134 51.6174 15.5183 49.0427 13.2923L48.855 13.1314V12.5413L64.491 3.28845L81.7094 13.2118C89.5944 17.7712 95.7899 23.6984 100.081 30.8593C104.372 38.0203 106.571 46.1199 106.571 54.9436C106.571 64.5452 104.211 70.7406 99.5446 73.3153L83.6136 82.7291ZM50.3301 12.9436C54.6481 16.6716 60.6826 21.821 60.9776 22.0624C61.0581 22.116 62.6136 23.2157 64.7592 24.7444L78.1423 34.5337L83.4795 58.2693L84.2841 71.3306L84.6328 80.7712L98.901 72.3498C103.192 69.9628 105.365 64.116 105.365 54.9436C105.365 46.3344 103.246 38.4226 99.0351 31.4494C94.8243 24.4762 88.7899 18.6563 81.0657 14.2042L64.4374 4.60263L50.3301 12.9436Z" fill="#2E2E35"/>
<path d="M58.2151 29.4647L58.9661 68.1927L72.7783 75.89L81.6021 71.6525L83.6672 56.6333C83.6672 56.6333 75.4067 37.3498 75.2994 37.0548C75.1921 36.7598 60.1729 26.8096 60.1729 26.8096L58.2151 29.4647Z" fill="#2E2E35"/>
<path d="M62.5867 64.438L81.6557 52.5836L83.6672 63.392L70.1231 73.6373L61.1384 67.6296L62.5867 64.438Z" fill="#8C9EFB"/>
<path d="M70.1499 74.3346L60.4143 67.8173L62.1308 64.0357L82.0312 51.6449L84.284 63.6066L70.1499 74.3346ZM61.8358 67.415L70.0963 72.9399L83.0503 63.1506L81.2266 53.4955L63.0158 64.8403L61.8358 67.415Z" fill="#2E2E35"/>
<path d="M67.9238 64.0623C67.9238 64.0623 72.6173 67.4953 76.4257 67.0662C80.2342 66.637 80.7169 57.5451 80.7169 57.5451L79.0273 57.116L67.9238 64.0623Z" fill="#F2F4F4"/>
<path d="M90.8815 63.8478C90.8815 73.2616 88.6287 79.2425 84.1497 81.7367C79.644 84.231 73.3413 83.1314 65.2149 78.4379L49.3911 69.2923V12.8632L66.3145 22.6256C74.1727 27.1582 80.234 32.9781 84.4984 40.0854C88.7359 47.1658 90.8815 55.1045 90.8815 63.8478ZM77.1766 56.4724C77.1766 51.2961 76.2915 46.9513 74.5214 43.4379C72.7513 39.9245 70.0693 37.1084 66.4486 35.0164L62.6133 32.7904V64.4111L65.5635 66.1007C69.5865 68.4072 72.5099 68.7827 74.3873 67.1735C76.2379 65.5911 77.1766 62.0241 77.1766 56.4724Z" fill="#8C9EFB"/>
<path d="M90.7206 58.8862L105.74 50.277L105.954 60.4685L103.514 68.1927L100.403 72.3766L86.5903 80.208L89.5137 75.2463L90.8815 66.6908L90.7206 58.8862Z" fill="#2E2E35"/>
<path d="M78.7858 36.3307L93.8854 27.4265C90.4256 23.7254 86.349 20.507 81.575 17.7445L64.6516 7.98206L49.5789 16.8863L66.5022 26.6487C71.2493 29.3844 75.3528 32.6296 78.7858 36.3307Z" fill="#F2F4F4"/>
<path d="M85.6787 47.0853L100.859 38.3688C100.403 37.4569 99.8932 36.5451 99.3568 35.66C98.3377 33.9435 97.1844 32.3075 95.9507 30.752L80.8511 39.6562C82.0848 41.2117 83.2381 42.8477 84.2572 44.5642C84.7936 45.4225 85.2495 46.2539 85.6787 47.0853Z" fill="#F2F4F4"/>
<path d="M78.8125 83.614C74.9236 83.614 70.2838 82.0584 64.893 78.9473L48.801 69.6408V12.5412L49.3642 12.2194L66.5826 22.1427C74.4677 26.7021 80.6631 32.6293 84.9543 39.7902C89.2455 46.9512 91.4447 55.0508 91.4447 63.8745C91.4447 73.4761 89.0845 79.6715 84.4179 82.2462C82.7819 83.1581 80.9045 83.614 78.8125 83.614ZM49.9275 68.9971L65.4562 77.955C73.3681 82.5144 79.5635 83.6408 83.8547 81.2538C88.1459 78.8669 90.3183 73.0201 90.3183 63.8477C90.3183 55.2385 88.1995 47.3266 83.9888 40.3535C79.778 33.3803 73.7436 27.5604 66.0194 23.1082L49.9275 13.8286V68.9971ZM71.5175 68.7557C69.7742 68.7557 67.6823 68.0584 65.2416 66.637L62.0233 64.7864V31.8247L66.7167 34.5335C70.4179 36.6523 73.2072 39.5757 75.0041 43.1695C76.801 46.7634 77.7129 51.2155 77.7129 56.4722C77.7129 62.2385 76.7206 65.886 74.7091 67.6293C73.8508 68.3803 72.778 68.7557 71.5175 68.7557ZM63.1497 64.1159L65.8049 65.6446C69.5597 67.8171 72.3221 68.1925 73.9849 66.7711C75.7282 65.2692 76.5865 61.8094 76.5865 56.4722C76.5865 51.4033 75.7014 47.1121 73.9849 43.6791C72.2685 40.273 69.6133 37.5105 66.1267 35.4991L63.1229 33.7558V64.1159H63.1497Z" fill="#2E2E35"/>
</svg>
