<?xml version="1.0" encoding="utf-8"?>
<!-- Generator: Adobe Illustrator 22.1.0, SVG Export Plug-In . SVG Version: 6.00 Build 0)  -->
<svg version="1.1" id="Layer_1" xmlns="http://www.w3.org/2000/svg" xmlns:xlink="http://www.w3.org/1999/xlink" x="0px" y="0px"
	 viewBox="0 0 185 185" style="enable-background:new 0 0 185 185;" xml:space="preserve">
<style type="text/css">
	.st0{fill:#FFFFFF;}
	.st1{fill:#1F3C77;}
</style>
<circle class="st0" cx="92.5" cy="92.5" r="92.5"/>
<g>
	<path class="st1" d="M70.6,95.2c-3.4,3.9-10,1.8-10-3.5V79.9h-4.5v11.8c0,5.8,4.2,9.5,9.5,9.5c1.4,0,3.9-0.5,5.3-2.7l0.6,2.3h3.7
		v-21h-4.5L70.6,95.2L70.6,95.2z"/>
	<path class="st1" d="M108.1,79.5c-6.2,0-10.9,4.8-10.9,10.9s4.6,10.9,10.9,10.9S119,96.5,119,90.4
		C118.9,84.3,114.4,79.5,108.1,79.5z M108.1,97.3c-3.1,0-6.4-2.2-6.4-6.9c0-4.6,3.3-6.8,6.4-6.8c3.2,0,6.4,2.2,6.4,6.8
		C114.5,95.1,111.2,97.3,108.1,97.3z"/>
	<path class="st1" d="M138.3,94.3V83.7h3.9v-3.8h-3.9v-5.8l-4.3,0.5v5.3h-7.3v-1.6c0-1.5,0.9-2.7,2.8-2.8c0.5,0,1,0,1.6,0.2V72
		c-0.7-0.1-1.4-0.2-2-0.2c-4.2,0-6.9,2.4-6.9,6.6v1.6h-3v3.8h3v17.2h4.5V83.7h7.3v10.7c0,5.1,3.5,7,8.3,6.5V97
		C139.4,97.6,138.3,96,138.3,94.3z"/>
	<path class="st1" d="M82.4,79.9h-5.2l7,10.5l-7.1,10.5h4.8L89,90.4L82.4,79.9L82.4,79.9z"/>
	<path class="st1" d="M97.3,79.9h-4.8l-2.7,4.2l2.3,3.7L97.3,79.9z"/>
	<path class="st1" d="M92.1,93l-2.4,3.6l2.9,4.4h4.9L92.1,93L92.1,93z"/>
	<path class="st1" d="M49,96.8c-1.1,0-1.9-0.9-1.9-1.9V74.7l-4.5-0.5v21.3c0,3.1,2.5,5.6,5.5,5.6h6.6v-4.1L49,96.8L49,96.8z"/>
	<path class="st1" d="M44.5,106.2h0.9l1.9,5.5h-0.9l-0.6-1.6H44l-0.6,1.6h-0.9L44.5,106.2z M45.6,109.3l-0.5-1.6l-0.1-0.6l0,0
		l-0.1,0.6l-0.5,1.5L45.6,109.3L45.6,109.3z"/>
	<path class="st1" d="M54.4,108.9c0,1.4-0.7,2.8-2.6,2.8H50v-5.5h1.8C53.6,106.2,54.4,107.5,54.4,108.9z M53.5,108.9
		c0-1-0.5-1.9-1.7-1.9h-1v3.8h0.9C53.1,110.9,53.5,109.9,53.5,108.9z"/>
	<path class="st1" d="M57.7,109l1.7,2.7h-1l-1.3-2.1l-1.3,2.1h-1l1.8-2.7l-1.7-2.8h1l1.3,2.1l1.3-2.1h1L57.7,109z"/>
	<path class="st1" d="M63.9,107.6c-0.4-0.4-0.9-0.7-1.4-0.6c-1.2,0-1.8,1.1-1.8,2.1s0.6,2,1.8,2c0.5,0,1.1-0.3,1.6-0.8l0.6,0.5
		c-0.6,0.7-1.3,1.1-2.2,1.1c-1.8,0-2.7-1.4-2.7-2.8c0-1.4,0.9-2.8,2.7-2.8c0.8,0,1.5,0.3,2,0.9L63.9,107.6z"/>
	<path class="st1" d="M70.3,106.2v0.8H69v4.6h-0.9V107h-1.2v-0.8H70.3z"/>
	<path class="st1" d="M73.1,110.5l0.6,0.4c-0.4,0.6-1,0.9-1.7,0.9c-1.3,0-2-1-1.9-2c0-1,0.7-2,1.9-2c1.3,0,2.1,1.2,1.8,2.4h-3
		c0.1,0.5,0.5,0.9,1.1,0.9C72.3,111,72.8,110.9,73.1,110.5z M73.1,109.4c0-0.7-0.6-1-1.1-1c-0.6,0-1.1,0.4-1.1,1H73.1z"/>
	<path class="st1" d="M77.5,108.8c-0.3-0.3-0.6-0.4-1-0.4c-0.6,0-1.1,0.4-1.2,1.3c0,0.7,0.4,1.3,1.2,1.3c0.4,0,0.6-0.1,1-0.4
		l0.5,0.5c-0.4,0.4-0.9,0.7-1.4,0.7c-1.3,0-2-1-2-2c0-1.1,0.7-2,2-2c0.5,0,1,0.2,1.4,0.6L77.5,108.8z"/>
	<path class="st1" d="M79.7,106.2v1.8c0.3-0.3,0.7-0.3,0.9-0.3c1,0,1.7,0.6,1.7,1.7v2.3h-0.8v-2.3c0-0.6-0.5-0.9-1-1
		c-0.3,0-0.6,0.1-0.8,0.3v3h-0.8v-5.5H79.7z"/>
	<path class="st1" d="M84.1,107.8l0.1,0.5c0.2-0.4,0.7-0.5,1-0.5c1.1,0,1.7,0.6,1.7,1.7v2.3H86v-2.3c0-1-1.2-1.3-1.8-0.5v2.8h-0.8
		v-3.9L84.1,107.8L84.1,107.8z"/>
	<path class="st1" d="M89.6,111.8c-1.1,0-2-0.9-2-2s0.9-2,2-2s2,0.9,2,2S90.8,111.8,89.6,111.8z M89.6,111c0.6,0,1.2-0.4,1.2-1.3
		s-0.6-1.3-1.2-1.3s-1.2,0.4-1.2,1.3S89.1,111,89.6,111z"/>
	<path class="st1" d="M93.7,111.7c-0.9,0.1-1.4-0.3-1.4-1.2v-4.3h0.8v4.3c0,0.3,0.1,0.5,0.6,0.5V111.7z"/>
	<path class="st1" d="M96.2,111.8c-1.1,0-2-0.9-2-2s0.9-2,2-2s2,0.9,2,2S97.3,111.8,96.2,111.8z M96.2,111c0.6,0,1.2-0.4,1.2-1.3
		s-0.6-1.3-1.2-1.3c-0.6,0-1.2,0.4-1.2,1.3S95.6,111,96.2,111z"/>
	<path class="st1" d="M100.6,107.7c0.3,0,0.7,0.1,0.9,0.4l0.1-0.4h0.6v3.9c0,1.1-0.8,1.6-1.7,1.6c-0.6,0-1.2-0.2-1.6-0.7l0.4-0.5
		c0.3,0.3,0.7,0.5,1.1,0.5c0.5,0,0.9-0.2,0.9-0.9v-0.2c-0.3,0.3-0.6,0.3-0.9,0.3c-1,0-1.8-0.9-1.8-2
		C98.9,108.5,99.7,107.7,100.6,107.7z M101.5,110.7v-1.8c-0.2-0.2-0.5-0.4-0.7-0.4c-0.6,0-1.1,0.4-1.1,1.3c0,0.7,0.4,1.3,1,1.3
		C101,111,101.2,111,101.5,110.7z"/>
	<path class="st1" d="M103.4,112.5c0.5,0.1,0.6-0.1,0.7-0.3l0.2-0.6l-1.5-3.8h0.9l1.1,2.8l1-2.8h0.9l-1.8,4.7
		c-0.3,0.7-0.9,0.8-1.5,0.7L103.4,112.5z"/>
	<path class="st1" d="M113.1,107.6c-0.4-0.4-0.9-0.7-1.4-0.6c-1.2,0-1.8,1.1-1.8,2.1s0.6,2,1.8,2c0.5,0,1.1-0.3,1.6-0.8l0.6,0.5
		c-0.6,0.7-1.3,1.1-2.2,1.1c-1.8,0-2.7-1.4-2.7-2.8c0-1.4,0.9-2.8,2.7-2.8c0.8,0,1.5,0.3,2,0.9L113.1,107.6z"/>
	<path class="st1" d="M116.3,111.8c-1.1,0-2-0.9-2-2s0.9-2,2-2s2,0.9,2,2S117.5,111.8,116.3,111.8z M116.3,111
		c0.6,0,1.2-0.4,1.2-1.3s-0.6-1.3-1.2-1.3c-0.6,0-1.2,0.4-1.2,1.3S115.8,111,116.3,111z"/>
	<path class="st1" d="M122.1,108.4c0.3-0.5,0.8-0.7,1.2-0.7c0.9,0,1.6,0.4,1.6,1.7v2.3h-0.8v-2.3c0-0.7-0.4-1-0.8-1
		c-0.4,0-0.8,0.3-0.8,0.9v2.3h-0.8v-2.3c0.1-1.1-1.1-1.3-1.6-0.6v2.9h-0.8v-3.9h0.7l0.1,0.4c0.2-0.4,0.7-0.5,1-0.5
		C121.4,107.7,121.9,107.9,122.1,108.4z"/>
	<path class="st1" d="M127.7,111.7c-0.3,0-0.6-0.1-0.9-0.4v1.8H126v-5.4h0.7l0.1,0.4c0.2-0.3,0.6-0.4,0.9-0.4c0.9,0,1.7,0.7,1.7,2
		C129.5,110.8,128.7,111.8,127.7,111.7z M128.7,109.7c0-0.9-0.6-1.3-1.1-1.3c-0.2,0-0.5,0.1-0.7,0.3v1.8c0.2,0.3,0.5,0.4,0.8,0.4
		C128.3,111,128.7,110.4,128.7,109.7z"/>
	<path class="st1" d="M132.9,111.7l-0.1-0.5c-0.3,0.4-0.6,0.5-1.1,0.5c-1,0-1.5-0.7-1.5-1.4s0.6-1.4,1.8-1.3c0.2,0,0.6,0.1,0.8,0.2
		V109c0-0.6-0.5-0.8-0.9-0.8s-0.7,0.1-1.1,0.3l-0.3-0.5c1-0.9,3.1-0.7,3.1,1v2.6L132.9,111.7L132.9,111.7z M132.7,110.6V110
		c-0.2-0.2-0.5-0.3-0.8-0.3c-0.5,0-1,0.2-1,0.7c0,0.4,0.3,0.6,0.9,0.6C132.1,111,132.5,110.9,132.7,110.6z"/>
	<path class="st1" d="M135.3,107.8l0.1,0.5c0.2-0.4,0.7-0.5,1-0.5c1.1,0,1.7,0.6,1.7,1.7v2.3h-0.8v-2.3c0-1-1.2-1.3-1.8-0.5v2.8
		h-0.8v-3.9L135.3,107.8L135.3,107.8z"/>
	<path class="st1" d="M139.2,112.5c0.5,0.1,0.6-0.1,0.7-0.3l0.2-0.6l-1.5-3.8h0.9l1.1,2.8l1-2.8h0.9l-1.8,4.7
		c-0.3,0.7-0.8,0.8-1.5,0.7L139.2,112.5z"/>
</g>
</svg>
