<svg width="250" height="186" viewBox="0 0 250 186" fill="none" xmlns="http://www.w3.org/2000/svg">
<path d="M208.6 44.4184L232.6 30.5184C210.3 17.7184 174.2 17.7184 152 30.6184L145.4 42.2184V62.1184L176.1 44.5184C185.1 39.2184 199.6 39.2184 208.6 44.4184Z" fill="white"/>
<path d="M144.7 63.3184V41.9184L151.5 30.0184L151.7 29.9184C174.1 16.9184 210.6 16.9184 233 29.8184L234 30.4184L208.6 45.1184L208.2 44.9184C199.4 39.8184 185.2 39.9184 176.4 44.9184L144.7 63.3184ZM146.1 42.3184V60.8184L175.7 43.8184C184.7 38.6184 199.3 38.5184 208.5 43.6184L231.1 30.5184C209 18.4184 174.1 18.6184 152.4 31.1184L146.1 42.3184Z" fill="#2E2E35"/>
<path d="M207.9 45.6183V24.0183L213.1 22.5183H213.3C220.7 24.2183 227.4 26.7183 233 29.9183L234 30.5183L207.9 45.6183ZM209.3 25.0183V43.2183L231.2 30.5183C226 27.6183 219.9 25.4183 213.1 23.9183L209.3 25.0183Z" fill="white"/>
<path d="M249.3 53.5184V33.9184L244.2 30.5184L238.7 34.7184C236.9 33.2184 234.8 31.8184 232.5 30.5184L208.5 44.4184C212.5 46.7184 214.7 49.7184 215.2 52.7184L206.5 59.4184L208.5 63.3184L201.9 74.8184L202 94.7184L232.7 77.1184C243.5 70.8184 249 62.7184 249.3 54.5184V54.2184C249.3 53.9184 249.3 53.7184 249.3 53.5184Z" fill="#F25A22"/>
<path d="M201.3 95.9184L201.2 74.6184L207.7 63.3183L205.6 59.2183L214.5 52.4183C214 49.6183 211.8 47.0183 208.3 45.0183L207.3 44.4183L232.7 29.7183L233 29.9183C235.1 31.1183 237 32.4183 238.8 33.8183L244.3 29.6183L250.1 33.4183V53.4183C250.1 53.6183 250.1 53.9183 250.1 54.1183V54.7183C249.7 63.4184 243.7 71.5184 233.2 77.6184L201.3 95.9184ZM202.6 75.0183L202.7 93.5183L232.4 76.5183C242.6 70.6183 248.4 62.8183 248.6 54.5183V54.2183C248.6 54.0183 248.6 53.8183 248.6 53.6183V34.4183L244.3 31.5183L238.8 35.7183L238.4 35.4183C236.6 34.0183 234.7 32.7183 232.7 31.5183L210 44.6183C213.5 46.9183 215.6 49.7183 216 52.8183L216.1 53.2183L207.5 59.8183L209.4 63.5183L202.6 75.0183Z" fill="#2E2E35"/>
<path d="M208.6 43.3183L156.6 73.2183C156.5 73.2183 156.5 73.3183 156.6 73.4183L180.5 87.2183H180.6L232.7 57.3183C254.9 44.5183 254.8 23.6183 232.6 10.8183L208.6 24.7183C217.5 29.7183 217.5 38.1183 208.6 43.3183Z" fill="#F25A22"/>
<path d="M180.6 87.9183L180.2 87.7183L155.9 73.7183L155.8 72.8183L156.2 72.5183L208.2 42.6183C212.3 40.2183 214.6 37.1183 214.5 33.8183C214.5 30.5183 212.2 27.4183 208.1 25.0183L207.1 24.4183L232.5 9.71832L232.9 9.91832C243.9 16.2183 250 24.7183 250 33.8183C250 42.9183 244 51.3183 233 57.7183L180.6 87.9183ZM157.9 73.2183L180.5 86.3183L232.3 56.6183C242.8 50.5183 248.6 42.5183 248.6 33.9183C248.6 25.4183 242.9 17.5183 232.6 11.4183L209.9 24.5183C213.8 27.1183 216 30.3183 216 33.9183C216 37.7183 213.5 41.2183 209 43.9183L157.9 73.2183Z" fill="#2E2E35"/>
<path d="M208.6 24.5183L232.6 10.6183C210.4 -2.18169 174.2 -2.18169 152 10.6183L100.2 40.4183C100.1 40.5183 100.1 40.7183 100.2 40.7183L123.9 54.3183C124 54.3183 124 54.3183 124.1 54.3183L176.1 24.4183C185.1 19.3183 199.6 19.3183 208.6 24.5183Z" fill="#F25A22"/>
<path d="M124 55.1183C123.8 55.1183 123.7 55.1183 123.6 55.0183L99.7999 41.4183C99.4999 41.2183 99.3999 40.9183 99.3999 40.6183C99.3999 40.3183 99.5999 40.0183 99.7999 39.8183L151.7 10.0183C174.1 -2.98167 210.6 -2.98166 233 9.91833L234 10.5183L208.6 25.3183L208.2 25.1183C199.4 20.0183 185.2 20.1183 176.4 25.1183L124.4 55.0183C124.3 55.1183 124.1 55.1183 124 55.1183ZM101.3 40.6183L124 53.6183L175.8 23.9183C184.8 18.7183 199.4 18.6183 208.6 23.7183L231.2 10.6183C209.1 -1.48167 174 -1.28167 152.4 11.2183L101.3 40.6183Z" fill="#2E2E35"/>
<path d="M201.9 74.8184L177.9 60.9184L156.7 73.1184C156.6 73.1184 156.6 73.2184 156.7 73.3184L180.6 87.1184H180.7L201.9 74.8184Z" fill="#F25A22"/>
<path d="M180.7 87.8184L180.3 87.6184L156 73.6184V72.7184L156.4 72.4184L178 60.0184L203.4 74.7184L180.7 87.8184ZM157.9 73.2184L180.6 86.3184L200.5 74.9184L177.9 61.8184L157.9 73.2184Z" fill="#2E2E35"/>
<path d="M100.2 40.7183L123.9 54.3183C124 54.3183 124 54.3183 124.1 54.3183L145.5 42.0183L121.5 28.1183L100.3 40.3183C100.1 40.5183 100.1 40.7183 100.2 40.7183Z" fill="#F25A22"/>
<path d="M124 55.1184C123.8 55.1184 123.7 55.1184 123.6 55.0184L99.7999 41.3184C99.4999 41.1184 99.3999 40.8184 99.3999 40.5184C99.3999 40.2184 99.5999 39.9184 99.7999 39.7184L121.4 27.3184L146.8 42.0184L124.4 54.9184C124.3 55.1184 124.1 55.1184 124 55.1184ZM101.3 40.6184L124 53.6184L144 42.1184L121.4 29.0184L101.3 40.6184Z" fill="#2E2E35"/>
<path d="M99.8999 40.9183V60.4183C99.8999 60.5183 99.8999 60.5183 99.9999 60.6183L123.7 74.2183C123.8 74.3183 124 74.2183 124 74.0183V54.6183C124 54.5183 124 54.5183 123.9 54.4183L100.2 40.8183C100.1 40.7183 99.8999 40.8183 99.8999 40.9183Z" fill="white"/>
<path d="M123.8 74.9183C123.6 74.9183 123.5 74.9183 123.4 74.8183L99.6 61.1183C99.3 60.9183 99.2 60.6183 99.2 60.3183V40.9183C99.2 40.6183 99.4 40.3183 99.6 40.1183C99.9 39.9183 100.2 39.9183 100.5 40.1183L124.2 53.8183C124.5 54.0183 124.6 54.3183 124.6 54.6183V74.1183C124.6 74.4183 124.4 74.7183 124.2 74.9183C124.1 74.9183 123.9 74.9183 123.8 74.9183ZM100.6 60.1183L123.3 73.2183V54.9183L100.6 41.8183V60.1183Z" fill="#2E2E35"/>
<path d="M145.4 42.1183V62.0183L124.2 74.1184C124.1 74.2183 123.9 74.1183 123.9 73.9183V54.6183C123.9 54.5183 123.9 54.5183 124 54.4183L145.4 42.1183Z" fill="white"/>
<path d="M124.2 74.9183C124 74.9183 123.9 74.9183 123.8 74.8183C123.5 74.6183 123.3 74.3183 123.3 74.0183V54.6183C123.3 54.3183 123.5 54.0183 123.8 53.8183L146.2 40.9183V62.4183L124.7 74.7183C124.5 74.9183 124.3 74.9183 124.2 74.9183ZM124.7 54.9183V73.2183L144.8 61.7183V43.3183L124.7 54.9183Z" fill="#2E2E35"/>
<path d="M156.4 73.4183V93.1183V93.2183L180.3 107.018C180.4 107.018 180.4 107.018 180.4 106.918V87.2183V87.1183L156.6 73.3183C156.5 73.3183 156.4 73.3183 156.4 73.4183Z" fill="white"/>
<path d="M180.5 107.718L180.1 107.518L155.8 93.5183V93.0183V73.0183L156.5 72.5183L156.9 72.7183L181.2 86.7183V87.2183V107.318L180.5 107.718ZM157.1 92.7183L179.8 105.818V87.5183L157.1 74.4183V92.7183Z" fill="#2E2E35"/>
<path d="M202 74.8184V94.7184L180.7 106.918C180.6 106.918 180.6 106.918 180.6 106.818V87.2184V87.1184L202 74.8184Z" fill="#F25A22"/>
<path d="M180.7 107.718L179.9 107.318V106.818V86.8183L180.3 86.5183L202.8 73.6183V95.1183L180.7 107.718ZM181.2 87.5183V105.818L201.3 94.3183V76.0183L181.2 87.5183Z" fill="#2E2E35"/>
<path d="M104.3 119.518C105 119.518 105.6 119.318 106.2 119.118C107.1 118.718 107.6 118.118 107.8 117.518V117.418L108.7 110.918L104.2 110.318L97.6 113.118C97.5 113.118 83.4 109.418 83.1 109.218C82.8 109.018 77.2 108.718 77.2 108.718L74.9001 108.418L73.8001 115.918L70.1 115.418L69.2 112.718L61 115.318L57.7001 115.118L56.8 121.518L62.9001 126.218L60.8 126.618L59.3 126.218L58.4001 132.618V132.718V132.818C58.3001 134.118 59.7 135.518 62.8 136.118C65.5 136.118 67.1 135.318 67.5 134.218C69 131.818 71.7 133.118 71.7 133.118L81 140.318L109.4 128.718L110.3 122.318L104.3 119.518Z" fill="#F25A22"/>
<path d="M81.1001 140.718L80.9001 140.618L71.7001 133.418C71.4001 133.318 69.3001 132.518 68.1001 134.318C67.6001 135.718 65.7001 136.518 63.1001 136.418H62.7001V136.318C59.7001 135.618 58.4001 134.318 58.3001 133.118H58.2001L58.3001 132.618C58.3001 132.518 58.3001 132.518 58.3001 132.418L59.2001 125.518L61.1001 126.018L62.2001 125.818L56.6001 121.518L56.7001 121.218L57.6001 114.418L61.3001 114.618L69.6001 112.018L69.9001 112.218L70.7001 114.918L73.8001 115.318L74.9001 107.818L77.6001 108.218C83.3001 108.518 83.6001 108.618 83.7001 108.718C84.1001 108.818 91.1001 110.718 98.0001 112.518L104.6 109.718H104.7L109.5 110.418L109.4 110.818L108.5 117.818H108.4C108.1 118.518 107.5 119.018 106.7 119.418C106.5 119.518 106.3 119.518 106.1 119.618L111.1 121.818V122.118L110.2 128.718L110 128.818L81.1001 140.718ZM70.2001 132.318C70.9001 132.318 71.6001 132.518 72.0001 132.718H72.1001L81.2001 139.718L109.2 128.218L110 122.318L102.6 119.018L104.4 118.918C105.1 118.918 105.7 118.718 106.2 118.518C106.9 118.218 107.4 117.718 107.5 117.218V117.118L108.3 111.018L104.3 110.518L97.7001 113.318H97.5001C83.2001 109.618 82.9001 109.418 82.8001 109.418C82.5001 109.318 79.7001 109.118 77.1001 109.018L75.2001 108.718L74.1001 116.218L69.6001 115.618L69.5001 115.318L68.8001 113.018L60.9001 115.418L57.9001 115.218L57.1001 121.018L63.7001 126.118L60.6001 126.818H60.5001L59.5001 126.518L58.7001 132.618C58.6001 133.618 59.9001 134.918 62.8001 135.518C65.5001 135.518 66.8001 134.718 67.0001 133.918V133.818C68.0001 132.718 69.2001 132.318 70.2001 132.318Z" fill="#2E2E35"/>
<path d="M104.3 107.618C101.5 107.518 100 108.418 99.6002 109.518C98.1002 111.918 95.4002 110.618 95.4002 110.618L86.1002 103.418L75.2002 107.818C75.2002 107.818 73.4002 109.218 77.8002 110.518C79.7002 110.918 81.4002 112.018 81.7002 113.618C80.8002 116.318 75.8002 116.318 73.4002 114.518C72.7002 114.018 72.3002 113.318 72.3002 112.718C71.5002 110.018 68.5002 110.518 68.5002 110.518L57.7002 114.918L67.0002 122.118C67.0002 122.118 68.3002 124.018 63.8002 124.018C61.8002 123.918 59.9002 124.418 59.2002 125.918C59.3002 128.818 64.2002 130.118 67.0002 129.018C67.8002 128.718 68.3002 128.218 68.5002 127.618C70.0002 125.218 72.7002 126.518 72.7002 126.518L82.0002 133.718L110.4 122.118L101.1 114.918C101.1 114.918 99.8002 113.018 104.3 113.018C105.3 113.118 106.3 113.018 107.1 112.618C109.9 111.618 109.2 108.618 104.3 107.618Z" fill="white"/>
<path d="M81.9001 134.318L81.7001 134.218L72.5001 127.018C72.2001 126.918 70.1001 126.118 68.9001 127.918C68.7001 128.618 68.0001 129.118 67.1001 129.518C65.2001 130.318 62.4001 130.018 60.6001 128.818C59.5001 128.118 58.8001 127.118 58.8001 126.018V125.918L58.9001 125.818C59.7001 124.318 61.6001 123.518 63.9001 123.618C66.2001 123.618 66.7001 123.118 66.8001 122.918C66.9001 122.718 66.8001 122.518 66.8001 122.418L57.4001 115.118L57.5001 114.618L68.7001 110.018C68.8001 110.018 72.1001 109.518 73.0001 112.518V112.618C73.0001 113.118 73.3001 113.618 73.9001 114.018C75.3001 115.118 77.8001 115.518 79.6001 115.018C80.3001 114.818 81.2001 114.418 81.5001 113.418C81.1001 111.918 79.4001 111.018 77.9001 110.718C75.9001 110.118 74.8001 109.418 74.7001 108.618C74.6001 108.018 74.9001 107.518 75.2001 107.318L75.3001 107.218L86.4001 102.618L86.6001 102.818L95.8001 109.918C96.1001 110.018 98.2001 110.818 99.4001 109.018C99.9001 107.618 101.8 106.818 104.5 106.918H104.6C107.9 107.618 109.2 109.118 109.4 110.318C109.5 111.318 108.8 112.318 107.5 112.818C106.6 113.218 105.6 113.318 104.5 113.218C102.2 113.218 101.7 113.718 101.6 113.918C101.5 114.118 101.6 114.318 101.6 114.418L111 121.718L110.9 122.218L110.7 122.318L81.9001 134.318ZM71.0001 125.918C72.0001 125.918 72.8001 126.318 72.9001 126.318L82.1001 133.418L109.6 122.118L100.8 115.318C100.6 115.018 100.4 114.518 100.7 113.918C101.1 113.118 102.3 112.718 104.4 112.718C105.4 112.818 106.3 112.718 107.1 112.318C108 111.918 108.5 111.318 108.4 110.718C108.3 109.818 107.2 108.618 104.3 108.018C101.6 108.018 100.3 108.818 100.1 109.618V109.718C98.4001 112.418 95.3001 111.018 95.3001 111.018L86.1001 103.918L75.5001 108.218C75.4001 108.318 75.3001 108.418 75.3001 108.718C75.4001 108.918 75.7001 109.618 77.9001 110.218C80.2001 110.718 81.8001 111.918 82.1001 113.618V113.718V113.918C81.8001 114.918 80.9001 115.718 79.6001 116.118C77.5001 116.718 74.8001 116.318 73.1001 115.018C72.3001 114.418 71.9001 113.718 71.8001 113.018C71.2001 110.918 69.0001 111.118 68.6001 111.118L58.5001 115.218L67.3001 122.018C67.5001 122.318 67.7001 122.818 67.4001 123.418C67.0001 124.218 65.8001 124.618 63.7001 124.618C62.1001 124.518 60.3001 124.918 59.5001 126.218C59.6001 127.218 60.3001 127.818 60.9001 128.218C62.5001 129.218 65.0001 129.518 66.6001 128.818C67.3001 128.518 67.7001 128.118 67.9001 127.718V127.618C68.9001 126.218 70.1001 125.918 71.0001 125.918Z" fill="#2E2E35"/>
<path d="M64.2 129.518L63.3 135.918L65.1 135.818L67.2 135.018L68 133.918L69.1 133.018L70.6 132.718L71.3001 132.818L72.2 126.418L71.4001 126.318L69.9001 126.618L69.1 127.218L68.1 128.718L66.5 129.618L64.2 129.518Z" stroke="#2E2E35" stroke-width="0.9775" stroke-miterlimit="10"/>
<path d="M108.5 111.818L107.8 117.918L106.3 119.218L101.1 115.118L101 114.318L102.2 113.518L105.1 113.318L107.8 112.718L108.5 111.818Z" stroke="#2E2E35" stroke-width="0.9775" stroke-miterlimit="10"/>
<path d="M82.0001 133.918L81.1001 140.318L109.5 128.718L110.4 122.318L82.0001 133.918Z" stroke="#2E2E35" stroke-width="0.9775" stroke-miterlimit="10"/>
<path d="M66.3 65.2184L52 73.1184L48.0999 67.8184L44.5 68.3184L36.5999 71.8184L26.4 94.2184L25.2999 96.0184L23.7 97.2184L27.6 102.418L39.2999 101.018C39.2999 101.018 42.2 100.018 41.5 97.2184C41.2 96.7184 41.2999 95.9184 41.5999 95.1184C41.6999 94.9184 41.8 94.7184 41.9 94.5184L45.7999 99.7184C45.7999 99.7184 45.8 99.8184 45.9 99.8184C46.1 100.118 46.5 100.118 46.5 100.118L58.2 98.7184L62.7999 87.9184C62.7999 87.9184 64.5999 85.4184 67.0999 86.8184C67.8999 87.6184 69.6999 87.5184 72.0999 86.2184C74.5999 84.1184 75.1 82.1184 74.3 81.1184L70.4 75.9184L67.4 77.2184L70.3 70.5184L66.3 65.2184Z" fill="white"/>
<path d="M27.4 102.818L27.2 102.618L23.2 97.3184V96.9184L24.9 95.7184L26 94.0184L36.2 71.5184L36.2999 71.4184L44.4 67.9184L48.0999 67.4184L48.2999 67.6184L52 72.6184L66.3 64.8184L66.5 65.1184L70.5 70.5184L70.4 70.7184L68.1999 76.3184L70.5 75.3184L70.6999 75.6184L74.8 81.1184C75.3 82.2184 75 84.2184 72.3 86.5184C69.9 87.9184 67.9 88.1184 66.8 87.2184C64.8 86.1184 63.4 87.9184 63.2 88.2184L58.5 99.2184L46.5 100.618H46.4C46.3 100.618 45.8999 100.518 45.5999 100.118C45.4999 100.018 45.5 100.018 45.5 99.9184L42 95.3184C41.7 96.0184 41.7 96.6184 41.9 97.0184V97.1184C42.6 100.218 39.4 101.418 39.4 101.418H39.2999L27.4 102.818ZM24.2999 97.3184L27.7999 102.018L39.2 100.618C39.5 100.518 41.5999 99.6184 41.0999 97.4184C40.7999 96.7184 40.8 95.9184 41.2 95.0184C41.3 94.8184 41.4 94.6184 41.5 94.3184L41.7999 93.8184L46 99.5184L45.7 99.8184L46 99.5184C46.1 99.6184 46.1999 99.7184 46.2999 99.7184L57.7999 98.3184L62.4 87.6184C63.1 86.6184 64.9999 85.2184 67.1999 86.4184L67.3 86.5184C67.9 87.1184 69.4 87.2184 71.8 85.8184C74.1 83.9184 74.5 82.1184 73.9 81.3184L73.8 81.2184L70.1999 76.3184L67.3 77.6184L66.9 77.3184L67 77.0184L69.8 70.5184L66.3 65.8184L52 73.7184L51.7999 73.4184L47.9 68.3184L44.5999 68.7184L36.9 72.1184L26.7 94.4184L25.5 96.3184L24.2999 97.3184Z" fill="#2E2E35"/>
<path d="M44.5999 75.7184C44.0999 74.1184 45 72.4184 46.5 71.1184C49.7 67.9184 47.4 67.5184 47.4 67.5184L35.7 68.9184L23.7 97.2184L35.4 95.8184C35.4 95.8184 38.2999 94.8184 37.5999 92.0184C37.0999 91.0184 37.5999 89.3184 39.5999 87.4184C43.6999 84.7184 46.4 86.3184 45.2 89.1184C44.8 89.9184 44.2 90.7184 43.4 91.4184C40.2 94.6184 42.5 95.0184 42.5 95.0184L54.2 93.6184L58.7999 82.8184C58.7999 82.8184 60.5999 80.3184 63.0999 81.7184C63.8999 82.5184 65.6999 82.4184 68.0999 81.1184C71.8999 77.9184 71.0999 74.9184 68.0999 75.3184C67.1999 75.4184 66.3 75.8184 65.4 76.3184C61.4 78.5184 61.7 76.2184 61.7 76.2184L66.3 65.3184L54.5999 66.7184C54.5999 66.7184 51.7 67.7184 52.4 70.5184C52.7 71.0184 52.5999 71.8184 52.2999 72.6184C51.0999 75.3184 46.6999 77.7184 44.5999 75.7184Z" fill="#F25A22"/>
<path d="M23.5 97.6184L23.2 97.2184L23.2999 97.0184L35.5 68.5184H35.7L47.4 67.1184H47.5C47.7999 67.2184 48.3999 67.4184 48.5999 68.0184C48.8999 68.8184 48.2999 70.0184 46.7999 71.4184C45.5999 72.4184 44.5 74.0184 44.9 75.5184C45.7 76.1184 46.5999 76.1184 47.2999 75.9184C49.0999 75.5184 51.0999 73.9184 51.7999 72.3184C52.0999 71.6184 52.1 71.0184 51.9 70.6184V70.5184C51.3 68.0184 53.3 66.6184 54.4 66.2184H54.5L66.4 64.8184L66.6999 65.2184L66.5999 65.4184L62 76.1184C62 76.2184 62 76.4184 62.2 76.5184C62.4 76.6184 63.0999 76.8184 65.0999 75.7184C66 75.1184 67 74.7184 67.9 74.6184C69.3 74.4184 70.2999 74.9184 70.6999 75.9184C71.1999 77.0184 70.7999 79.0184 68.1999 81.2184C65.7999 82.6184 63.7999 82.8184 62.7 81.9184C60.7 80.8184 59.2999 82.6184 59.0999 82.8184L54.4 93.8184H54.2L42.5 95.3184H42.4C42.1 95.2184 41.5 95.0184 41.2999 94.4184C41 93.6184 41.5999 92.4184 43.0999 91.0184C43.8999 90.3184 44.5 89.6184 44.7999 88.9184C45.1999 88.0184 45.0999 87.2184 44.5999 86.8184C43.8999 86.2184 42.2999 86.1184 39.7999 87.8184C37.9 89.7184 37.5 91.1184 37.9 91.9184V92.0184C38.6 95.1184 35.5 96.2184 35.4 96.3184H35.2999L23.5 97.6184ZM36.0999 69.3184L24.2999 96.7184L35.2 95.4184C35.5 95.3184 37.5999 94.4184 37.0999 92.2184C36.4999 90.9184 37.3 89.0184 39.2 87.1184L39.2999 87.0184C42.0999 85.2184 44.0999 85.3184 45.0999 86.1184C45.8999 86.8184 46.1 87.9184 45.5 89.2184C45.1 90.1184 44.4999 90.9184 43.5999 91.6184C41.9999 93.2184 41.9999 93.9184 42.0999 94.2184C42.1999 94.4184 42.4 94.5184 42.5 94.5184L53.9 93.1184L58.5 82.4184C58.5 82.4184 60.5 79.6184 63.2999 81.2184L63.4 81.3184C64 81.9184 65.5 82.0184 67.9 80.6184C70.1 78.7184 70.5 77.1184 70.0999 76.3184C69.7999 75.7184 69.0999 75.4184 68.0999 75.5184C67.2999 75.6184 66.3999 75.9184 65.5999 76.5184C63.6999 77.5184 62.5 77.7184 61.7999 77.2184C61.2999 76.9184 61.2 76.2184 61.2 75.9184V75.8184L65.5 65.7184L54.5999 67.0184C54.2999 67.1184 52.2 68.0184 52.7 70.2184C53 70.9184 52.9999 71.7184 52.5999 72.6184C51.7999 74.5184 49.6 76.3184 47.5 76.7184C46.2 77.0184 45.1 76.7184 44.2 76.0184L44.0999 75.8184C43.5999 74.2184 44.4 72.3184 46.2 70.7184C47.8 69.1184 47.8 68.4184 47.7 68.1184C47.6 67.9184 47.4 67.8184 47.2999 67.8184L36.0999 69.3184Z" fill="#2E2E35"/>
<path d="M54.2 93.5184L58.0999 98.7184L62 89.5184L62.9 87.7184L59 82.5184L54.2 93.5184Z" stroke="#2E2E35" stroke-width="0.9775" stroke-miterlimit="10"/>
<path d="M67 81.6184L70.9 86.8184L73.7 84.6184L74.6 81.7184L73.7 80.3184L71 76.7184L70.2 78.9184L68.7 80.6184L67 81.6184ZM67 81.6184C67 81.6184 66.9 81.6184 67 81.6184Z" stroke="#2E2E35" stroke-width="0.9775" stroke-miterlimit="10"/>
<path d="M63.1999 77.1184L66.0999 75.8184L68.1999 75.1184L70.2999 70.4184L66.3999 65.2184L62.6999 73.9184L61.8999 75.8184L61.9999 76.6184L62.5999 77.0184L63.1999 77.1184Z" stroke="#2E2E35" stroke-width="0.9775" stroke-miterlimit="10"/>
<path d="M39.1999 87.5184L38.8999 88.1184L37.8999 89.6184L37.3999 90.9184L37.6999 92.4184L37.7999 93.3184L36.9999 94.7184L35.8999 95.4184L39.7999 100.618L41.3999 98.9184L41.2999 96.2184L41.7999 94.7184V93.9184L42.6999 92.1184L39.1999 87.5184Z" stroke="#2E2E35" stroke-width="0.9775" stroke-miterlimit="10" stroke-linecap="round" stroke-linejoin="round"/>
<path d="M48.5999 68.6183L51.9999 73.1183L50.9999 74.3183L48.1999 76.1183L45.8999 76.4183L44.5999 75.3183L44.6999 73.7183L45.9999 71.6183L47.7999 69.8183L48.1999 68.1183L48.5999 68.6183Z" stroke="#2E2E35" stroke-width="0.9775" stroke-miterlimit="10"/>
<path d="M134.7 165.618L129.9 165.118L126 165.918L125.7 166.018L125 165.518C125 165.518 122.3 164.518 121.1 166.918C121 167.518 120.5 168.018 119.7 168.318C119 168.718 118.1 168.818 117.2 168.918L113.4 165.518L116.7 163.718C119.1 163.418 119.5 162.718 119.5 162.218L119.9 156.118L111.9 155.418L110.9 156.118L109.9 155.518L101.1 159.918L97.8 156.018L92.7 152.218L87.7 152.118L87.3 158.318C87.3 158.318 87.3 158.318 87.3 158.418V158.518C87.3 159.118 87.7 159.818 88.5 160.318C88.7 160.418 88.9 160.518 89.1 160.618L84.1 162.418L83.7 168.618L108.1 184.718L118.1 179.718C118.1 179.718 120.9 179.018 121.9 181.518C122 182.618 123.3 183.618 125.9 184.118C129 184.118 130.5 183.118 130.7 181.918V181.818C130.7 181.718 130.7 181.718 130.7 181.618L131.1 175.618L128.5 174.518L134.3 171.618L134.7 165.618Z" fill="white"/>
<path d="M108.2 185.318L108 185.218L83.3999 168.918V168.718L83.7999 162.318L84.0999 162.218L88.2999 160.718C87.5999 160.218 87.1999 159.718 87.0999 159.118H86.9999V158.618L87.3999 152.218L87.5999 152.018L92.8999 152.118L92.9999 152.218L98.1999 156.118L101.3 159.818L110 155.418L110.2 155.518L111 156.018L111.8 155.418H111.9L120.3 156.118V156.518L119.9 162.618C119.9 163.618 118.9 164.218 116.8 164.418L114 165.918L117.3 168.818C118.1 168.818 118.9 168.618 119.5 168.318C120.1 168.018 120.5 167.618 120.6 167.118C121.8 164.918 124.2 165.218 125 165.518L125.1 165.618L125.6 165.918L125.7 165.818L129.8 165.018L134.7 165.518L134.9 165.818V166.018L134.5 172.318L134.3 172.418L129.2 174.918L131.3 175.818V176.118L130.9 182.118C130.9 182.118 130.9 182.218 130.9 182.318V182.718C130.5 183.818 129 184.918 125.8 184.918H125.7C123.3 184.518 121.6 183.418 121.4 182.018C120.6 180.018 118.5 180.418 118.2 180.418L108.2 185.318ZM84.0999 168.518L108.1 184.418L117.9 179.518C118.8 179.218 121.3 179.118 122.2 181.518V181.618C122.3 182.418 123.3 183.418 125.9 183.918C128.9 183.918 130.1 182.918 130.2 182.018V181.918C130.2 181.918 130.2 181.918 130.2 181.818L130.6 176.018L128 174.918V174.418L128.2 174.318L133.8 171.518L134.1 165.918L129.8 165.518L126 166.318L125.5 166.518L124.6 165.918C124.3 165.818 122.2 165.218 121.2 167.118C121 167.818 120.5 168.318 119.6 168.818C118.9 169.218 117.9 169.418 116.9 169.418H116.8L116.7 169.318L112.7 165.818V165.418L112.9 165.318L116.4 163.518C118.2 163.318 118.9 162.818 118.9 162.518L119.2 156.718L111.8 156.118L110.7 156.918L109.7 156.218L100.8 160.618L100.6 160.418L97.2999 156.518L92.2999 152.818H87.7999L87.3999 158.718V158.818C87.3999 159.318 87.7999 159.818 88.3999 160.218C88.5999 160.318 88.7999 160.418 88.9999 160.518L89.8999 160.918L84.1999 162.918L84.0999 168.518Z" fill="#2E2E35"/>
<path d="M124.7 170.618L134.7 165.618L125.4 159.418C125.4 159.418 122.7 158.418 121.5 160.818C121.2 161.918 119.8 162.818 117.2 162.918C112.5 162.318 111.6 159.518 114.2 158.318C115 157.918 115.9 157.718 116.9 157.718C121.2 157.318 119.8 155.618 119.8 155.618L110.5 149.418L100.5 154.418C100.5 154.418 97.7 155.118 96.7 152.618C96.6 151.518 95.2 150.418 92.7 150.018C88 150.018 86.7 152.718 89.1 154.318C89.8 154.818 90.7 155.118 91.7 155.218C95.9 156.118 94.3 157.618 94.3 157.618L84.3 162.618L108.7 178.718L118.7 173.718C118.7 173.718 121.5 173.018 122.5 175.518C122.6 176.618 124 177.718 126.5 178.118C131.2 178.118 132.5 175.418 130.1 173.818C129.4 173.318 128.5 173.018 127.5 172.918C123.1 172.118 124.7 170.618 124.7 170.618Z" fill="#F25A22"/>
<path d="M108.5 179.118L108.3 179.018L83.7 162.818V162.318L83.9 162.218L93.8 157.218C93.9 157.118 94 157.018 93.9 156.818C93.8 156.618 93.5 156.018 91.3 155.618C90.3 155.518 89.3 155.118 88.6 154.718C87.5 154.018 87 153.018 87.3 152.018C87.6 150.918 89.1 149.718 92.4 149.718H92.5C95 150.118 96.6 151.218 96.8 152.618C97.6 154.618 99.7 154.218 100 154.218L110.2 149.118L110.4 149.218L119.8 155.418C120 155.618 120.2 156.218 120 156.718C119.7 157.518 118.6 157.918 116.6 158.118C115.6 158.118 114.8 158.318 114.1 158.618C113.3 159.018 112.8 159.618 112.9 160.218C113 161.018 114.2 162.118 117 162.518C119.6 162.418 120.7 161.518 120.9 160.718C122.1 158.518 124.5 158.818 125.3 159.118H125.4L134.9 165.418V165.918L134.7 166.018L124.8 171.018C124.7 171.118 124.6 171.218 124.7 171.418C124.8 171.618 125.1 172.218 127.3 172.618C128.3 172.718 129.3 173.118 130 173.518C131.1 174.218 131.6 175.218 131.3 176.218C131 177.318 129.5 178.518 126.2 178.518C123.6 178.018 122 177.018 121.8 175.618C121 173.618 118.9 174.018 118.6 174.018L108.5 179.118ZM84.9 162.618L108.6 178.218L118.4 173.318C119.3 173.018 121.8 172.918 122.7 175.318V175.418C122.8 176.218 123.8 177.218 126.4 177.718C129.1 177.718 130.4 176.718 130.7 175.918C130.9 175.318 130.5 174.718 129.7 174.118C129.1 173.718 128.2 173.418 127.3 173.318C125.3 172.918 124.3 172.318 124.1 171.518C123.9 170.918 124.3 170.418 124.5 170.218L124.6 170.118L134 165.418L125.3 159.618C124.9 159.518 122.9 158.918 121.9 160.818C121.5 162.118 119.8 163.018 117.2 163.218H117.1C114 162.818 112.6 161.518 112.4 160.318C112.2 159.318 112.8 158.418 114 157.818C114.8 157.418 115.8 157.218 116.9 157.218C119.1 157.018 119.5 156.518 119.6 156.318C119.7 156.118 119.6 155.918 119.5 155.918L110.4 149.918L100.5 154.818C100.5 154.818 97.3 155.618 96.3 152.718V152.618C96.2 151.818 95.2 150.818 92.6 150.318C89.8 150.318 88.6 151.318 88.3 152.118C88.1 152.718 88.5 153.318 89.3 153.918C89.9 154.318 90.8 154.618 91.7 154.718C93.7 155.118 94.7 155.718 94.9 156.518C95.1 157.118 94.7 157.618 94.5 157.818L94.4 157.918L84.9 162.618Z" fill="#2E2E35"/>
<path d="M108.5 178.718L108.1 184.818L116.6 180.518L118.4 179.718L118.8 173.618L108.5 178.718Z" stroke="#2E2E35" stroke-width="0.9775" stroke-miterlimit="10"/>
<path d="M125.1 177.818L124.7 183.918L128.1 184.018L130.5 182.418L130.7 181.018L131 176.718L129.1 177.818L127 178.118L125.1 177.818Z" stroke="#2E2E35" stroke-width="0.9775" stroke-miterlimit="10"/>
<path d="M125.1 172.218L128 173.118L129.9 173.918L134.3 171.818L134.7 165.718L126.6 169.718L124.9 170.618L124.4 171.318L124.6 171.918L125.1 172.218Z" fill="white"/>
<path d="M119.7 157.118L119.4 162.518L118 162.818L114.8 162.418L113 161.218L112.7 159.718L113.7 158.618L115.9 157.918L118.4 157.718L119.7 156.718V157.118Z" fill="#2E2E35"/>
<path d="M164.2 131.918L161.9 126.918L160 126.718L157.3 123.318L153.4 120.818L148.5 127.518L144.3 122.118L141.5 120.618L135.1 118.618L131.3 123.818L134.4 130.618L131.3 129.118L127.5 134.518C126.9 135.618 127.4 137.418 129.9 139.418C132.3 140.718 134 140.718 134.9 139.918C137.3 138.518 139.1 140.918 139.2 140.918L144 151.618L155.6 152.818C155.6 152.818 156 152.718 156.2 152.318L159.9 147.118C160 147.318 160.1 147.518 160.2 147.718C160.6 148.518 160.6 149.218 160.3 149.818C159.7 152.618 162.6 153.518 162.6 153.518L174.2 154.718L178 149.518L164.2 131.918Z" fill="#F25A22"/>
<path d="M143.8 152.118L143.7 151.918L138.9 141.318C138.7 141.018 137.2 139.318 135.3 140.418C134.2 141.418 132.2 141.218 129.9 139.918L129.8 139.818C127 137.518 126.7 135.518 127.3 134.318L131.4 128.618L131.7 128.818L133.7 129.818L131 123.818L131.1 123.618L135.1 118.118L135.4 118.218L141.8 120.218L144.7 121.818L144.8 121.918L148.6 126.818L153.4 120.218L153.7 120.418L157.7 122.918L160.3 126.218L162.2 126.418L162.3 126.618L164.5 131.618L178.8 149.418L178.6 149.718L174.7 155.118L162.7 153.918C162.7 153.918 159.5 152.818 160.1 149.718C160.3 149.318 160.3 148.718 160 148.018L156.6 152.718C156.3 153.218 155.8 153.318 155.7 153.318H155.6L143.8 152.118ZM137.6 139.318C138.8 139.718 139.6 140.718 139.6 140.718V140.818L144.3 151.218L155.6 152.318C155.7 152.318 155.8 152.218 155.9 152.118L160 146.418L160.3 146.918C160.4 147.118 160.6 147.318 160.7 147.518C161.1 148.418 161.2 149.218 160.9 149.918C160.5 152.118 162.6 152.918 162.9 153.118L174.2 154.218L177.6 149.418L163.6 131.818V131.718L161.5 127.118L159.7 126.918L159.6 126.818L157 123.418L153.5 121.218L148.7 127.818H148.3L148.2 127.618L144.1 122.218L141.4 120.718L135.4 118.818L132 123.618L135.1 130.518L134.7 130.918L134.4 130.818L131.7 129.518L128.1 134.618C127.7 135.418 128 137.018 130.4 139.018C132.8 140.318 134.2 140.118 134.8 139.518L134.9 139.418C135.8 139.118 136.8 139.118 137.6 139.318Z" fill="#2E2E35"/>
<path d="M165.7 121.618L154.1 120.418C154.1 120.418 151.9 120.818 155.1 124.018C156.6 125.218 157.6 127.018 157.1 128.618C155 130.618 150.6 128.318 149.4 125.518C149 124.718 149 124.018 149.3 123.418C149.9 120.618 147 119.718 147 119.718L135.4 118.518L140.2 129.118C140.2 129.118 140.5 131.418 136.5 129.318C134.8 128.318 132.9 127.918 131.5 128.818C130.3 131.418 133.9 134.818 136.9 135.118C137.8 135.218 138.5 135.018 138.9 134.618C141.3 133.218 143.1 135.618 143.2 135.618L148 146.318L159.6 147.518C159.6 147.518 161.8 147.118 158.6 143.918C157.1 142.718 156.1 140.918 156.6 139.318C158.7 137.318 163.1 139.618 164.3 142.418C164.7 143.218 164.7 143.918 164.4 144.518C163.8 147.318 166.7 148.218 166.7 148.218L178.3 149.418L165.7 121.618Z" fill="white"/>
<path d="M147.6 146.818L147.5 146.618L142.7 136.018C142.5 135.718 141 134.018 139.1 135.118C138.6 135.618 137.8 135.818 136.8 135.718C134.8 135.518 132.4 133.918 131.4 132.118C130.7 130.918 130.6 129.818 131.1 128.818V128.718L131.2 128.618C132.6 127.618 134.6 127.818 136.6 129.018C138.6 130.018 139.3 129.818 139.5 129.718C139.7 129.618 139.7 129.418 139.7 129.318L134.8 118.518L135.1 118.118H135.4L147.1 119.318C147.1 119.318 150.3 120.418 149.7 123.518C149.5 123.918 149.5 124.518 149.8 125.218C150.5 126.818 152.5 128.318 154.4 128.718C155.1 128.818 156.1 128.918 156.8 128.218C157.2 126.718 156.1 125.218 154.9 124.218C153.4 122.718 152.8 121.618 153.1 120.818C153.3 120.218 153.8 119.918 154.1 119.918H154.2L166.1 121.118L166.2 121.318L178.9 149.418L178.6 149.818H178.4L166.7 148.618C166.7 148.618 163.5 147.518 164.1 144.418C164.3 144.018 164.3 143.418 164 142.718C163.3 141.118 161.3 139.618 159.4 139.218C158.7 139.118 157.7 139.018 157 139.718C156.6 141.218 157.7 142.718 158.9 143.718C160.4 145.218 161 146.318 160.7 147.118C160.5 147.718 160 148.018 159.7 148.018H159.6L147.6 146.818ZM141.3 134.118C142.5 134.518 143.3 135.518 143.3 135.618V135.718L148 146.118L159.3 147.218C159.4 147.218 159.6 147.118 159.7 146.918C159.8 146.718 159.7 146.018 158.1 144.418C156.3 143.018 155.5 141.118 156 139.518V139.318L156.2 139.218C157 138.518 158.1 138.218 159.4 138.518C161.5 138.918 163.7 140.618 164.6 142.518C165 143.418 165.1 144.218 164.8 144.918C164.4 147.118 166.5 147.918 166.8 148.118L177.7 149.218L165.5 122.218L154.2 121.118C154.1 121.118 153.9 121.218 153.8 121.418C153.7 121.618 153.8 122.318 155.4 123.918C157.2 125.418 158 127.218 157.5 128.918V129.018L157.4 129.118C156.6 129.918 155.5 130.118 154.2 129.918C152.1 129.518 149.9 127.818 149 125.918C148.6 125.018 148.5 124.218 148.8 123.518C149.2 121.318 147.1 120.518 146.8 120.318L135.9 119.218L140.4 129.318C140.4 129.618 140.4 130.218 139.9 130.618C139.2 131.118 137.9 130.918 136.1 130.018C134.8 129.218 133 128.618 131.7 129.518C131.3 130.418 131.7 131.318 132 131.918C132.9 133.518 135 134.918 136.8 135.118C137.5 135.218 138.1 135.018 138.5 134.718L138.6 134.618C139.6 133.818 140.6 133.818 141.3 134.118Z" fill="#2E2E35"/>
<path d="M134.1 134.318L130.3 139.518L131.9 140.318L134.1 140.518L135.4 139.918L136.8 139.618L138.3 140.118L138.9 140.518L142.7 135.318L142 134.818L140.6 134.418L139.6 134.518L138 135.318L136.2 135.418L134.1 134.318Z" stroke="#2E2E35" stroke-width="0.9775" stroke-miterlimit="10"/>
<path d="M148 146.618L144.2 151.818L156.1 152.818L160 147.818L158.8 147.418L148 146.618Z" stroke="#2E2E35" stroke-width="0.9775" stroke-miterlimit="10"/>
<path d="M162.3 140.318L159.1 144.718L157.4 142.918L156.6 140.018L157.9 138.518L160.6 139.018L162.3 140.318C162.3 140.218 162.3 140.318 162.3 140.318Z" fill="#2E2E35"/>
<path d="M165.5 147.718L161.7 152.918L162.9 153.618L174.5 154.818L178.3 149.618L167.5 148.618L165.5 147.718Z" stroke="#2E2E35" stroke-width="0.9775" stroke-miterlimit="10"/>
<path d="M42.6999 155.818L43.2999 154.118C43.5999 154.018 43.9999 153.918 44.4999 153.918C45.4999 153.818 46.3999 153.618 47.1999 153.218C48.0999 152.718 48.4999 152.018 48.4999 151.418V145.218L46.8999 145.118L41.9999 146.118L39.4999 147.618L33.8999 149.718L26.6999 147.518L26.0999 147.118L25.8999 147.218L23.4999 146.518L16.0999 147.118L16.1999 153.018C15.9999 153.518 16.0999 154.318 18.3999 154.818L17.9999 156.518L14.9999 158.918C14.5999 158.518 14.2999 158.118 14.1999 157.718C13.0999 155.218 10.2999 156.118 10.2999 156.118L7.6999 157.618L7.7999 156.118L5.2999 154.318L3.2999 155.218L0.399902 155.518V161.718L25.8999 176.418L35.5999 170.818C35.5999 170.818 35.8999 170.518 35.7999 170.118V163.918C35.9999 164.018 36.1999 164.118 36.3999 164.218C37.0999 164.618 37.5999 165.218 37.6999 165.718C38.7999 168.218 41.5999 167.318 41.5999 167.318L51.2999 161.718V155.518L42.6999 155.818Z" fill="#F25A22"/>
<path d="M25.9 176.918L25.7 176.818L0 161.918V161.718V155.118L0.4 155.018L3.3 154.718L5.5 153.818L5.7 153.918L8.2 155.918L8 156.118V156.818L10 155.718C10.1 155.718 13.2 154.718 14.5 157.518V157.618C14.5 157.918 14.7 158.118 14.9 158.318L17.5 156.218L17.8 155.018C16.7 154.718 16 154.318 15.7 153.818C15.5 153.518 15.5 153.218 15.6 152.818L15.5 146.518H15.9L23.3 145.918L23.4 146.018L25.6 146.618L25.9 146.518L26.7 147.018L33.8 149.118L39.3 147.118L41.8 145.618H41.9L46.8 144.618L48.8 144.818V145.218V151.718C48.7 152.418 48.2 153.118 47.3 153.618C46.5 154.018 45.5 154.318 44.5 154.418C44.2 154.418 43.9 154.518 43.6 154.618L43.3 155.618L51.9 155.318V155.718V162.118L51.7 162.218L41.8 167.918C40.7 168.218 38.5 168.218 37.5 166.018V165.918C37.4 165.418 37 165.018 36.4 164.718V170.218C36.5 170.718 36.1 171.118 36 171.218L35.9 171.318L25.9 176.918ZM0.8 161.518L25.9 176.018L35.4 170.518C35.5 170.418 35.5 170.318 35.5 170.118V163.318L36.1 163.518C36.3 163.618 36.5 163.718 36.7 163.818C37.5 164.318 38 164.918 38.2 165.618C39.1 167.518 41 167.118 41.5 167.018H41.6L51.1 161.518V155.918L42.6 156.218L42.3 155.918L43 153.718L43.2 153.618C43.6 153.518 44 153.418 44.4 153.418C45.4 153.318 46.2 153.118 46.9 152.718C47.6 152.318 48 151.818 48 151.218V150.918V145.318L46.8 145.218L42 146.218L39.5 147.618L33.7 149.818H33.6L26.3 147.618L25.9 147.418L25.8 147.518L23.3 146.718L16.4 147.318L16.5 152.918V153.018C16.4 153.218 16.5 153.318 16.5 153.418C16.6 153.618 17 154.018 18.4 154.318L18.8 154.418V154.818L18.4 156.718L18.3 156.818L15 159.518L14.7 159.318C14.2 158.918 13.9 158.418 13.8 157.918C12.9 155.918 10.8 156.418 10.5 156.518L7.1 158.318L7.2 156.318L5.3 154.818L3.4 155.618L0.9 155.918V161.518H0.8Z" fill="#2E2E35"/>
<path d="M43.8 142.418C41.2 142.718 39.8 143.718 39.6 144.818C38.5 147.318 35.7 146.418 35.7 146.418L26 140.818L16.3 146.418C16.3 146.418 14.8 148.018 19.1 148.618C21 148.718 22.7 149.518 23.2 151.018C22.7 153.718 17.9 154.418 15.4 152.918C14.7 152.518 14.2 151.918 14.1 151.418C13 148.918 10.2 149.818 10.2 149.818L0.5 155.418L26 170.118L35.7 164.518C35.7 164.518 37.2 162.918 32.9 162.318C31 162.218 29.3 161.418 28.8 159.918C29.3 157.218 34.1 156.518 36.6 158.018C37.3 158.418 37.8 159.018 37.9 159.518C39 162.018 41.8 161.118 41.8 161.118L51.5 155.518L41.8 149.918C41.8 149.918 40.3 148.318 44.6 147.718C45.6 147.618 46.5 147.418 47.3 147.018C49.6 145.418 48.5 142.718 43.8 142.418Z" fill="white"/>
<path d="M25.9 170.718L25.7 170.618L0 155.718V155.218L0.2 155.118L10 149.418C10.1 149.418 13.1 148.518 14.4 151.218V151.318C14.5 151.818 14.9 152.218 15.5 152.618C17 153.518 19.4 153.518 21 152.818C21.6 152.518 22.4 152.018 22.6 151.118C22 149.718 20.3 149.118 18.9 149.018C16.9 148.718 15.8 148.218 15.5 147.418C15.3 146.818 15.6 146.318 15.8 146.118L15.9 146.018L25.8 140.318L26 140.418L35.7 146.018C36 146.118 38.1 146.618 39 144.618C39.3 143.218 41 142.218 43.6 141.918C46.9 142.118 48.3 143.418 48.6 144.518C48.8 145.518 48.3 146.418 47.1 147.118C46.3 147.518 45.3 147.818 44.3 147.918C42.2 148.218 41.7 148.818 41.7 149.018C41.6 149.218 41.7 149.418 41.8 149.418L51.7 155.118V155.618L51.5 155.718L41.6 161.418C40.5 161.718 38.3 161.718 37.3 159.518V159.418C37.2 158.918 36.8 158.518 36.2 158.118C34.7 157.218 32.3 157.218 30.7 157.918C30.1 158.218 29.3 158.718 29.1 159.618C29.7 161.018 31.4 161.618 32.8 161.718C34.8 162.018 35.9 162.518 36.2 163.318C36.4 163.918 36.1 164.418 35.9 164.618L35.8 164.718L25.9 170.718ZM1.2 155.518L25.9 169.818L35.4 164.318C35.5 164.218 35.6 164.018 35.5 163.918C35.4 163.718 35 163.118 32.8 162.818C30.6 162.718 28.9 161.718 28.3 160.118L28.2 159.918L28.3 159.818C28.5 158.818 29.2 158.018 30.4 157.418C32.3 156.518 35 156.618 36.7 157.618C37.5 158.118 38 158.718 38.2 159.418C39.1 161.318 41 160.918 41.5 160.818H41.6L50.7 155.618L41.5 150.218C41.3 150.018 41 149.518 41.2 148.918C41.5 148.118 42.6 147.618 44.5 147.318C45.5 147.218 46.3 147.018 47 146.618C47.8 146.118 48.2 145.518 48.1 144.918C47.9 144.118 46.7 143.118 43.9 142.918C41.3 143.218 40.2 144.218 40.1 145.018V145.118C39.1 147.318 36.8 147.318 35.7 146.918H35.6L26 141.418L16.5 146.918C16.4 147.018 16.3 147.218 16.4 147.318C16.5 147.518 16.9 148.118 19.1 148.418C21.3 148.518 23 149.518 23.6 151.118V151.218C23.4 152.318 22.7 153.118 21.5 153.718C19.6 154.618 16.9 154.518 15.2 153.518C14.4 153.018 13.9 152.418 13.7 151.718C12.8 149.818 10.7 150.218 10.4 150.318L1.2 155.518Z" fill="#2E2E35"/>
<path d="M25.8999 170.218V176.418L35.7999 170.618V164.318L25.8999 170.218Z" stroke="#2E2E35" stroke-width="0.9775" stroke-miterlimit="10"/>
<path d="M40.5 161.218V167.418L41.6 167.318L51.3 161.718V155.518L41.9 161.018L40.5 161.218Z" stroke="#2E2E35" stroke-width="0.9775" stroke-miterlimit="10"/>
<path d="M48.4 145.918V151.218L47.4 152.918H46.9L41.5 149.618V148.918L42.2 148.318L45.4 147.618L48.4 145.918Z" stroke="#2E2E35" stroke-width="0.9775" stroke-miterlimit="10"/>
<path d="M33.5 157.218V162.418L31.3 162.018L29.3 161.018L28.8 159.218L30.3 157.918L32.4001 157.218H33.5Z" fill="#2E2E35"/>
</svg>
