<svg width="250" height="186" viewBox="0 0 250 186" fill="none" xmlns="http://www.w3.org/2000/svg">
<path d="M200.1 40.9184C201.7 40.2184 203.1 39.3184 204.5 38.2184L205.1 37.7184C205.2 37.6184 205.2 37.5184 205 37.5184L200 37.3184H199.9L199.3 37.8184C199.3 37.8184 199.3 37.8184 199.3 37.9184L198.9 39.7184V39.8184L199.9 40.9184C200 40.9184 200.1 40.9184 200.1 40.9184Z" fill="#2E2E35"/>
<path d="M200.1 41.3184C200 41.3184 199.8 41.2184 199.7 41.1184L198.7 40.0184C198.6 39.9184 198.6 39.7184 198.6 39.6184L199 37.8184C199 37.7184 199.1 37.6184 199.1 37.6184L199.7 37.1184C199.8 37.0184 199.9 37.0184 200 37.0184L205 37.2184C205.2 37.2184 205.4 37.4184 205.4 37.6184C205.5 37.8184 205.4 38.0184 205.2 38.1184L204.6 38.6184C203.3 39.7184 201.8 40.6184 200.2 41.4184C200.2 41.2184 200.1 41.3184 200.1 41.3184ZM199.3 39.6184L200.1 40.5184C201.6 39.8184 203 38.9184 204.2 37.9184L204.3 37.8184L200.2 37.6184L199.8 38.0184L199.3 39.6184Z" fill="#2E2E35"/>
<path d="M209.3 10.7184L192.8 1.11836C191.9 0.618362 191 0.518362 190.4 0.818362L185 4.21836C185 4.21836 185 4.21836 185 4.31836C185.2 4.81836 187.5 9.51836 187.7 10.4184C187.8 10.8184 188.5 14.4184 189.3 18.5184V20.6184C189.3 21.8184 189.7 23.1184 190.4 24.2184C191.2 28.6184 192 32.3184 192 32.4184L199.6 35.0184H200.1C200.1 35.0184 200.1 35.0184 200.1 34.9184L199.7 33.7184C199.6 33.1184 199.5 32.5184 199.5 31.9184L206.6 39.9184H206.7L211.9 36.7184H212C212.6 36.3184 213 35.5184 213 34.4184V17.0184C212.9 14.7184 211.3 11.9184 209.3 10.7184Z" fill="#92C29C"/>
<path d="M212.9 31.4184L207.5 34.7184L207.6 38.1184L207.3 39.5184L211.9 36.6184L212.8 35.5184L213 34.1184L212.9 31.4184Z" fill="#92C29C"/>
<path d="M206.6 40.3184C206.5 40.3184 206.4 40.2184 206.3 40.2184L200 33.1184C200 33.3184 200.1 33.5184 200.1 33.7184L200.5 34.8184C200.6 35.0184 200.5 35.2184 200.3 35.3184H200.2H199.5L191.7 32.7184L191.6 32.5184C191.6 32.4184 190.9 28.7184 190 24.4184C189.3 23.2184 188.9 21.8184 188.9 20.6184V18.5184C187.9 13.4184 187.4 10.7184 187.3 10.4184C187.1 9.71837 185.6 6.31837 184.6 4.41837C184.5 4.21837 184.6 4.01837 184.8 3.81837L190.2 0.518366C191 0.118366 192 0.218366 193 0.818366L209.5 10.4184C211.6 11.6184 213.3 14.6184 213.3 17.0184V34.3184C213.3 35.5184 212.9 36.4184 212.1 36.9184C212.1 36.9184 212 36.9184 212 37.0184L206.8 40.2184C206.8 40.2184 206.7 40.3184 206.6 40.3184ZM199 30.9184L206.7 39.5184L211.7 36.4184C212.2 36.1184 212.5 35.4184 212.5 34.4184V17.0184C212.5 14.9184 210.9 12.1184 209.1 11.1184L192.6 1.51837C191.8 1.01837 191.1 0.918366 190.5 1.21837L185.4 4.41837C186 5.71837 187.8 9.51837 188 10.3184C188.1 10.6184 188.6 13.4184 189.6 18.5184V18.6184V20.7184C189.6 21.8184 190 23.0184 190.7 24.1184V24.2184V24.3184C191.4 28.1184 192.1 31.4184 192.2 32.3184L199.5 34.8184L199.2 34.0184C199.1 33.4184 199 32.7184 199 32.1184V30.9184Z" fill="#2E2E35"/>
<path d="M209.3 10.7184L193.9 1.81836L186 6.61836L202.6 15.4184L206.1 16.0184L211.5 12.8184C210.8 11.9184 210.1 11.2184 209.3 10.7184Z" fill="white"/>
<path d="M206.2 16.4184L202.5 15.8184L185.3 6.61837L194 1.41837L209.6 10.4184C210.4 10.9184 211.2 11.6184 211.9 12.6184L212.1 12.9184L206.2 16.4184ZM202.7 15.1184L206 15.6184L210.9 12.7184C210.4 12.0184 209.7 11.4184 209.1 11.1184L193.9 2.31837L186.7 6.61837L202.7 15.1184Z" fill="#2E2E35"/>
<path d="M187.5 4.41836L204 14.0184C206 15.1184 207.6 17.9184 207.6 20.2184V37.6184C207.6 39.9184 206 40.8184 204 39.7184L202.1 38.6184C201.8 38.4184 201.5 38.5184 201.4 38.9184C201.2 39.9184 200.5 41.8184 197.8 40.7184C197.3 40.5184 196.9 39.7184 197 39.2184C197.2 38.6184 197.4 37.7184 197.4 36.7184C197.4 36.2184 197.1 35.7184 196.7 35.5184L187.5 30.2184C185.5 29.1184 183.9 26.3184 183.9 24.0184V6.51836C183.9 4.21836 185.5 3.31836 187.5 4.41836Z" fill="white"/>
<path d="M199.3 41.4184C198.8 41.4184 198.3 41.3184 197.7 41.0184C197 40.7184 196.5 39.7184 196.7 39.0184C196.9 38.5184 197.1 37.6184 197.1 36.6184C197.1 36.3184 196.9 35.9184 196.6 35.7184L187.4 30.4184C185.3 29.2184 183.6 26.3184 183.6 23.9184V6.51837C183.6 5.31837 184 4.31837 184.8 3.91837C185.6 3.41837 186.6 3.51837 187.7 4.21837L204.2 13.8184C206.3 15.0184 208 17.9184 208 20.3184V37.7184C208 38.9184 207.6 39.9184 206.8 40.3184C206 40.8184 205 40.7184 203.9 40.0184L202 38.9184C201.9 38.9184 201.9 38.9184 201.9 38.9184C201.8 39.6184 201.4 40.6184 200.5 41.1184C200.1 41.3184 199.7 41.4184 199.3 41.4184ZM185.9 4.31837C185.6 4.31837 185.4 4.41837 185.2 4.51837C184.6 4.81837 184.3 5.51837 184.3 6.51837V23.9184C184.3 26.1184 185.8 28.7184 187.7 29.8184L196.9 35.1184C197.4 35.4184 197.8 36.1184 197.8 36.7184C197.8 37.8184 197.6 38.7184 197.4 39.3184C197.3 39.6184 197.6 40.2184 198 40.4184C198.9 40.8184 199.6 40.8184 200.1 40.5184C200.7 40.2184 201 39.4184 201.1 38.8184C201.2 38.5184 201.3 38.3184 201.5 38.2184C201.7 38.1184 202 38.1184 202.3 38.3184L204.2 39.4184C205 39.9184 205.8 40.0184 206.3 39.7184C206.9 39.4184 207.2 38.7184 207.2 37.7184V20.2184C207.2 18.0184 205.7 15.4184 203.8 14.3184L187.3 4.71837C186.8 4.51837 186.3 4.31837 185.9 4.31837Z" fill="#2E2E35"/>
<path d="M194.2 27.5184C194.2 26.9184 194.3 26.6184 194.6 26.4184C194.9 26.3184 195.2 26.3184 195.7 26.6184C196.2 26.9184 196.6 27.2184 196.8 27.7184C197.1 28.1184 197.2 28.6184 197.2 29.2184C197.2 29.7184 197.1 30.1184 196.8 30.2184C196.5 30.4184 196.2 30.3184 195.7 30.0184C195.2 29.7184 194.8 29.3184 194.6 28.9184C194.3 28.6184 194.2 28.1184 194.2 27.5184ZM196.8 25.6184L194.7 24.4184L194.3 14.3184L197.3 16.0184L196.8 25.6184Z" fill="#92C29C"/>
<path d="M196.5 30.6184C196.2 30.6184 195.9 30.5184 195.6 30.3184C195.1 30.0184 194.7 29.6184 194.4 29.1184C194.1 28.6184 194 28.1184 194 27.5184C194 26.8184 194.2 26.4184 194.5 26.2184C194.8 26.0184 195.3 26.1184 195.9 26.4184C196.4 26.7184 196.8 27.1184 197.1 27.6184C197.4 28.1184 197.5 28.6184 197.5 29.2184C197.5 29.8184 197.3 30.2184 197 30.4184C196.8 30.6184 196.7 30.6184 196.5 30.6184ZM194.9 26.6184C194.8 26.6184 194.8 26.6184 194.7 26.6184C194.5 26.7184 194.4 27.0184 194.4 27.4184C194.4 27.9184 194.5 28.4184 194.8 28.8184C195 29.2184 195.4 29.6184 195.8 29.8184C196.1 30.0184 196.4 30.1184 196.7 30.0184C196.9 29.9184 197 29.5184 197 29.2184C197 28.7184 196.9 28.2184 196.6 27.8184C196.4 27.4184 196 27.1184 195.6 26.8184C195.3 26.7184 195 26.6184 194.9 26.6184ZM197 26.0184L194.4 24.5184L193.9 13.8184L197.4 15.9184L197 26.0184ZM194.9 24.2184L196.5 25.2184L196.9 16.2184L194.4 14.8184L194.9 24.2184Z" fill="#2E2E35"/>
<path d="M128.7 55.7184L110.9 65.9184L121.3 71.9184L139.1 61.7184L128.7 55.7184ZM121.3 68.4184L117 65.9184L128.6 59.2184L132.9 61.6184L121.3 68.4184Z" fill="white"/>
<path d="M121.3 72.3184L121.1 72.2184L110.5 66.1184V65.7184L110.7 65.6184L128.6 55.3184L128.8 55.4184L139.5 61.5184V61.9184L139.3 62.0184L121.3 72.3184ZM111.5 66.0184L121.3 71.6184L138.5 61.7184L128.6 56.1184L111.5 66.0184ZM121.4 68.8184L121.2 68.7184L116.8 66.2184V65.8184L116.9 65.7184L128.7 58.9184L128.9 59.0184L133.3 61.5184V61.9184L133.1 62.0184L121.4 68.8184ZM117.7 66.0184L121.3 68.1184L132.3 61.8184L128.7 59.7184L117.7 66.0184Z" fill="#2E2E35"/>
<path d="M199.3 65.9184L191.9 70.1184L206.6 78.6184L202.4 81.0184L187.7 72.5184L165.5 85.3184L161.2 82.8184L168.5 78.6184L161.2 74.4184L175.9 66.0184L161.2 57.5184L168.5 53.3184L153.8 44.9184L161.2 40.7184L152.3 35.6184L149.2 37.4184L155 40.7184L147.6 44.9184L162.3 53.3184L155 57.5184L169.7 66.0184L155 74.4184L162.3 78.6184L150.8 85.3184L136.1 76.8184L121.3 85.3184L113.9 81.1184L106.5 85.3184L99.1999 81.1184L91.7999 85.3184L87.4999 82.8184L109.6 70.1184L91.8999 60.0184L77.1999 68.5184L62.4999 60.0184L47.7999 68.5184L41.9999 65.2184L38.8999 67.0184L47.7999 72.1184L62.4999 63.6184L77.1999 72.1184L91.8999 63.6184L103.5 70.3184L81.3999 82.9184L91.7999 88.9184L99.1999 84.7184L106.5 88.9184L113.9 84.7184L121.3 88.9184L136.1 80.4184L150.8 88.9184L158.2 84.7184L165.6 88.9184L187.7 76.2184L202.4 84.7184L212.8 78.7184L198.1 70.2184L205.5 66.0184L190.8 57.5184L202.4 50.8184L228.8 65.9184L221.4 70.1184L236.1 78.5184L202.3 97.9184L187.6 89.4184L162.4 103.918L171.3 109.018L174.4 107.218L168.6 103.918L187.6 93.0184L199.2 99.7184L172.8 114.918L150.7 102.318L132.9 112.518L155 125.218L121.2 144.618L109.6 137.918L131.7 125.218L113.9 114.918L106.5 119.218L91.7999 110.718L73.9999 121.018L121.3 148.218L249.7 74.4184L202.4 47.2184L184.6 57.4184L199.3 65.9184ZM80.1999 121.018L91.8999 114.318L106.6 122.818L114 118.518L125.6 125.218L106.6 136.118L80.1999 121.018ZM139.1 112.518L150.7 105.818L169.7 116.718L158.1 123.418L139.1 112.518ZM239.2 76.9184L227.6 70.2184L231.9 67.8184L243.5 74.5184L239.2 76.9184Z" fill="white"/>
<path d="M121.2 148.618L121 148.518L73.5999 121.318V120.918L73.7999 120.818L91.7999 110.518L91.9999 110.618L106.6 119.018L114 114.718L114.2 114.818L132.1 125.118V125.518L131.9 125.618L110.3 138.018L121.3 144.318L154.4 125.318L132.6 112.818V112.418L132.8 112.318L150.7 102.018L150.9 102.118L172.8 114.718L198.6 99.9184L187.6 93.6184L169.2 104.218L174.7 107.418V107.818L174.5 107.918L171.3 109.818L171.1 109.718L162 104.518V104.118L162.2 104.018L187.6 89.4184L187.8 89.5184L202.3 97.9184L235.4 78.9184L221 70.4184V70.0184L221.2 69.9184L228.1 66.0184L202.4 51.2184L191.4 57.5184L205.8 65.8184V66.2184L205.6 66.3184L198.7 70.3184L213.1 78.6184V79.0184L213 79.1184L202.4 85.2184L202.2 85.1184L187.7 76.7184L165.5 89.3184L165.3 89.2184L158.1 85.1184L150.8 89.3184L150.6 89.2184L136 80.8184L121.3 89.3184L121.1 89.2184L113.9 85.1184L106.5 89.3184L106.3 89.2184L99.0999 85.0184L91.7999 89.3184L91.5999 89.2184L80.9999 83.1184V82.7184L81.1999 82.6184L102.8 70.2184L91.7999 63.9184L76.9999 72.4184L76.8999 72.3184L62.3999 63.9184L47.7999 72.3184H47.6999H47.4999L38.3999 67.1184V66.7184L41.7999 64.7184L41.9999 64.8184L47.6999 68.0184L62.3999 59.5184L62.5999 59.6184L77.1999 68.0184L91.9999 59.5184L92.1999 59.6184L110.2 69.9184V70.3184L110 70.4184L88.1999 82.9184L91.7999 85.0184L99.1999 80.8184L99.3999 80.9184L106.6 85.0184L114 80.8184L114.1 80.9184L121.3 85.0184L136.1 76.5184L136.3 76.6184L150.8 85.0184L161.8 78.7184L154.8 74.6184V74.2184L155 74.1184L169.2 65.9184L154.8 57.6184V57.2184L155 57.1184L161.9 53.2184L147.5 44.9184V44.5184L147.6 44.4184L154.5 40.4184L149 37.2184V36.8184L149.2 36.7184L152.5 34.8184L152.7 34.9184L161.7 40.1184V40.5184L161.5 40.6184L154.6 44.6184L169 52.9184V53.3184L168.8 53.4184L161.9 57.3184L176.3 65.6184V66.0184L176.1 66.1184L161.9 74.3184L168.9 78.4184V78.8184L168.7 78.9184L161.9 82.8184L165.5 84.9184L187.6 72.3184L187.8 72.4184L202.4 80.8184L206 78.7184L191.6 70.4184V70.0184L191.8 69.9184L198.7 65.9184L184.3 57.6184V57.2184L184.5 57.1184L202.4 46.8184L202.6 46.9184L250 74.2184V74.6184L249.8 74.7184L121.2 148.618ZM74.5999 121.018L121.2 147.818L249 74.4184L202.4 47.6184L185.3 57.5184L199.7 65.8184V66.2184L199.5 66.3184L192.6 70.3184L207 78.6184V79.0184L206.8 79.1184L202.4 81.6184L202.2 81.5184L187.7 73.1184L165.6 85.8184L165.4 85.7184L161 83.1184V82.7184L161.2 82.6184L168 78.7184L161 74.6184V74.2184L161.1 74.1184L175.3 65.9184L160.9 57.6184V57.2184L161.1 57.1184L168 53.3184L153.6 45.0184V44.6184L153.8 44.5184L160.7 40.5184L152.4 35.8184L150 37.2184L155.5 40.3184V40.7184L155.3 40.8184L148.4 44.8184L162.8 53.1184V53.5184L162.6 53.6184L155.7 57.5184L170.1 65.8184V66.2184L170 66.3184L155.8 74.5184L162.8 78.6184V79.0184L162.7 79.1184L150.9 85.9184L150.7 85.8184L136.1 77.3184L121.3 85.8184L121.1 85.7184L113.9 81.6184L106.6 85.8184L106.4 85.7184L99.1999 81.5184L91.7999 85.7184L91.5999 85.6184L87.1999 83.1184V82.7184L87.3999 82.6184L109 70.2184L91.8999 60.3184L77.2999 68.7184H77.1999H76.9999L62.3999 60.3184L47.6999 68.7184L47.4999 68.6184L41.7999 65.4184L39.3999 66.8184L47.6999 71.5184L62.3999 63.0184L62.5999 63.1184L77.1999 71.5184L91.9999 63.0184L92.1999 63.1184L104 69.9184V70.3184L103.8 70.4184L81.9999 82.9184L91.7999 88.5184L99.1999 84.3184L99.3999 84.4184L106.6 88.5184L114 84.3184L114.2 84.4184L121.4 88.5184L136.2 80.0184L136.4 80.1184L150.9 88.5184L158.2 84.3184L158.4 84.4184L165.6 88.5184L187.7 75.8184L187.9 75.9184L202.4 84.3184L212.2 78.7184L197.8 70.4184V70.0184L197.9 69.9184L204.8 65.9184L190.4 57.6184V57.2184L190.6 57.1184L202.4 50.3184L202.6 50.4184L229 65.8184V66.2184L228.8 66.3184L221.9 70.2184L236.3 78.5184V78.9184L236.1 79.0184L202.2 98.5184L202 98.4184L187.5 90.0184L162.9 104.118L171.1 108.918L173.5 107.518L168 104.318V103.918L168.2 103.818L187.4 92.8184L187.6 92.9184L199.4 99.7184V100.118L199.2 100.218L172.6 115.518L172.4 115.418L150.5 102.818L133.4 112.718L155.2 125.218V125.618L155 125.718L121.1 145.218L120.9 145.118L109.1 138.318V137.918L109.3 137.818L130.9 125.418L113.8 115.518L106.4 119.818L106.2 119.718L91.6999 111.318L74.5999 121.018ZM106.5 136.618L106.3 136.518L79.7999 121.318V120.918L79.9999 120.818L91.7999 114.018L91.9999 114.118L106.6 122.518L114 118.318L114.2 118.418L126 125.218V125.618L125.8 125.718L106.5 136.618ZM80.7999 121.018L106.5 135.818L124.9 125.218L113.9 118.918L106.5 123.118L106.3 123.018L91.7999 114.618L80.7999 121.018ZM158.1 123.818L157.9 123.718L138.8 112.718V112.318L139 112.218L150.7 105.518H150.8L151 105.618L170.2 116.618V117.018L170 117.118L158.1 123.818ZM139.8 112.518L158.2 123.018L169.2 116.718L150.9 106.218L139.8 112.518ZM239.2 77.2184L239 77.1184L227.2 70.3184V69.9184L227.4 69.8184L231.8 67.3184L232 67.4184L243.8 74.2184V74.6184L243.7 74.7184L239.2 77.2184ZM228.2 70.2184L239.2 76.5184L242.8 74.4184L231.8 68.1184L228.2 70.2184Z" fill="#2E2E35"/>
<path d="M0.300049 78.7184L62.3 114.318L91.8 97.3184L106.5 105.818L113.9 101.618L121.3 105.818L137.6 96.4184L134.5 94.6184L121.3 102.218L113.9 98.0184L106.5 102.218L91.8 93.7184L62.3 110.718L50.7001 104.018L72.8 91.3184L56.5 82.0184L53.4001 83.8184L66.6 91.3184L47.6 102.218L6.50005 78.7184L18.1 72.0184L29.7001 78.7184L22.3 82.9184L40.2001 93.1184L49.1 88.0184L46.1 86.3184L40.3 89.6184L28.6 82.9184L36 78.7184L21.3 70.2184L62.4001 46.6184L77.1 55.1184L91.8 46.6184L106.5 55.1184L121.2 46.6184L128.6 50.8184L139 44.8184L114 30.3184L99.3 38.8184L87.6 32.1184L106.6 21.2184L114 25.4184L121.3 21.2184L136 29.7184L150.7 21.2184L185.1 40.9184L188.2 39.1184L128.7 4.91837L0.300049 78.7184ZM114 33.9184L133 44.8184L128.7 47.2184L121.3 43.0184L106.6 51.5184L91.9 43.0184L77.2 51.5184L65.6 44.8184L84.6 33.9184L99.3 42.3184L114 33.9184ZM136.1 26.1184L121.4 17.6184L114.1 21.8184L109.8 19.4184L128.8 8.51837L147.8 19.4184L136.1 26.1184Z" fill="white"/>
<path d="M62.3 114.718L62.1 114.618L0 78.9184V78.5184L0.2 78.4184L128.7 4.61836L128.9 4.71836L188.6 39.0184V39.4184L188.4 39.5184L185.2 41.4184L185 41.3184L150.8 21.6184L136.1 30.1184L135.9 30.0184L121.3 21.6184L114 25.8184L113.8 25.7184L106.6 21.6184L88.2 32.1184L99.2 38.4184L113.9 29.9184L114.1 30.0184L139.4 44.5184V44.9184L139.3 45.0184L128.7 51.1184L128.5 51.0184L121.3 46.9184L106.5 55.4184L106.3 55.3184L91.8 46.9184L77.1 55.4184L77 55.3184L62.4 46.9184L21.9 70.2184L36.3 78.5184V78.9184L36.1 79.0184L29.2 82.9184L40.2 89.2184L46 85.8184L46.2 85.9184L49.4 87.8184V88.2184L49.3 88.3184L40.3 93.5184L40.1 93.4184L22.1 83.1184V82.7184L22.3 82.6184L29.2 78.6184L18.2 72.3184L7.2 78.6184L47.6 101.818L66 91.4184L53.1 84.0184V83.6184L56.5 81.7184L56.6 81.8184L73.1 91.2184V91.6184H73L51.3 104.018L62.3 110.318L91.8 93.4184L92 93.5184L106.5 101.918L113.9 97.7184L114.1 97.8184L121.3 101.918L134.5 94.3184L134.7 94.4184L137.9 96.3184V96.7184L137.7 96.8184L121.3 106.318L121.1 106.218L113.9 102.118L106.5 106.318L106.3 106.218L91.7 97.8184L62.3 114.718ZM1 78.7184L62.3 114.018L91.8 97.0184L92 97.1184L106.5 105.518L113.9 101.318L114.1 101.418L121.3 105.518L137 96.5184L134.6 95.1184L121.4 102.718L121.2 102.618L114 98.5184L106.6 102.718L106.4 102.618L91.9 94.2184L62.4 111.218L62.2 111.118L50.4 104.318V103.918L50.5 103.818L72.2 91.3184L56.5 82.3184L54.1 83.7184L67 91.2184V91.6184L66.8 91.7184L47.6 102.718L47.4 102.618L6.2 78.9184V78.5184L6.4 78.4184L18 71.7184H18.1L18.2 71.8184L30 78.6184V79.0184L23.1 83.0184L40.3 92.8184L48.6 88.1184L46.2 86.7184L40.4 90.1184L40.2 90.0184L28.4 83.3184V82.9184L28.6 82.8184L35.5 78.8184L21.1 70.5184V70.1184L21.3 70.0184L62.6 46.3184L62.8 46.4184L77.3 54.8184L92 46.3184L106.6 54.7184L121.3 46.2184L121.5 46.3184L128.7 50.4184L138.5 44.8184L114 30.7184L99.3 39.1184L99.1 39.0184L87.3 32.3184V31.9184L87.5 31.8184L106.7 20.8184L106.9 20.9184L114.1 25.0184L121.4 20.8184L121.6 20.9184L136.1 29.3184L150.9 20.8184L151.1 20.9184L185.3 40.5184L187.7 39.1184L128.7 5.31836L1 78.7184ZM106.6 51.9184L106.4 51.8184L91.9 43.4184L77.2 51.9184L77 51.8184L65.2 45.0184V44.6184L65.4 44.5184L84.6 33.5184L84.8 33.6184L99.4 42.0184L114.1 33.5184L114.3 33.6184L133.5 44.6184V45.0184L133.3 45.1184L128.9 47.6184L128.7 47.5184L121.5 43.4184L106.6 51.9184ZM66.1 44.8184L77.1 51.1184L91.8 42.6184L92 42.7184L106.6 51.1184L121.4 42.6184L121.6 42.7184L128.8 46.8184L132.4 44.7184L114 34.3184L99.3 42.8184L99.1 42.7184L84.5 34.3184L66.1 44.8184ZM136.1 26.5184L135.9 26.4184L121.3 18.0184L114 22.2184L113.8 22.1184L109.3 19.6184V19.2184L109.5 19.1184L128.7 8.11836L128.9 8.21836L148.1 19.2184V19.6184L147.9 19.7184L136.1 26.5184ZM121.3 17.3184L121.5 17.4184L136 25.8184L147 19.5184L128.7 8.91836L110.3 19.5184L113.9 21.6184L121.3 17.3184Z" fill="#2E2E35"/>
<path d="M0.300049 78.7184L0.400049 115.418V115.518L62.4001 151.118L62.3 114.318L0.300049 78.7184Z" fill="#92C29C"/>
<path d="M62.4 151.418L62.2 151.318L0 115.618V115.418V78.5184L0.3 78.3184L0.5 78.4184L62.7 114.118V114.318V151.218L62.4 151.418ZM0.7 115.318L62 150.518V114.518L0.7 79.3184V115.318Z" fill="#2E2E35"/>
<path d="M74 121.018V157.818L121.3 184.918L121.2 148.218L74 121.018Z" fill="#92C29C"/>
<path d="M121.3 185.318L121.1 185.218L73.7 157.918V157.718V120.818L74 120.618L74.2 120.718L121.6 148.018V148.218V185.118L121.3 185.318ZM74.3 157.618L120.9 184.418V148.418L74.3 121.618V157.618Z" fill="#2E2E35"/>
<path d="M249.6 74.4184L249.7 111.218L121.3 184.918L121.2 148.218L249.6 74.4184Z" fill="#92C29C"/>
<path d="M121.3 185.318L121 185.118V184.918V148.018L121.1 147.918L249.7 74.0184L250 74.2184V74.4184V111.318L249.8 111.418L121.3 185.318ZM121.6 148.418V184.418L249.3 111.018V75.0184L121.6 148.418Z" fill="#2E2E35"/>
<path d="M91.8001 97.4184V110.818L74 121.018V144.418L62.4001 151.118L62.3 114.318L91.8001 97.4184Z" fill="#2E2E35"/>
<path d="M62.4 151.418L62 151.318V151.118V114.218L62.1 114.118L91.8 97.0184L92.1 97.2184V97.4184V111.018L91.9 111.118L74.2 121.318V144.718L74.1 144.818L62.4 151.418ZM62.7 114.518V150.518L73.6 144.218V120.818L73.8 120.718L91.5 110.518V97.9184L62.7 114.518Z" fill="#2E2E35"/>
<path d="M106.6 105.918L106.5 119.218L91.7998 110.818V97.4184L106.5 105.818L106.6 105.918Z" fill="#92C29C"/>
<path d="M106.5 119.618L106.3 119.518L91.3999 110.918V110.718V97.1184L91.6999 96.9184L91.8999 97.0184L106.7 105.618V105.818V119.418L106.5 119.618ZM92.1999 110.618L106.3 118.718V106.118L92.1999 98.0184V110.618Z" fill="#2E2E35"/>
<path d="M113.9 101.618V115.018L106.5 119.218L106.6 105.918V105.818L113.9 101.618Z" fill="#2E2E35"/>
<path d="M106.5 119.618L106.2 119.418V119.218V105.618L106.4 105.518L113.9 101.218L114.2 101.418V101.618V115.118L114.1 115.218L106.5 119.618ZM106.9 106.018V118.618L113.7 114.718V102.118L106.9 106.018Z" fill="#2E2E35"/>
<path d="M121.3 105.818L121.2 119.218L113.9 115.018V101.618L121.3 105.818Z" fill="#92C29C"/>
<path d="M121.2 119.618L121 119.518L113.5 115.218V115.018V101.518L113.8 101.318L114 101.418L121.5 105.718V105.918V119.418L121.2 119.618ZM114.3 114.818L120.9 118.618V106.018L114.2 102.118L114.3 114.818Z" fill="#2E2E35"/>
<path d="M137.6 96.5184V109.818V109.918L132.9 112.518V137.918L131.7 138.618V125.218L121.2 119.218L121.3 105.818L137.6 96.5184Z" fill="#2E2E35"/>
<path d="M131.7 139.018L131.4 138.818V138.618V125.418L120.9 119.418V119.218V105.718L121.1 105.618L137.5 96.2184L137.8 96.4184V96.6184V110.118L137.7 110.218L133.2 112.818V138.218L133.1 138.318L131.7 139.018ZM131.8 124.918L132 125.018V125.218V138.018L132.6 137.718V112.318L132.7 112.218L137.2 109.618V97.0184L121.5 106.018V119.018L131.8 124.918Z" fill="#2E2E35"/>
<path d="M155 125.218L132.9 112.518V137.918L155 125.218Z" fill="#92C29C"/>
<path d="M132.9 138.318L132.6 138.118V137.918V112.318L132.9 112.118L133.1 112.218L155.3 125.018V125.418L155.1 125.518L132.9 138.318ZM133.3 113.118V137.418L154.4 125.318L133.3 113.118Z" fill="#2E2E35"/>
<path d="M91.8 114.318V127.718L80.2 121.018L91.8 114.318Z" fill="#2E2E35"/>
<path d="M91.8 128.118L91.6 128.018L79.8 121.218V120.818L80 120.718L91.8 113.918L92.1 114.118V114.318V127.918L91.8 128.118ZM80.8 121.018L91.5 127.118V114.818L80.8 121.018Z" fill="#2E2E35"/>
<path d="M106.5 122.818V136.218L91.8 127.718V114.318L106.5 122.818Z" fill="#92C29C"/>
<path d="M106.5 136.518L106.3 136.418L91.5 127.918V127.718V114.118L91.8 113.918L92 114.018L106.7 122.418L106.9 122.518V122.718V136.318L106.5 136.518ZM92.1 127.518L106.1 135.618V123.018L92 114.918V127.518H92.1Z" fill="#2E2E35"/>
<path d="M113.9 118.518V131.918L106.5 136.218V122.818L113.9 118.518Z" fill="#2E2E35"/>
<path d="M106.5 136.518L106.2 136.318V136.118V122.518L106.4 122.418L113.9 118.118L114.2 118.318V118.518V132.118L114 132.218L106.5 136.518ZM106.9 123.018V135.618L113.7 131.718V119.118L106.9 123.018Z" fill="#2E2E35"/>
<path d="M125.5 125.218L113.9 118.518V131.918L125.5 125.218Z" fill="#92C29C"/>
<path d="M114 132.318L113.7 132.118V131.918V118.418L114 118.218L114.2 118.318L125.9 125.118V125.518L125.7 125.618L114 132.318ZM114.3 119.118V131.318L124.9 125.218L114.3 119.118Z" fill="#2E2E35"/>
<path d="M131.7 125.318V138.618L121.2 144.618L109.6 138.018V137.918L131.7 125.218V125.318Z" fill="#2E2E35"/>
<path d="M121.3 145.018L121.1 144.918L109.3 138.118V137.718L109.5 137.618L131.7 124.818L132 125.018V125.218V138.818L131.8 138.918L121.3 145.018ZM110.3 137.918L121.3 144.218L131.4 138.418V125.818L110.3 137.918Z" fill="#2E2E35"/>
<path d="M150.7 105.918V119.218L139.1 112.518L150.7 105.918Z" fill="#2E2E35"/>
<path d="M150.7 119.618L150.5 119.518L138.7 112.718V112.318L138.8 112.218L150.6 105.418L150.9 105.618V105.818V119.318L150.7 119.618ZM139.8 112.518L150.4 118.618V106.418L139.8 112.518Z" fill="#2E2E35"/>
<path d="M150.7 105.918L169.7 116.818L158.1 123.418L150.7 119.218V105.918Z" fill="#92C29C"/>
<path d="M158.1 123.818L157.9 123.718L150.4 119.418V119.218V105.718L150.7 105.518L150.9 105.618L170.1 116.618V117.018L169.9 117.118L158.1 123.818ZM151.1 119.018L158.2 123.118L169.2 116.818L151.2 106.418V119.018H151.1Z" fill="#2E2E35"/>
<path d="M162.4 104.118L171.3 109.218V114.118L162.4 109.018V104.118Z" fill="#92C29C"/>
<path d="M171.3 114.518L171.1 114.418L162.1 109.218V109.018V103.918L162.4 103.718L162.6 103.818L171.6 109.018V109.218V114.318L171.3 114.518ZM162.7 108.818L170.9 113.518V109.318L162.7 104.518V108.818Z" fill="#2E2E35"/>
<path d="M174.4 107.418V114.118L172.8 115.018L171.3 114.118V109.218L174.4 107.418Z" fill="#2E2E35"/>
<path d="M172.8 115.418L172.6 115.318L170.9 114.318V114.118V109.018L171 108.918L174.3 107.018L174.6 107.218V107.418V114.218L174.5 114.318L172.8 115.418ZM171.6 113.918L172.8 114.618L174 113.918V108.018L171.6 109.418V113.918Z" fill="#2E2E35"/>
<path d="M187.6 93.1184V106.518L174.4 114.118V107.418L168.6 104.118V104.018L187.6 93.1184Z" fill="#2E2E35"/>
<path d="M174.4 114.518L174.1 114.318V114.118V107.618L168.3 104.318V103.918L168.5 103.818L187.7 92.8184L188 93.0184V93.2184V106.718L187.9 106.818L174.4 114.518ZM169.2 104.118L174.7 107.318V107.518V113.618L187.3 106.418V93.7184L169.2 104.118Z" fill="#2E2E35"/>
<path d="M199.2 99.8184L187.6 93.1184V106.518L199.2 99.8184Z" fill="#92C29C"/>
<path d="M187.6 106.918L187.3 106.718V106.518V92.9184L187.6 92.7184L187.8 92.8184L199.6 99.6184V100.018L199.4 100.118L187.6 106.918ZM188 93.7184V105.918L198.6 99.8184L188 93.7184Z" fill="#2E2E35"/>
<path d="M231.8 67.7184V72.6184L227.5 70.2184L231.8 67.7184Z" fill="#2E2E35"/>
<path d="M231.8 73.0184L231.6 72.9184L227.2 70.4184V70.0184L227.4 69.9184L231.8 67.4184L232.1 67.6184V67.8184V72.9184L231.8 73.0184ZM228.2 70.2184L231.5 72.1184V68.3184L228.2 70.2184Z" fill="#2E2E35"/>
<path d="M243.4 74.4184L231.8 67.7184V72.6184L239.2 76.9184L243.4 74.4184Z" fill="#92C29C"/>
<path d="M239.2 77.2184L239 77.1184L231.5 72.8184V72.6184V67.5184L231.8 67.3184L232 67.4184L243.8 74.2184V74.6184L243.7 74.7184L239.2 77.2184ZM232.1 72.4184L239.2 76.4184L242.8 74.3184L232.1 68.3184V72.4184Z" fill="#2E2E35"/>
<path d="M202.4 50.8184V64.1184H202.3L190.7 57.5184L202.3 50.8184H202.4Z" fill="#2E2E35"/>
<path d="M202.4 64.5184L202.2 64.4184L190.4 57.6184V57.2184L190.6 57.1184L202.4 50.3184L202.7 50.5184V50.7184V64.3184L202.4 64.5184ZM191.4 57.5184L202 63.6184V51.4184L191.4 57.5184Z" fill="#2E2E35"/>
<path d="M205.5 65.9184V74.4184L198.1 70.2184L205.5 65.9184Z" fill="#2E2E35"/>
<path d="M205.5 74.8184L205.3 74.7184L197.7 70.4184V70.0184L197.8 69.9184L205.4 65.5184L205.7 65.7184V65.9184V74.6184L205.5 74.8184ZM198.7 70.2184L205.1 73.9184V66.5184L198.7 70.2184Z" fill="#2E2E35"/>
<path d="M212.8 78.7184V92.0183L202.3 98.0183L202.4 84.7184V84.6184L212.8 78.7184Z" fill="#2E2E35"/>
<path d="M202.3 98.4184L202 98.2184V98.0183V84.4184L202.1 84.3184L212.7 78.2184L213 78.4184V78.6184V92.1184V92.3184L202.3 98.4184ZM202.7 84.8184V97.4184L212.5 91.8184V79.2184L202.7 84.8184Z" fill="#2E2E35"/>
<path d="M221.4 70.2184V87.1184L236.1 78.6184L221.4 70.2184Z" fill="#92C29C"/>
<path d="M221.4 87.5184L221 87.3184V87.1184V70.0184L221.3 69.8184L221.5 69.9184L236.4 78.4184V78.8184L236.2 78.9184L221.4 87.5184ZM221.7 70.7184V86.5184L235.5 78.6184L221.7 70.7184Z" fill="#2E2E35"/>
<path d="M202.4 50.8184V64.1184V64.2184L205.5 65.9184V74.4184L212.8 78.7184V92.0184L221.4 87.1184V70.2184L228.7 66.0184V65.9184L202.4 50.8184Z" fill="#92C29C"/>
<path d="M212.8 92.4184L212.5 92.2184V92.0184V78.8184L205.2 74.6184V74.4184V66.1184L202 64.3184V64.1184V50.6184L202.3 50.4184L202.5 50.5184L229 65.8184V66.2184L228.8 66.3184L221.6 70.4184V87.3184L221.5 87.4184L212.8 92.4184ZM205.8 74.3184L213.1 78.5184V78.7184V91.5184L221 87.0184V70.0184L221.2 69.9184L228.1 66.0184L202.7 51.4184V64.0184L205.8 65.8184V66.0184V74.3184Z" fill="#2E2E35"/>
<path d="M187.6 76.2184V89.6184L202.3 98.0183L202.4 84.7184V84.6184L187.6 76.2184Z" fill="#92C29C"/>
<path d="M202.3 98.4184L202.1 98.3184L187.3 89.7184V89.5184V76.0184L187.6 75.8184L187.8 75.9184L202.7 84.5184V84.7184V98.3184L202.3 98.4184ZM188 89.4184L202 97.5184V84.9184L188 76.7184V89.4184Z" fill="#2E2E35"/>
<path d="M165.5 88.9184V102.318L187.6 89.6184V76.2184L165.5 88.9184Z" fill="#2E2E35"/>
<path d="M165.5 102.618L165.2 102.418V102.218V88.7184L165.3 88.6184L187.6 75.8184L187.9 76.0184V76.2184V89.7184L187.8 89.8184L165.5 102.618ZM165.8 89.1184V101.718L187.3 89.4184V76.8184L165.8 89.1184Z" fill="#2E2E35"/>
<path d="M158.2 84.7184L165.5 88.9184V102.318L162.4 104.018V104.118V109.018L158 106.518L158.2 84.7184Z" fill="#92C29C"/>
<path d="M162.4 109.418L162.2 109.318L157.7 106.718V106.518L157.8 84.5184L158.1 84.3184L158.3 84.4184L165.8 88.7184V88.9184V102.518L165.6 102.618L162.7 104.318V109.318L162.4 109.418ZM158.3 106.318L162 108.418V103.818L162.2 103.718L165.1 102.018V89.0184L158.4 85.1184L158.3 106.318Z" fill="#2E2E35"/>
<path d="M150.8 88.9184L150.7 102.318L158 106.518L158.2 84.7184H158.1L150.8 88.9184Z" fill="#2E2E35"/>
<path d="M158 106.918L157.8 106.818L150.4 102.518V102.318L150.5 88.7184L150.6 88.6184L158.1 84.3184L158.4 84.5184V84.7184L158.3 106.718L158 106.918ZM151.1 102.118L157.7 105.918L157.8 85.2184L151.1 89.1184V102.118Z" fill="#2E2E35"/>
<path d="M136.1 80.4184V95.6184L137.6 96.5184V109.818L150.7 102.318L150.8 88.9184L136.1 80.4184Z" fill="#92C29C"/>
<path d="M137.6 110.218L137.3 110.018V109.818V96.7184L135.8 95.8184V95.6184V80.3184L136.1 80.1184L136.3 80.2184L151.2 88.8184V89.0184L151.1 102.618L150.9 102.718L137.6 110.218ZM136.4 95.4184L137.9 96.3184V96.5184V109.318L150.4 102.118L150.5 89.1184L136.4 81.0184V95.4184Z" fill="#2E2E35"/>
<path d="M121.3 88.9184V102.318L134.5 94.7184L136.1 95.6184V80.4184L121.3 88.9184Z" fill="#2E2E35"/>
<path d="M121.3 102.718L121 102.518V102.318V88.8184L121.1 88.7184L136.1 80.1184L136.4 80.3184V80.5184V95.8184L136.1 96.0184L135.9 95.9184L134.5 95.1184L121.3 102.718ZM121.6 89.1184V101.718L134.5 94.3184L134.7 94.4184L135.8 95.0184V81.0184L121.6 89.1184Z" fill="#2E2E35"/>
<path d="M113.9 84.7184V98.1184L121.3 102.318V88.9184L113.9 84.7184Z" fill="#92C29C"/>
<path d="M121.3 102.718L121.1 102.618L113.6 98.3184V98.1184V84.6184L113.9 84.4184L114.1 84.5184L121.6 88.8184V89.0184V102.518L121.3 102.718ZM114.2 97.9184L120.9 101.818V89.2184L114.2 85.3184V97.9184Z" fill="#2E2E35"/>
<path d="M106.5 88.9184L106.6 102.318L113.9 98.1184V84.7184L106.5 88.9184Z" fill="#2E2E35"/>
<path d="M106.6 102.718L106.3 102.518V102.318V88.8184L106.4 88.7184L113.9 84.4184L114.2 84.6184V84.8184V98.3184L114.1 98.4184L106.6 102.718ZM106.9 89.1184V101.718L113.6 97.8184V85.2184L106.9 89.1184Z" fill="#2E2E35"/>
<path d="M99.2 84.7184V98.0184L106.5 102.318H106.6L106.5 88.9184L99.2 84.7184Z" fill="#92C29C"/>
<path d="M106.6 102.718L106.4 102.618L98.8999 98.3184V98.1184V84.6184L99.1999 84.4184L99.3999 84.5184L106.9 88.8184V89.0184V102.518L106.6 102.718ZM99.4999 97.9184L106.2 101.818V89.2184L99.4999 85.3184V97.9184Z" fill="#2E2E35"/>
<path d="M91.8 88.9184V93.8184L99.2 98.0184V84.7184L91.8 88.9184Z" fill="#2E2E35"/>
<path d="M99.2 98.4184L99 98.3184L91.5 94.0184V93.8184V88.7184L91.6 88.6184L99.1 84.3184L99.4 84.5184V84.7184V98.2184L99.2 98.4184ZM92.2 93.6184L98.9 97.4184V85.2184L92.2 89.1184V93.6184Z" fill="#2E2E35"/>
<path d="M81.4001 82.9184V99.8184L91.8001 93.8184V88.9184L81.4001 82.9184Z" fill="#92C29C"/>
<path d="M81.4001 100.218L81.1001 100.018V99.8184V82.7184L81.4001 82.5184L81.6001 82.6184L92.2001 88.7184V88.9184V94.0184L92.0001 94.1184L81.4001 100.218ZM81.7001 83.5184V99.3184L91.5001 93.7184V89.2184L81.7001 83.5184Z" fill="#2E2E35"/>
<path d="M18.2 72.0184V85.4184L6.5 78.7184L18.2 72.0184Z" fill="#2E2E35"/>
<path d="M18.2 85.8184L18 85.7184L6.19995 78.9184V78.5184L6.39995 78.4184L18.2 71.6184L18.5 71.8184V72.0184V85.6184L18.2 85.8184ZM7.19995 78.7184L17.9 84.8184V72.6184L7.19995 78.7184Z" fill="#2E2E35"/>
<path d="M22.4001 82.9184L40.3001 93.1184V93.2184V98.1184L22.4001 87.8184V82.9184Z" fill="#92C29C"/>
<path d="M40.3001 98.5184L40.1001 98.4184L22.1001 88.0184V87.8184V82.7184L22.4001 82.5184L22.6001 82.6184L40.6001 92.9184V93.1184V98.3184L40.3001 98.5184ZM22.7001 87.7184L40.0001 97.5184V93.3184L22.8001 83.5184V87.7184H22.7001Z" fill="#2E2E35"/>
<path d="M18.2 72.0184L29.7999 78.7184L22.4 82.9184V87.8184L18.2 85.4184V72.0184Z" fill="#92C29C"/>
<path d="M22.4 88.2184L22.2001 88.1184L17.8 85.6184V85.4184V71.8184L18.1 71.6184L18.3 71.7184L30.1 78.5184V78.9184L30 79.0184L22.8 83.1184V88.0184L22.4 88.2184ZM18.5 85.2184L22.1 87.3184V82.8184L22.2001 82.7184L29.1 78.7184L18.4 72.6184V85.2184H18.5Z" fill="#2E2E35"/>
<path d="M49.2001 88.0184V101.418L47.6 102.318L40.3 98.1184V93.2184V93.1184L49.2001 88.0184Z" fill="#2E2E35"/>
<path d="M47.6 102.718L47.4 102.618L40 98.3184V98.1184V92.9184L40.2 92.8184L49.2 87.6184L49.5 87.8184V88.0184V101.518L49.4 101.618L47.6 102.718ZM40.6 97.9184L47.6 101.918L48.9 101.218V88.6184L40.6 93.3184V97.9184Z" fill="#2E2E35"/>
<path d="M53.3999 83.8184V99.0184H53.4999L66.6999 91.4184L53.4999 83.8184H53.3999Z" fill="#92C29C"/>
<path d="M53.5 99.3184L53.2 99.1184V98.9184V83.6184L53.5 83.4184L53.7 83.5184L67 91.2184V91.6184L66.8 91.7184L53.5 99.3184ZM53.7999 84.4184V98.4184L66 91.4184L53.7999 84.4184Z" fill="#2E2E35"/>
<path d="M72.8 91.4184V104.718L62.2999 110.818L50.7 104.118L72.8 91.4184Z" fill="#2E2E35"/>
<path d="M62.2999 111.218L62.0999 111.118L50.3999 104.318V103.918L50.4999 103.818L72.7999 91.0184L73.0999 91.2184V91.4184V105.018L72.8999 105.118L62.2999 111.218ZM51.2999 104.118L62.2999 110.418L72.4999 104.518V91.9184L51.2999 104.118Z" fill="#2E2E35"/>
<path d="M77.1001 72.0184L91.8001 63.5184V76.9184L81.4001 82.9184V99.8184L77.1001 102.318V72.0184Z" fill="#2E2E35"/>
<path d="M77.1 102.718L76.8 102.518V102.318V71.8184L77 71.7184L91.9 63.1184L92.2 63.3184V63.5184V77.1184L92 77.2184L81.7 83.1184V100.018L81.6 100.118L77.1 102.718ZM77.4 72.2184V101.818L81 99.7184V82.7184L81.1 82.6184L91.4 76.7184V64.1184L77.4 72.2184Z" fill="#2E2E35"/>
<path d="M38.7 66.9184L47.7 72.0184V87.2184L46.0999 86.3184L40.2999 89.6184L38.7 88.7184V66.9184Z" fill="#92C29C"/>
<path d="M40.2999 90.0184L40.0999 89.9184L38.3999 88.9184V88.7184V66.7184L38.6999 66.5184L38.8999 66.6184L47.9999 71.8184V72.0184V87.3184L47.6999 87.5184L47.4999 87.4184L46.0999 86.6184L40.2999 90.0184ZM39.0999 88.5184L40.2999 89.2184L46.0999 85.8184L46.2999 85.9184L47.3999 86.5184V72.2184L39.0999 67.5184V88.5184Z" fill="#2E2E35"/>
<path d="M36.0001 78.7184V87.1184L28.6001 82.9184L36.0001 78.7184Z" fill="#2E2E35"/>
<path d="M36 87.5184L35.8 87.4184L28.3 83.1184V82.7184L28.5 82.6184L36 78.3184L36.3 78.5184V78.7184V87.3184L36 87.5184ZM29.3 82.9184L35.7001 86.6184V79.3184L29.3 82.9184Z" fill="#2E2E35"/>
<path d="M47.7 72.0184L62.4 63.5184V85.4184L56.5 82.0184L53.4 83.8184V99.0184L49.2 101.418V88.0184L47.7 87.2184V72.0184Z" fill="#2E2E35"/>
<path d="M49.2001 101.818L48.9001 101.618V101.418V88.2184L47.3 87.3184V87.1184V71.8184L47.5 71.7184L62.4001 63.2184L62.7001 63.4184V63.6184V85.7184L62.4001 85.9184L62.2001 85.8184L56.5 82.5184L53.7001 84.1184V99.2184L53.6 99.3184L49.2001 101.818ZM48 87.0184L49.5 87.9184V88.1184V100.918L53.1 98.8184V83.6184L53.3 83.5184L56.5 81.7184L56.6 81.8184L62 84.9184V64.1184L48 72.2184V87.0184Z" fill="#2E2E35"/>
<path d="M62.4001 46.6184V60.0184L47.7001 68.4184L41.8 65.1184L38.7001 66.9184V88.7184L36 87.2184V87.1184V78.7184L21.3 70.2184L62.4001 46.6184Z" fill="#2E2E35"/>
<path d="M38.7 89.1184L38.5 89.0184L35.7 87.3184V87.1184V78.8184L21 70.3184V69.9184L21.2 69.8184L62.5 46.1184L62.8 46.3184V46.5184V60.1184L62.5 60.3184L47.7 68.8184L47.5 68.7184L41.8 65.5184L39 67.1184V88.9184L38.7 89.1184ZM36.3 87.0184L38.4 88.2184V66.7184L38.6 66.6184L41.8 64.7184L42 64.8184L47.7 68.0184L62.1 59.7184V47.2184L21.9 70.2184L36.3 78.5184V78.7184V87.0184Z" fill="#2E2E35"/>
<path d="M91.9 63.5184L103.5 70.2184L91.8 76.9184L91.9 63.5184Z" fill="#92C29C"/>
<path d="M91.8 77.3184L91.5 77.1184V76.9184V63.3184L91.8 63.1184L92 63.2184L103.8 70.0184V70.4184L103.6 70.5184L91.8 77.3184ZM92.2 64.1184V76.4184L102.9 70.3184L92.2 64.1184Z" fill="#2E2E35"/>
<path d="M62.3999 63.5184L77.0999 72.0184V102.318L72.8999 104.718H72.7999V91.4184L62.3999 85.4184V63.5184Z" fill="#92C29C"/>
<path d="M72.9 105.118L72.5999 104.918V104.718V91.6184L62.2 85.6184V85.4184V63.3184L62.5 63.1184L62.7 63.2184L77.5999 71.8184V72.0184V102.518L77.5 102.618L72.9 105.118ZM62.7 85.2184L73.0999 91.2184V91.4184V104.218L76.6999 102.218V72.2184L62.5999 64.1184L62.7 85.2184Z" fill="#2E2E35"/>
<path d="M77.0999 55.1184V68.4184L62.3999 60.0184V46.6184L77.0999 55.1184Z" fill="#92C29C"/>
<path d="M77.1 68.8184L76.9 68.7184L62 60.1184V59.9184V46.4184L62.3 46.2184L62.5 46.3184L77.4 54.9184V55.1184V68.7184L77.1 68.8184ZM62.7 59.8184L76.8 67.9184V55.3184L62.7 47.2184V59.8184Z" fill="#2E2E35"/>
<path d="M91.9001 46.6184V60.0184L77.1001 68.4184V55.1184L91.9001 46.6184Z" fill="#2E2E35"/>
<path d="M77.1 68.8184L76.8 68.6184V68.4184V54.8184L77 54.7184L91.9 46.2184L92.2 46.4184V46.6184V60.1184L92 60.2184L77.1 68.8184ZM77.4 55.2184V67.8184L91.5 59.7184V47.1184L77.4 55.2184Z" fill="#2E2E35"/>
<path d="M106.6 55.1184L106.5 68.4184L91.8999 60.0184V46.6184L106.6 55.0184V55.1184Z" fill="#92C29C"/>
<path d="M106.5 68.8184L106.3 68.7184L91.5 60.2184V60.0184V46.4184L91.8 46.2184L92 46.3184L106.9 54.9184V55.1184L106.8 68.6184L106.5 68.8184ZM92.2 59.8184L106.2 67.9184V55.3184L92.1 47.2184V59.8184H92.2Z" fill="#2E2E35"/>
<path d="M109.7 70.2184V83.6184L106.6 85.4184H106.5L99.1999 81.1184L91.7999 85.4184L87.5999 82.9184L109.7 70.2184Z" fill="#2E2E35"/>
<path d="M91.8 85.7184L91.6 85.6184L87.2 83.1184V82.7184L87.4 82.6184L109.7 69.8184L110 70.0184V70.2184V83.8184L109.8 83.9184L106.5 85.8184L106.3 85.7184L99.1 81.5184L91.8 85.7184ZM99.2 80.7184L99.4 80.8184L106.6 84.9184L109.4 83.3184V70.8184L88.2 82.9184L91.8 85.0184L99.2 80.7184Z" fill="#2E2E35"/>
<path d="M110.9 66.0184V82.9184L113.9 81.1184L121.3 85.4184V72.0184L110.9 66.0184Z" fill="#92C29C"/>
<path d="M121.3 85.7184L121.1 85.6184L113.9 81.5184L110.9 83.3184L110.6 83.1184V82.9184V65.8184L110.9 65.6184L111.1 65.7184L121.7 71.8184V72.0184L121.6 85.6184L121.3 85.7184ZM113.9 80.8184L114.1 80.9184L121 84.8184L121.1 72.1184L111.3 66.5184V82.3184L113.9 80.8184Z" fill="#2E2E35"/>
<path d="M106.6 55.0184L121.3 46.6184V59.9184L110.9 66.0184V82.9184L109.7 83.6184V70.2184L106.5 68.4184L106.6 55.1184V55.0184Z" fill="#2E2E35"/>
<path d="M109.7 83.9184L109.4 83.7184V83.5184V70.4184L106.3 68.6184V68.4184L106.4 54.9184L106.6 54.8184L121.5 46.2184L121.8 46.4184V46.6184V60.2184L121.6 60.3184L111.3 66.2184V83.1184L111.2 83.2184L109.7 83.9184ZM106.9 68.2184L110 70.0184V70.2184V83.0184L110.6 82.7184V65.7184L110.8 65.6184L121.1 59.7184V47.1184L107 55.2184L106.9 68.2184Z" fill="#2E2E35"/>
<path d="M128.7 50.8184V55.7184L121.3 59.9184V46.6184L128.7 50.8184Z" fill="#92C29C"/>
<path d="M121.3 60.3184L121 60.1184V59.9184V46.4184L121.3 46.2184L121.5 46.3184L129 50.6184V50.8184L128.9 55.9184L128.7 56.0184L121.3 60.3184ZM121.7 47.1184V59.4184L128.4 55.6184V51.0184L121.7 47.1184Z" fill="#2E2E35"/>
<path d="M84.5 33.9184V47.3184L77.1 51.5184L65.5 44.8184L84.5 33.9184Z" fill="#2E2E35"/>
<path d="M77.1 51.9184L77 51.8184L65.2 45.0184V44.6184L65.4 44.5184L84.6 33.5184L84.9 33.7184V33.9184V47.5184L84.7 47.6184L77.1 51.9184ZM66.1 44.8184L77.1 51.1184L84.2 47.0184V34.5184L66.1 44.8184Z" fill="#2E2E35"/>
<path d="M84.5 33.9184L99.3 42.3184V47.3184L91.9 43.0184L84.5 47.3184V33.9184Z" fill="#92C29C"/>
<path d="M99.3 47.7184L99.1 47.6184L91.9 43.4184L84.5 47.6184L84.2 47.4184V47.2184V33.7184L84.5 33.5184L84.7 33.6184L99.6 42.1184V42.3184V47.4184L99.3 47.7184ZM91.8 42.7184L92 42.8184L98.9 46.8184V42.6184L84.8 34.5184V46.8184L91.8 42.7184Z" fill="#2E2E35"/>
<path d="M114 33.9184V47.3184L106.6 51.5184L99.2998 47.3184V42.3184L114 33.9184Z" fill="#2E2E35"/>
<path d="M106.6 51.9184L106.4 51.8184L98.8999 47.5184V47.3184V42.2184L98.9999 42.1184L113.9 33.6184L114.2 33.8184V34.0184V47.6184L114 47.7184L106.6 51.9184ZM99.5999 47.1184L106.6 51.1184L113.7 47.0184V34.4184L99.5999 42.5184V47.1184Z" fill="#2E2E35"/>
<path d="M133 44.8184L128.7 47.2184L121.3 43.0184L114 47.3184V47.2184V33.9184L133 44.8184Z" fill="#92C29C"/>
<path d="M114 47.6184L113.7 47.4184V47.2184V33.7184L114 33.5184L114.2 33.6184L133.4 44.6184V45.0184L133.2 45.1184L128.8 47.7184L128.6 47.6184L121.4 43.5184L114 47.6184ZM121.3 42.6184L121.5 42.7184L128.7 46.8184L132.3 44.7184L114.3 34.4184V46.7184L121.3 42.6184Z" fill="#2E2E35"/>
<path d="M106.6 21.2184V34.6184L99.3001 38.8184L87.6001 32.1184L106.6 21.2184Z" fill="#2E2E35"/>
<path d="M99.3 39.2184L99.1 39.1184L87.3 32.3184V31.9184L87.5 31.8184L106.7 20.8184L107 21.0184V21.2184V34.8184L106.8 34.9184L99.3 39.2184ZM88.2 32.1184L99.2 38.4184L106.2 34.4184V21.8184L88.2 32.1184Z" fill="#2E2E35"/>
<path d="M114 25.4184V30.3184L106.6 34.5184V21.2184L114 25.4184Z" fill="#92C29C"/>
<path d="M106.6 34.9184L106.3 34.7184V34.5184V21.0184L106.6 20.8184L106.8 20.9184L114.3 25.2184V25.4184V30.5184L114.2 30.6184L106.6 34.9184ZM106.9 21.7184V33.9184L113.6 30.1184V25.6184L106.9 21.7184Z" fill="#2E2E35"/>
<path d="M121.3 21.2184V34.5184V34.6184L114 30.3184V25.4184L121.3 21.2184Z" fill="#2E2E35"/>
<path d="M121.3 34.9184L121.1 34.8184L113.6 30.5184V30.3184V25.2184L113.8 25.1184L121.3 20.8184L121.6 21.0184V21.2184V34.7184L121.3 34.9184ZM114.3 30.1184L121 34.0184V21.8184L114.3 25.6184V30.1184Z" fill="#2E2E35"/>
<path d="M136.1 29.7184V43.0184L121.3 34.6184V21.2184L136.1 29.6184V29.7184Z" fill="#92C29C"/>
<path d="M136.1 43.4184L135.9 43.3184L121 34.7184V34.5184V21.0184L121.3 20.8184L121.5 20.9184L136.4 29.5184V29.7184V43.2184L136.1 43.4184ZM121.7 34.4184L135.8 42.5184V29.8184L121.7 21.7184V34.4184Z" fill="#2E2E35"/>
<path d="M128.7 8.51836V21.9184L121.3 17.6184L114 21.9184L109.7 19.4184L128.7 8.51836Z" fill="#2E2E35"/>
<path d="M128.7 22.2184L128.5 22.1184L121.3 18.0184L114 22.2184L113.8 22.1184L109.3 19.6184V19.2184L109.5 19.1184L128.7 8.11836L129 8.31836V8.51836V22.1184L128.7 22.2184ZM110.4 19.4184L114 21.5184L121.4 17.3184L121.6 17.4184L128.5 21.3184V9.01836L110.4 19.4184Z" fill="#2E2E35"/>
<path d="M147.7 19.4184L136.1 26.1184L128.7 21.9184V8.51836L147.7 19.4184Z" fill="#92C29C"/>
<path d="M136.1 26.5184L135.9 26.4184L128.4 22.1184V21.9184V8.31836L128.7 8.11836L128.9 8.21836L148 19.2184V19.6184L147.8 19.7184L136.1 26.5184ZM129 21.7184L136 25.7184L147 19.4184L129 9.01836V21.7184Z" fill="#2E2E35"/>
<path d="M128.7 59.3184V64.2184L121.3 68.4184L117.1 66.0184L128.7 59.3184Z" fill="#2E2E35"/>
<path d="M121.4 68.8184L121.2 68.7184L116.8 66.2184V65.8184L116.9 65.7184L128.7 58.9184L129 59.1184V59.3184V64.4184L128.9 64.5184L121.4 68.8184ZM117.7 66.0184L121.3 68.1184L128.3 64.1184V59.9184L117.7 66.0184Z" fill="#2E2E35"/>
<path d="M133 61.7184L128.7 59.3184V64.2184L133 61.7184Z" fill="#92C29C"/>
<path d="M128.7 64.6184L128.4 64.4184V64.2184V59.1184L128.7 58.9184L128.9 59.0184L133.3 61.5184V61.9184L133.1 62.0184L128.7 64.6184ZM129 59.8184V63.6184L132.3 61.7184L129 59.8184Z" fill="#2E2E35"/>
<path d="M139.2 61.7184V78.7184L136.1 76.9184L121.3 85.4184V72.0183L139.2 61.7184Z" fill="#2E2E35"/>
<path d="M121.3 85.7184L121 85.5184V85.3184L121.1 71.7184L121.3 71.6184L139.3 61.3184L139.6 61.5184V61.7184V78.8184L139.3 79.0184L139.1 78.9184L136.2 77.2184L121.3 85.7184ZM121.7 72.2184L121.6 84.9184L136.1 76.6184L136.3 76.7184L138.9 78.2184V62.3184L121.7 72.2184Z" fill="#2E2E35"/>
<path d="M139.2 44.8184V61.7184L128.7 55.7184V50.8184L139.2 44.8184Z" fill="#2E2E35"/>
<path d="M139.2 62.1184L139 62.0184L128.3 55.9184V55.7184L128.4 50.6184L128.5 50.5184L139.1 44.4184L139.4 44.6184V44.8184V61.9184L139.2 62.1184ZM129 55.5184L138.9 61.1184V45.3184L129.1 50.9184L129 55.5184Z" fill="#2E2E35"/>
<path d="M155.1 74.4184V82.9184L162.4 78.7184L155.1 74.4184Z" fill="#92C29C"/>
<path d="M155.1 83.2184L154.8 83.0184V82.8184V74.2184L155.1 74.0184L155.3 74.1184L162.8 78.4184V78.8184L162.7 78.9184L155.1 83.2184ZM155.4 75.0184V82.3184L161.7 78.7184L155.4 75.0184Z" fill="#2E2E35"/>
<path d="M168.6 78.7184V83.6184L165.5 85.3184L161.3 82.9184L168.6 78.7184Z" fill="#2E2E35"/>
<path d="M165.5 85.7184L165.3 85.6184L160.9 83.0183V82.6184L161.1 82.5183L168.6 78.2184L168.9 78.4184V78.6184V83.7184L168.7 83.8184L165.5 85.7184ZM161.9 82.9184L165.5 85.0183L168.2 83.4184V79.2184L161.9 82.9184Z" fill="#2E2E35"/>
<path d="M176 66.0184V79.3184L168.6 83.6184V78.7184L161.3 74.4184L176 66.0184Z" fill="#2E2E35"/>
<path d="M168.6 84.0184L168.3 83.8184V83.6184V78.9184L161 74.7184V74.3184L161.1 74.2184L176 65.6184L176.3 65.8184V66.0184V79.5184L176.2 79.6184L168.6 84.0184ZM161.9 74.4184L168.9 78.5184V78.7184V83.0184L175.6 79.1184V66.5184L161.9 74.4184Z" fill="#2E2E35"/>
<path d="M191.9 70.2184V75.1184L202.4 81.1184L206.6 78.7184V78.6184L191.9 70.2184Z" fill="#92C29C"/>
<path d="M202.3 81.5184L202.1 81.4184L191.6 75.3184V75.1184V70.0184L191.9 69.8184L192.1 69.9184L207 78.4184V78.8184L206.8 78.9184L202.3 81.5184ZM192.2 74.9184L202.3 80.7184L205.9 78.6184L192.2 70.7184V74.9184Z" fill="#2E2E35"/>
<path d="M184.6 57.5184V74.4184L187.6 72.6184L191.9 75.1184V70.2184L199.3 65.9184L184.6 57.5184Z" fill="#92C29C"/>
<path d="M191.9 75.5184L191.7 75.4184L187.6 73.1184L184.5 74.9184L184.2 74.7184V74.5184V57.4184L184.5 57.2184L184.7 57.3184L199.6 65.9184V66.3184L199.4 66.4184L192.2 70.6184V75.3184L191.9 75.5184ZM187.6 72.3184L187.8 72.4184L191.6 74.6184V70.1184L191.8 70.0184L198.7 66.0184L185 58.1184V73.9184L187.6 72.3184Z" fill="#2E2E35"/>
<path d="M155.1 57.5184V74.4184L169.8 66.0184L155.1 57.5184Z" fill="#92C29C"/>
<path d="M155.1 74.8184L154.8 74.6184V74.4184V57.3184L155.1 57.1184L155.3 57.2184L170.2 65.8184V66.2184L170.1 66.3184L155.1 74.8184ZM155.4 58.0184V73.8184L169.1 65.9184L155.4 58.0184Z" fill="#2E2E35"/>
<path d="M147.7 44.8184V81.5184L152.6 84.3184L155.1 82.9184V57.5184L162.4 53.3184L147.7 44.8184Z" fill="#92C29C"/>
<path d="M152.6 84.7184L152.4 84.6184L147.4 81.7184V81.5184V44.6184L147.7 44.4184L147.9 44.5184L162.8 53.0184V53.4184L162.6 53.5184L155.4 57.6184V83.0184L155.3 83.1184L152.6 84.7184ZM148.1 81.4184L152.6 84.0184L154.8 82.7184V57.3184L155 57.2184L161.9 53.3184L148 45.4184L148.1 81.4184Z" fill="#2E2E35"/>
<path d="M149.3 37.2184V43.9184L155.1 40.6184V40.5184L149.3 37.2184Z" fill="#92C29C"/>
<path d="M149.3 44.3184L149 44.1184V43.9184V37.0184L149.3 36.8184L149.5 36.9184L155.5 40.3184V40.7184L155.3 40.8184L149.3 44.3184ZM149.6 37.8184V43.3184L154.4 40.5184L149.6 37.8184Z" fill="#2E2E35"/>
<path d="M161.3 40.6184L161.2 49.0184L153.9 44.8184L161.3 40.6184Z" fill="#2E2E35"/>
<path d="M161.2 49.4184L161 49.3184L153.5 45.0184V44.6184L153.7 44.5184L161.2 40.2184L161.5 40.4184V40.6184V49.3184L161.2 49.4184ZM154.5 44.8184L160.9 48.5184V41.2184L154.5 44.8184Z" fill="#2E2E35"/>
<path d="M168.6 53.3184V61.7184L161.3 57.5184L168.6 53.3184Z" fill="#2E2E35"/>
<path d="M168.6 62.1184L168.4 62.0184L160.9 57.7184V57.3184L161.1 57.2184L168.6 52.9184L168.9 53.1184V53.3184V62.0184L168.6 62.1184ZM161.9 57.5184L168.3 61.2184V53.8184L161.9 57.5184Z" fill="#2E2E35"/>
<path d="M185.2 40.9184L188.3 39.2184V55.3184L185.2 57.1184V40.9184Z" fill="#2E2E35"/>
<path d="M185.2 57.5184L184.9 57.3184V57.1184V40.7184L185.1 40.6184L188.3 38.7184L188.6 38.9184V39.1184V55.5184L188.5 55.6184L185.2 57.5184ZM185.5 41.1184V56.5184L187.9 55.1184V39.7184L185.5 41.1184Z" fill="#2E2E35"/>
<path d="M150.8 21.2184V36.3184L149.3 37.2184V43.9184L147.7 44.8184L147.8 59.7184L139.2 64.6184V44.8184L136.1 43.0184V29.7184V29.6184L150.8 21.2184Z" fill="#2E2E35"/>
<path d="M139.2 65.0184L138.9 64.8184V64.6184V45.0184L135.8 43.2184V43.0184V29.5184L135.9 29.4184L150.8 20.8184L151.1 21.0184V21.2184V36.5184L151 36.6184L149.6 37.4184V44.1184L149.4 44.2184L148 45.0184L148.1 59.9184L148 60.0184L139.2 65.0184ZM136.4 42.8184L139.5 44.6184V44.8184V64.1184L147.4 59.5184L147.3 44.6184L147.4 44.5184L148.8 43.7184V37.0184L149 36.9184L150.3 36.1184V21.7184L136.2 29.8184V42.8184H136.4Z" fill="#2E2E35"/>
<path d="M185.2 40.9184V57.1184L184.6 57.5184V73.7184H184.5L176 68.8184V66.0183L168.6 61.7184V53.3184L161.2 49.0184L161.3 40.6184V40.5184L152.4 35.4184L150.8 36.3184V21.2184L185.2 40.9184Z" fill="#92C29C"/>
<path d="M184.6 74.1184L184.4 74.0184L175.7 69.0184V68.8184V66.1184L168.4 61.9184V61.7184V53.4184L161 49.2184V49.0184V40.7184L152.4 35.8184L150.8 36.7184L150.5 36.5184V36.3184V21.0184L150.8 20.8184L151 20.9184L185.5 40.7184V40.9184V57.3184L184.9 57.6184V73.9184L184.6 74.1184ZM176.3 68.6184L184.2 73.2184V57.3184L184.3 57.2184L184.8 56.9184V41.1184L151.1 21.7184V35.7184L152.3 35.0184L152.5 35.1184L161.5 40.3184V40.5184V48.8184L168.9 53.0184V53.2184V61.5184L176.2 65.7184V65.9184V68.6184H176.3Z" fill="#2E2E35"/>
<path d="M176 79.3184V68.8184L184.6 73.7184V74.4184H184.5L176 79.3184Z" fill="#92C29C"/>
<path d="M176 79.7184L175.7 79.5184V79.3184V68.6184L176 68.4184L176.2 68.5184L184.8 73.4184L185 73.5184V73.7184V74.6184L184.8 74.7184L176 79.7184ZM176.3 69.4184V78.8184L184.2 74.2184V73.9184L176.3 69.4184Z" fill="#2E2E35"/>
<path d="M139.2 64.6184V78.7184L150.8 85.3184L152.6 84.3184L147.7 81.5183L147.8 59.7184L139.2 64.6184Z" fill="#92C29C"/>
<path d="M150.8 85.7184L150.6 85.6184L138.8 78.8184V78.6184V64.4184L139 64.3184L147.7 59.3184L148 59.5184V59.7184V81.4184L152.8 84.2184V84.6184L152.7 84.7184L150.8 85.7184ZM139.5 78.5184L150.8 85.0184L151.9 84.4184L147.4 81.8184V81.6184V60.3184L139.5 64.9184V78.5184Z" fill="#2E2E35"/>
<path d="M58.8997 133.318C60.4997 132.618 61.8997 131.718 63.2997 130.618L63.8997 130.118C63.9997 130.018 63.9997 129.918 63.7997 129.918L58.7997 129.718H58.6997L58.0997 130.218C58.0997 130.218 58.0997 130.218 58.0997 130.318L57.6997 132.118V132.218L58.6997 133.318C58.7997 133.318 58.7997 133.318 58.8997 133.318Z" fill="#2E2E35"/>
<path d="M58.7998 133.718C58.6998 133.718 58.4998 133.618 58.3998 133.518L57.3998 132.418C57.2998 132.318 57.2998 132.118 57.2998 132.018L57.6998 130.218C57.6998 130.118 57.7998 130.018 57.7998 130.018L58.3998 129.518C58.4998 129.418 58.5998 129.418 58.6998 129.418L63.6998 129.618C63.8998 129.618 64.0998 129.818 64.0998 130.018C64.1998 130.218 64.0998 130.418 63.8998 130.518L63.2998 131.018C61.9998 132.118 60.4998 133.018 58.8998 133.818C58.9998 133.618 58.8998 133.718 58.7998 133.718ZM58.0998 132.018L58.8998 132.918C60.3998 132.218 61.7998 131.318 62.9998 130.318L63.0998 130.218L58.9998 130.018L58.5998 130.418L58.0998 132.018Z" fill="#2E2E35"/>
<path d="M71.6999 123.818L66.1999 127.118L66.3999 130.418L66.0999 131.918L70.6999 129.018L71.5999 127.818L71.7999 126.518L71.6999 123.818Z" fill="#2E2E35"/>
<path d="M68.1 103.118L51.6 93.5184C50.7 93.0184 49.8001 92.9184 49.2001 93.2184L43.8 96.5184C43.8 96.5184 43.8 96.5184 43.8 96.6184C44 97.1184 46.3 101.818 46.5 102.718C46.6 103.118 47.3 106.718 48.1 110.818V112.918C48.1 114.118 48.5001 115.418 49.2001 116.518C50.0001 120.918 50.8 124.618 50.8 124.718L58.4001 127.318H58.9001C58.9001 127.318 58.9001 127.318 58.9001 127.218L58.5 126.018C58.4 125.418 58.3 124.818 58.3 124.218L65.4001 132.218H65.5L70.7 129.018C70.7 129.018 70.8001 129.018 70.8001 128.918C71.4001 128.518 71.8001 127.718 71.8001 126.618V109.318C71.7001 107.118 70.1 104.318 68.1 103.118Z" fill="#92C29C"/>
<path d="M65.4 132.718C65.3 132.718 65.2 132.718 65.1 132.618L58.7 125.518C58.7 125.718 58.8 125.918 58.8 126.118L59.2 127.218C59.3 127.418 59.2 127.618 59 127.718L58.9 127.818H58.2L50.4 125.218L50.3 125.018C50.3 124.918 49.6 121.218 48.7 116.918C48 115.718 47.6 114.318 47.6 113.118V111.018C46.4 104.718 46.1 103.118 46 102.918C45.8 102.218 44.3 98.8184 43.3 96.9184C43.2 96.7184 43.3 96.5184 43.5 96.3184L48.9 93.0184C49.7 92.6184 50.7 92.7184 51.7 93.3184L68.2 102.918C70.3 104.118 72 107.118 72 109.518V126.818C72 128.018 71.6 128.918 70.8 129.418C70.8 129.418 70.7 129.418 70.7 129.518L65.5 132.718C65.5 132.618 65.5 132.718 65.4 132.718ZM57.8 123.318L65.5 131.918L70.5 128.818C71 128.518 71.3 127.818 71.3 126.818V109.518C71.3 107.418 69.7 104.618 67.9 103.618L51.4 94.0184C50.6 93.5184 49.9 93.4184 49.3 93.7184L44.2 96.9184C44.9 98.4184 46.6 102.018 46.8 102.818C46.9 103.118 47.4 105.918 48.4 111.018V111.118V113.218C48.4 114.318 48.8 115.518 49.5 116.618L49.6 116.718C50.3 120.518 51 123.818 51.1 124.718L58.4 127.218L58.1 126.418C58 125.818 57.9 125.118 57.9 124.518L57.8 123.318Z" fill="#2E2E35"/>
<path d="M68.1 103.118L52.7001 94.2184L44.8 99.0184L61.4001 107.818L64.9001 108.418L70.3001 105.218C69.6001 104.318 68.9 103.618 68.1 103.118Z" fill="white"/>
<path d="M64.9 108.818L61.2 108.218L44 99.0184L52.7 93.8184L68.3 102.818C69.1 103.318 69.9 104.018 70.6 105.018L70.8 105.318L64.9 108.818ZM61.5 107.518L64.8 108.018L69.7 105.118C69.2 104.418 68.5 103.818 67.9 103.518L52.7 94.7184L45.5 99.0184L61.5 107.518Z" fill="#2E2E35"/>
<path d="M46.2999 96.8184L62.7999 106.418C64.7999 107.518 66.4 110.318 66.4 112.618V130.018C66.4 132.318 64.7999 133.218 62.7999 132.118L60.9 131.018C60.6 130.818 60.3 130.918 60.2 131.318C60 132.318 59.2999 134.218 56.5999 133.118C56.0999 132.918 55.6999 132.118 55.7999 131.618C55.9999 131.018 56.2 130.118 56.2 129.118C56.2 128.618 55.9 128.118 55.5 127.918L46.2999 122.618C44.2999 121.518 42.7 118.718 42.7 116.418V98.9184C42.7 96.6184 44.2999 95.7184 46.2999 96.8184Z" fill="white"/>
<path d="M58.0999 133.818C57.5999 133.818 57.0999 133.718 56.4999 133.418C55.7999 133.118 55.2999 132.118 55.4999 131.418C55.6999 130.918 55.8999 130.018 55.8999 129.018C55.8999 128.718 55.6999 128.318 55.3999 128.118L46.1999 122.818C44.0999 121.618 42.3999 118.718 42.3999 116.318V98.9184C42.3999 97.7184 42.7999 96.7184 43.5999 96.3184C44.3999 95.8184 45.3999 95.9184 46.4999 96.6184L62.9999 106.218C65.0999 107.418 66.7999 110.318 66.7999 112.718V130.118C66.7999 131.318 66.3999 132.318 65.5999 132.718C64.7999 133.218 63.7999 133.118 62.6999 132.418L60.7999 131.318C60.6999 131.318 60.6999 131.318 60.6999 131.318C60.5999 132.018 60.1999 133.018 59.2999 133.518C58.8999 133.718 58.4999 133.818 58.0999 133.818ZM44.6999 96.7184C44.3999 96.7184 44.1999 96.8184 43.9999 96.9184C43.3999 97.2184 43.0999 97.9184 43.0999 98.9184V116.318C43.0999 118.518 44.5999 121.118 46.4999 122.218L55.6999 127.518C56.1999 127.818 56.5999 128.518 56.5999 129.118C56.5999 130.218 56.3999 131.118 56.1999 131.718C56.0999 132.018 56.3999 132.618 56.7999 132.818C57.6999 133.218 58.3999 133.218 58.8999 132.918C59.4999 132.618 59.7999 131.818 59.8999 131.218C59.9999 130.918 60.0999 130.718 60.2999 130.618C60.4999 130.518 60.7999 130.518 61.0999 130.718L62.9999 131.818C63.7999 132.318 64.5999 132.418 65.0999 132.118C65.6999 131.818 65.9999 131.118 65.9999 130.118V112.718C65.9999 110.518 64.4999 107.918 62.5999 106.818L46.0999 97.2184C45.5999 96.9184 45.0999 96.7184 44.6999 96.7184Z" fill="#2E2E35"/>
<path d="M52.7998 116.518V115.818C52.7998 115.218 52.8998 114.718 53.1998 114.318C53.3998 114.018 53.8998 113.718 54.4998 113.518C55.0998 113.318 55.4998 113.218 55.6998 113.018C55.8998 112.818 55.9998 112.518 55.9998 112.118C55.9998 111.718 55.8998 111.218 55.5998 110.918C55.2998 110.518 54.8998 110.218 54.3998 109.918C53.4998 109.418 52.4998 109.218 51.3998 109.218L50.4998 106.418C51.7998 106.318 53.1998 106.718 54.5998 107.518C55.7998 108.218 56.6998 109.118 57.3998 110.118C58.0998 111.218 58.4998 112.318 58.4998 113.418C58.4998 114.118 58.3998 114.718 58.0998 115.118C57.7998 115.518 57.2998 115.818 56.3998 116.018C55.7998 116.218 55.4998 116.318 55.2998 116.518C55.1998 116.718 55.0998 116.918 55.0998 117.318V117.918L52.7998 116.518ZM52.5998 119.818C52.5998 119.218 52.6998 118.918 52.9998 118.718C53.2998 118.618 53.5998 118.618 54.0998 118.918C54.5998 119.218 54.9998 119.518 55.1998 120.018C55.4998 120.418 55.5998 120.918 55.5998 121.518C55.5998 122.018 55.4998 122.418 55.1998 122.518C54.8998 122.718 54.5998 122.618 54.0998 122.318C53.5998 122.018 53.1998 121.618 52.9998 121.218C52.6998 120.818 52.5998 120.318 52.5998 119.818Z" fill="#92C29C"/>
<path d="M54.8999 122.918C54.5999 122.918 54.2999 122.818 53.9999 122.618C53.4999 122.318 53.0999 121.918 52.7999 121.418C52.4999 120.918 52.3999 120.418 52.3999 119.818C52.3999 119.118 52.5999 118.718 52.8999 118.518C53.1999 118.318 53.6999 118.418 54.2999 118.718C54.7999 119.018 55.1999 119.418 55.4999 119.918C55.7999 120.418 55.8999 120.918 55.8999 121.518C55.8999 122.118 55.6999 122.518 55.3999 122.718C55.1999 122.918 54.9999 122.918 54.8999 122.918ZM53.1999 118.918C53.0999 118.918 53.0999 118.918 52.9999 118.918C52.7999 119.018 52.6999 119.318 52.6999 119.718C52.6999 120.218 52.7999 120.718 53.0999 121.118C53.2999 121.518 53.6999 121.918 54.0999 122.118C54.3999 122.318 54.6999 122.418 54.9999 122.318C55.1999 122.218 55.2999 121.818 55.2999 121.518C55.2999 121.018 55.1999 120.518 54.8999 120.118C54.6999 119.718 54.2999 119.418 53.8999 119.118C53.6999 119.018 53.3999 118.918 53.1999 118.918ZM55.3999 118.318L52.5999 116.718V115.818C52.5999 115.118 52.6999 114.618 52.9999 114.218C53.2999 113.818 53.7999 113.518 54.3999 113.318C55.0999 113.118 55.3999 113.018 55.4999 112.818C55.5999 112.618 55.6999 112.418 55.6999 112.118C55.6999 111.718 55.5999 111.418 55.2999 111.018C54.9999 110.618 54.6999 110.318 54.1999 110.118C53.3999 109.618 52.3999 109.418 51.3999 109.418H51.1999L50.0999 106.218H50.3999C51.6999 106.118 53.1999 106.518 54.6999 107.418C55.8999 108.118 56.8999 109.018 57.5999 110.118C58.2999 111.218 58.6999 112.418 58.6999 113.518C58.6999 114.318 58.4999 114.918 58.1999 115.318C57.8999 115.718 57.2999 116.018 56.3999 116.218C55.6999 116.418 55.4999 116.518 55.4999 116.618C55.3999 116.718 55.2999 116.918 55.2999 117.318V118.318H55.3999ZM53.0999 116.418L54.8999 117.418V117.218C54.8999 116.718 54.9999 116.418 55.1999 116.218C55.3999 116.018 55.7999 115.818 56.3999 115.718C57.1999 115.518 57.6999 115.318 57.8999 114.918C58.1999 114.618 58.2999 114.118 58.2999 113.418C58.2999 112.318 57.9999 111.318 57.2999 110.318C56.5999 109.318 55.6999 108.418 54.4999 107.718C53.1999 107.018 51.9999 106.618 50.8999 106.618L51.6999 108.918C52.7999 108.918 53.7999 109.218 54.5999 109.718C55.0999 110.018 55.4999 110.418 55.7999 110.818C56.0999 111.218 56.2999 111.718 56.2999 112.218C56.2999 112.718 56.1999 113.018 55.8999 113.318C55.6999 113.518 55.1999 113.718 54.5999 113.918C53.9999 114.118 53.5999 114.318 53.3999 114.618C53.1999 114.918 53.0999 115.318 53.0999 115.918V116.418Z" fill="#2E2E35"/>
</svg>
