<svg viewBox="0 0 41 37" fill="none" xmlns="http://www.w3.org/2000/svg" class="w-[52%] absolute left-[23%] top-[27%]"><path fill-rule="evenodd" clip-rule="evenodd" d="M3.02928 0.183749C1.46474 0.726586 0.410482 1.90484 0.0854434 3.47374C0.0136373 3.82073 -0.0130192 7.12181 0.00588803 13.3228L0.0344039 22.65L0.266146 23.2202C0.914053 24.8144 2.59555 26.0194 4.17229 26.0194H4.62059L4.6521 29.0858L4.68371 32.1524L5.06961 32.5071C5.37181 32.7849 5.54353 32.8619 5.86092 32.8619C6.22408 32.8619 6.62434 32.6066 9.71096 30.4062C11.6056 29.0556 13.737 27.5277 14.4473 27.0109L15.7387 26.0712L23.3381 26.0194L30.9375 25.9675L31.7163 25.5813C32.6683 25.109 33.343 24.4193 33.8003 23.4507L34.1294 22.7537L34.1572 13.1926C34.1849 3.71468 34.1833 3.62614 33.9681 2.98502C33.517 1.6413 32.5432 0.66376 31.2053 0.211534C30.5772 -0.000789659 30.4483 -0.00275909 17.0594 0.000662146C4.51304 0.00377236 3.51023 0.0168344 3.02928 0.183749ZM30.4075 2.49734C30.9461 2.64746 31.547 3.2581 31.6936 3.80446C31.7757 4.10988 31.801 6.85185 31.781 13.252L31.753 22.2694L31.4416 22.7138C31.2704 22.9584 30.9682 23.254 30.7701 23.3707C30.418 23.5783 30.2361 23.5842 22.6611 23.6349L14.9122 23.6867L11.0378 26.4698L7.16335 29.2531L7.11169 26.8327C7.04443 23.6812 7.01736 23.6354 5.22128 23.6343C3.70571 23.6334 3.07051 23.3698 2.64081 22.5635L2.41072 22.1316V13.1638C2.41072 8.23154 2.44647 4.02787 2.49007 3.82239C2.59648 3.32113 3.14335 2.71516 3.65053 2.53642C3.99665 2.4145 6.16922 2.39024 17.0302 2.38682C26.1848 2.38402 30.1174 2.41657 30.4075 2.49734ZM35.895 4.47709C35.4298 4.94383 35.3456 5.29072 35.574 5.79904C35.7793 6.25593 36.1725 6.49044 36.8845 6.58115C37.4883 6.65797 38.1087 7.09548 38.3738 7.63116C38.5647 8.01714 38.572 8.36849 38.572 17.1553C38.572 26.2067 38.5704 26.2818 38.3562 26.6933C38.2375 26.9213 37.9472 27.2449 37.7111 27.4122C37.3058 27.6996 37.2139 27.7188 36.0672 27.7559C33.9005 27.8261 33.9396 27.7688 33.8711 30.9793L33.8194 33.3992L29.945 30.6165L26.0705 27.8337L20.7929 27.8051L15.5152 27.7764L15.227 28.0039C14.5804 28.5143 14.5597 29.3755 15.1814 29.9005L15.4963 30.1663L20.3185 30.168L25.1407 30.1698L26.1222 30.8743C28.942 32.8986 34.0707 36.562 34.3763 36.7703C35.0193 37.2084 35.8751 36.9982 36.1941 36.3238C36.3224 36.0523 36.3507 35.4696 36.3507 33.0945V30.1964L37.0836 30.1347C38.8182 29.9888 40.2664 28.7954 40.7958 27.0755C40.9928 26.4359 41 26.082 41 17.1536C41 8.37616 40.9899 7.86235 40.8054 7.26737C40.5391 6.40885 40.1647 5.80132 39.581 5.28036C38.8449 4.62348 37.926 4.22506 37.011 4.16607C36.2584 4.11765 36.2512 4.11962 35.895 4.47709ZM8.41732 10.7239C7.62683 11.0066 7.01292 11.8693 7.01292 12.6973C7.01292 13.5763 7.7191 14.4922 8.57529 14.7236C10.6297 15.2787 12.076 12.7487 10.5689 11.2364C9.93775 10.6031 9.22775 10.4339 8.41732 10.7239ZM16.4113 10.7084C15.8441 10.8896 15.2216 11.5845 15.0743 12.2011C14.6008 14.1816 16.9246 15.6122 18.4426 14.2748C19.4309 13.4041 19.4315 11.9911 18.444 11.121C17.8637 10.6097 17.1644 10.4677 16.4113 10.7084ZM24.4235 10.7267C23.8409 10.9349 23.5293 11.1984 23.2592 11.7109C22.5652 13.0277 23.3867 14.6124 24.8535 14.7866C25.3058 14.8404 25.4805 14.8069 25.9502 14.5763C26.6787 14.2187 27.0709 13.6666 27.1334 12.9109C27.1954 12.1602 27.0223 11.7032 26.4894 11.2102C25.834 10.6041 25.1887 10.4531 24.4235 10.7267Z" fill="white"></path></svg>