<?xml version="1.0" encoding="utf-8"?>
<!-- Generator: Adobe Illustrator 22.1.0, SVG Export Plug-In . SVG Version: 6.00 Build 0)  -->
<svg version="1.1" id="Layer_1" xmlns="http://www.w3.org/2000/svg" xmlns:xlink="http://www.w3.org/1999/xlink" x="0px" y="0px"
	 viewBox="0 0 185 185" style="enable-background:new 0 0 185 185;" xml:space="preserve">
<style type="text/css">
	.st0{fill:#FFFFFF;}
	.st1{fill:#00BEF0;}
</style>
<circle class="st0" cx="92.5" cy="92.5" r="92.5"/>
<g>
	<g>
		<g>
			<path d="M68.8,105.4h-1.5V101h2.6v0.4h-2.1v1.4h1c0.9,0,1.5,0.4,1.5,1.3l0,0C70.3,105,69.7,105.4,68.8,105.4z M68.8,105
				c0.7,0,0.9-0.3,0.9-0.9l0,0c0-0.5-0.3-0.9-1-0.9h-0.9v1.7L68.8,105L68.8,105z"/>
			<path d="M70.8,104.5c0-0.8,0.8-1,1.7-1H73v-0.2c0-0.5-0.2-0.8-0.7-0.8c-0.4,0-0.7,0.2-0.8,0.6H71c0.1-0.8,0.7-1,1.3-1
				c0.6,0,1.2,0.3,1.2,1.2v2.1H73V105c-0.2,0.3-0.5,0.5-1,0.5C71.3,105.5,70.8,105.2,70.8,104.5z M72.9,104.3v-0.4h-0.4
				c-0.7,0-1.1,0.2-1.1,0.6c0,0.4,0.2,0.5,0.6,0.5C72.5,105.1,72.9,104.8,72.9,104.3z"/>
			<path d="M76.4,104h-1.6v1.5h-0.5v-3.3h0.5v1.4h1.6v-1.4H77v3.3h-0.5L76.4,104L76.4,104z"/>
			<path d="M78.4,103.8v1.7h-0.5v-3.3h0.5V103.8l1.3-1.6h0.6l-1.4,1.5l1.5,1.7h-0.6L78.4,103.8z"/>
		</g>
	</g>
	<g>
		<g>
			<path class="st1" d="M52.2,79.5c-5.4,0-9.7,4.3-9.7,9.7c0,5.4,4.3,9.7,9.7,9.7s9.7-4.3,9.7-9.7C61.9,83.9,57.5,79.5,52.2,79.5z
				 M50.8,93.4l-0.7,2.1c-2.7-0.9-4.5-3.4-4.5-6.3s1.8-5.4,4.5-6.3l0.7,2.1c-1.8,0.6-3,2.3-3,4.2C47.9,91.1,49,92.8,50.8,93.4z
				 M54.1,95.5l-0.7-2.1c1.8-0.6,3-2.3,3-4.2s-1.2-3.6-3-4.2l0.7-2.1c2.7,0.9,4.6,3.4,4.6,6.3C58.8,92.1,56.9,94.6,54.1,95.5z"/>
		</g>
		<path d="M141,91l1.1,1.3c-1.1,1.2-2.5,1.5-3.6,1.5c-1.1,0-1.8-0.2-2.5-0.5c-1.4-0.7-2.1-2.1-2.1-3.9c0-2.6,1.8-4.6,4.4-4.6
			c3,0,4.4,2.2,4.2,5.1h-6.7c0,0.7,0.4,1.4,1,1.7c0.5,0.3,1.1,0.4,1.8,0.4C139.4,92,140.2,91.7,141,91z M135.8,88.2h4.7
			c-0.1-1-1-1.9-2.3-1.9C136.7,86.4,135.9,87.3,135.8,88.2z M90.6,93.5H93l-3.8-4.4l3.8-4.2h-2.4l-2.9,3.3h-0.8v-3.3h-1.8v8.5h1.8
			V90h0.9L90.6,93.5z M98.6,86.5c-1.6,0-2.6,1.2-2.6,2.7s1,2.7,2.6,2.7c1.6,0,2.6-1.2,2.6-2.7C101.1,87.7,100.2,86.5,98.6,86.5z
			 M98.9,84.8c2.4,0,4.2,1.9,4.2,4.5c0,2.6-1.7,4.5-4.2,4.5c-1.2,0-2.1-0.4-2.8-1.1v4.5h-1.9V84.9H96v1
			C96.8,85.1,97.7,84.8,98.9,84.8z M123.2,84.9h-7.7v1.7h2.9v6.8h1.9v-6.8h2.9L123.2,84.9L123.2,84.9z M83.9,84.9h-7.7v1.7h2.9v6.8
			H81v-6.8h2.9V84.9L83.9,84.9z M74,89.2c0-1.6-1.1-2.8-2.7-2.8c-1.5,0-2.7,1.2-2.7,2.8c0,1.6,1.1,2.8,2.7,2.8
			C72.8,92,74,90.8,74,89.2z M66.7,89.2c0-2.6,2-4.5,4.6-4.5s4.6,1.9,4.6,4.5s-2,4.5-4.6,4.5S66.7,91.8,66.7,89.2z M132.3,84.9v8.5
			h-1.8V88l-4.5,5.5h-1.5V85h1.8v5.5l4.5-5.5L132.3,84.9L132.3,84.9z M114.3,93.5h-1.8v-8.6h1.8V93.5z M109.5,90.6
			c0-0.8-0.5-1.3-1.3-1.3h-1.9v2.6h1.9C109,91.9,109.5,91.4,109.5,90.6z M111.4,90.6c0,1.7-1.3,2.9-3,2.9h-3.8V85h1.8v2.8h2.1
			C110.3,87.7,111.4,88.9,111.4,90.6z"/>
	</g>
</g>
</svg>
