<svg width="120" height="121" viewBox="0 0 120 121" fill="none" xmlns="http://www.w3.org/2000/svg">
<path d="M22.7 29.4454C24.7 29.5454 26.6 29.6454 28.6 29.6454C29.2 29.6454 30.1 29.8454 30.7 29.6454C31.4 29.4454 30.9 29.3454 30.9 29.5454C30.9 31.9454 30.7 34.4454 33 36.0454C38.1 39.7454 45.6 35.1454 42.8 29.0454C42.7 29.2454 42.6 29.4454 42.4 29.7454C46 29.6454 49.7 29.5454 53.3 29.5454C53.1 29.3454 53 29.2454 52.8 29.0454C52.7 32.6454 52.6 36.1454 52.5 39.7454C52.5 40.2454 53 40.3454 53.4 40.1454C57 37.3454 62.7 39.3454 62.4 44.3454C62.2 48.8454 57.5 49.7454 54 48.2454C53.7 48.1454 53.4 48.3454 53.3 48.6454C52.8 50.4454 53.2 52.9454 53.2 54.8454C53.2 56.9454 53.2 59.0454 53.2 61.2454C53.4 61.0454 53.6 60.8454 53.8 60.6454C50.5 60.8454 47.2 61.0454 43.9 61.2454C44.1 61.5454 44.2 61.8454 44.4 62.0454C47.1 56.7454 44.2 50.5454 37.7 51.2454C35.4 51.5454 33.3 52.9454 32.6 55.2454C31.8 57.8454 33.2 60.7454 34.5 62.8454C34.6 62.6454 34.8 62.3454 34.9 62.1454C32.6 62.2454 30.3 62.3454 28 62.4454C26.5 62.5454 24.7 62.9454 23.2 62.6454C23.8 62.7454 23.4 63.1454 23.6 62.2454C23.7 61.5454 23.6 60.8454 23.6 60.1454C23.6 58.2454 23.7 56.3454 23.6 54.5454C23.6 53.5454 23.9 51.7454 23.4 50.8454C22.8 49.6454 21.2 50.6454 20.3 50.9454C17.9 51.5454 15.2 51.2454 13.8 48.9454C12.3 46.5454 13.4 43.0454 16.3 42.2454C18.2 41.7454 20.5 42.4454 22.3 42.9454C22.6 43.0454 22.9 42.7454 22.9 42.4454C23 38.1454 23 33.8454 23.1 29.5454C23.1 28.9454 22.1 28.9454 22.1 29.5454C22.1 33.8454 22 38.1454 22 42.4454C22.2 42.2454 22.4 42.1454 22.6 41.9454C19.5 41.1454 15.6 40.1454 13.4 43.2454C11.1 46.3454 13 50.9454 16.7 51.8454C17.7 52.0454 18.8 52.0454 19.8 51.8454C20.5 51.7454 21.6 51.1454 22.3 51.1454C23.4 51.2454 22.4 50.6454 22.8 51.2454C23.3 52.0454 22.9 54.4454 22.9 55.3454C22.9 57.9454 22.9 60.4454 22.8 63.0454C22.8 63.2454 23 63.4454 23.2 63.4454C27.1 63.3454 31 63.3454 34.9 63.1454C35.3 63.1454 35.5 62.7454 35.3 62.4454C33.3 58.9454 31.9 53.4454 37.4 52.3454C43.2 51.2454 45.9 56.8454 43.4 61.5454C43.2 61.8454 43.4 62.3454 43.9 62.3454C47.2 62.1454 50.5 62.0454 53.8 61.8454C54.1 61.8454 54.4 61.6454 54.4 61.2454C54.4 59.2454 54.4 57.3454 54.4 55.3454C54.4 53.4454 54 50.6454 54.4 48.9454C54.2 49.0454 53.9 49.2454 53.7 49.3454C58.3 51.2454 64.1 49.0454 63.5 43.3454C62.9 37.9454 56.6 36.3454 52.6 39.4454C52.9 39.5454 53.2 39.6454 53.5 39.8454C53.6 36.2454 53.7 32.7454 53.8 29.1454C53.8 28.8454 53.6 28.6454 53.3 28.6454C49.7 28.7454 46 28.8454 42.4 28.9454C42.1 28.9454 41.9 29.3454 42 29.6454C43.8 33.5454 40.7 37.0454 36.5 36.6454C32.7 36.2454 30.8 33.1454 31.4 29.6454C31.4 29.4454 31.3 29.2454 31.1 29.2454C28.3 29.2454 25.4 29.1454 22.6 29.2454C22.5 29.1454 22.5 29.4454 22.7 29.4454Z" fill="white"/>
<path d="M23 62.2454C22.8 65.6454 22.7 69.0454 22.6 72.4454C22.6 72.6454 22.8 72.7454 23 72.7454C24.7 72.2454 26.5 71.7454 28.3 71.8454C31.2 71.9454 32.9 74.2454 32.9 77.0454C32.9 79.2454 31.8 81.8454 29.6 82.5454C27.8 83.1454 25.1 82.8454 23.6 81.8454C23.3 81.6454 22.9 81.8454 22.9 82.2454C23 86.5454 22.8 90.8454 22.5 95.1454C22.5 95.3454 22.7 95.5454 22.9 95.5454C27 95.5454 31.2 95.5454 35.3 95.5454C35.2 95.3454 35 95.1454 34.9 95.0454C34.5 97.4454 34 100.245 35.7 102.345C36.9 103.945 39.4 105.245 41.5 105.145C43.8 104.945 46 103.045 46.8 100.945C47.7 98.2454 46.3 95.7454 44.6 93.7454C44.5 94.0454 44.4 94.3454 44.3 94.5454C48.3 94.3454 52.3 94.3454 56.3 94.3454C56.6 94.3454 56.8 94.1454 56.8 93.8454C56.5 90.0454 56.3 86.3454 56 82.5454C56 82.2454 55.8 82.0454 55.5 82.0454C52.6 82.1454 49.9 81.9454 48.9 78.7454C48.4 77.0454 48.4 74.8454 49.6 73.4454C50.9 72.0454 52.8 71.9454 54.6 72.0454C54.9 72.0454 55.2 71.7454 55.1 71.5454C54.8 67.9454 54.6 64.4454 54.6 60.8454C54.6 60.1454 53.6 60.1454 53.6 60.8454C53.4 64.3454 53.7 68.0454 54.1 71.5454C54.3 71.3454 54.5 71.1454 54.6 71.0454C50.2 70.7454 47 73.3454 47.7 77.9454C48.4 82.2454 51.6 83.2454 55.5 83.1454C55.3 82.9454 55.2 82.8454 55 82.6454C55.3 86.4454 55.5 90.1454 55.8 93.9454C56 93.7454 56.1 93.6454 56.3 93.4454C52.3 93.4454 48.3 93.5454 44.3 93.6454C43.8 93.6454 43.7 94.1454 44 94.4454C45.4 96.1454 46.7 98.3454 46 100.645C45.3 102.745 42.9 104.545 40.6 104.245C38.9 104.045 37 102.945 36.2 101.445C35 99.5454 35.5 97.3454 36 95.3454C36.1 95.0454 35.9 94.8454 35.6 94.8454C33.2 94.7454 30.7 94.8454 28.3 94.8454C27.2 94.8454 26 94.8454 24.9 94.8454C24.5 94.8454 23.1 94.6454 23.4 95.0454C23.8 95.5454 23.7 94.1454 23.7 93.7454C23.8 92.6454 23.8 91.5454 23.9 90.4454C24 87.7454 24.1 85.0454 24 82.3454C23.8 82.4454 23.6 82.6454 23.3 82.7454C25.4 83.9454 29.2 84.3454 31.3 82.9454C33.6 81.3454 34.4 77.5454 33.6 75.0454C32.7 72.2454 30.1 70.9454 27.3 71.3454C26.4 71.4454 25.5 71.6454 24.7 71.9454C23.3 72.3454 23.4 72.2454 23.5 70.6454C23.6 67.9454 23.7 65.2454 23.7 62.5454C23.5 61.9454 23.1 61.9454 23 62.2454Z" fill="white"/>
<path d="M53 29.0454C57.3 29.0454 61.5 29.2454 65.8 29.2454C66 29.2454 66.2 28.8454 66 28.7454C60.7 24.4454 65.6 15.4454 72 16.9454C77 18.1454 78.5 24.8454 74.8 28.2454C74.5 28.5454 74.6999 28.9454 75.0999 28.9454C80.2999 28.9454 85.4999 29.1454 90.6999 29.3454C90.4999 29.1454 90.3999 29.0454 90.1999 28.8454C90.2999 32.2454 90.3999 35.6454 90.6999 39.0454C90.9999 39.0454 91.2999 38.9454 91.5 38.9454C89.4 33.6454 81 36.1454 79.9 41.0454C78.4 47.9454 86.2999 51.5454 91.5999 48.2454C91.2999 48.1454 91.1 47.9454 90.8 47.8454C90.8 50.2454 91.2 52.6454 91.5 55.0454C91.5999 56.1454 91.6 57.4454 91.8 58.5454C91.9 59.1454 92.0999 58.8454 92 58.8454C91.9 58.9454 91.5 58.8454 91.3 58.8454C87 58.7454 82.5999 58.9454 78.1999 59.1454C77.7999 59.1454 77.6 59.6454 78 59.9454C80.4 61.5454 80.6999 65.9454 79.1999 68.2454C77.8999 70.2454 75.4999 71.0454 73.1999 70.9454C70.4999 70.7454 68.4999 69.6454 68.0999 66.8454C67.7999 64.9454 67.8999 62.5454 69.0999 60.8454C69.2999 60.5454 68.9999 60.1454 68.6999 60.1454C63.5999 60.3454 58.5 60.7454 53.4 60.6454C52.8 60.6454 52.8 61.6454 53.4 61.6454C58.5 61.7454 63.5999 61.3454 68.6999 61.1454C68.5999 60.9454 68.4 60.6454 68.3 60.4454C66.8 62.5454 66.7999 65.9454 67.5999 68.3454C68.5999 71.2454 71.7999 72.1454 74.6999 71.9454C77.1999 71.7454 79.5999 70.3454 80.5999 68.0454C81.7999 65.3454 81.1999 61.0454 78.5999 59.3454C78.4999 59.6454 78.5 59.8454 78.4 60.1454C83 59.9454 87.7 60.0454 92.3 59.9454C92.5 59.9454 92.6999 59.7454 92.6999 59.5454C92.5999 55.4454 92 51.6454 92 47.8454C92 47.4454 91.5999 47.2454 91.1999 47.4454C86.8999 50.1454 80.6999 48.1454 80.6999 42.4454C80.6999 39.5454 83.1 37.4454 85.9 37.0454C88 36.8454 89.9999 37.0454 90.6999 39.2454C90.7999 39.6454 91.5 39.6454 91.5 39.1454C91.5 35.7454 91.2999 32.3454 91.0999 28.9454C91.0999 28.6454 90.8999 28.4454 90.5999 28.4454C85.3999 28.2454 80.2 28.0454 75 28.0454C75.1 28.2454 75.2 28.5454 75.3 28.7454C77.5 26.6454 77.9999 23.6454 77.0999 20.7454C76.1999 17.7454 74.1 16.1454 70.9 15.7454C64.1 14.9454 59.9 24.6454 65.3 29.0454C65.4 28.8454 65.4 28.6454 65.5 28.5454C61.2 28.6454 57 28.3454 52.7 28.5454C52.7 28.6454 52.7 29.0454 53 29.0454Z" fill="white"/>
<path d="M61.5 101.245C61.6 97.3454 61.2 89.0454 61.2 89.0454C61.2 89.0454 57 90.8454 55.2 89.1454C51.4 85.6454 52 83.1454 53.2 80.3454C54.3 77.7454 58.9 77.0454 60.8 78.4454L60.3 67.4454C60.3 67.4454 68.3 67.7454 71.1 67.4454C70.4 68.9454 70.2 70.5454 70.5 71.9454C71.4 76.6454 74.7 78.6454 78 78.6454C81.4 78.5454 84.7 75.7454 84.6 72.4454C84.6 71.1454 84.2 68.5454 83.5 67.4454C88 67.5454 92.7 67.9454 97.2 67.4454L97.3 77.4454C97.3 77.4454 99.2 76.5454 100 76.5454C102 76.3454 104.8 76.9454 106.1 78.5454C107.5 80.2454 108 84.6454 106.3 86.8454C104.5 89.2454 100.5 89.1454 98 88.6454C98.3 92.7454 98.4 100.745 98.4 100.745H85.9C85.9 100.745 89.3 96.1454 88 91.6454C87.4 89.5454 85.5 87.8454 83.6 87.2454C78.6 85.6454 73.6 89.8454 74.2 95.2454C74.5 97.5454 75.8 99.7454 77.8 101.045C72.6 101.545 66.7 101.145 61.5 101.245Z" fill="#8C9EFB"/>
<path d="M58.8999 98.4454C59.0999 94.3454 58.8999 90.3454 58.6999 86.2454C58.6999 86.0454 58.4999 85.8454 58.2999 85.9454C57.2999 86.3454 56.1999 86.6454 55.0999 86.7454C52.4999 86.8454 50.1999 84.1454 49.8999 81.6454C49.6999 79.9454 50.3999 77.5454 51.7999 76.4454C53.3999 75.2454 55.9999 74.9454 57.6999 76.0454C57.9999 76.2454 58.3999 76.0454 58.2999 75.6454C58.1999 74.1454 58.1999 72.7454 58.0999 71.2454C57.9999 69.3454 58.2999 67.0454 57.7999 65.2454C57.7999 65.0454 57.7999 64.8454 57.7999 64.6454C57.7999 64.8454 57.0999 64.8454 57.5999 65.0454C58.3999 65.3454 59.5999 65.1454 60.3999 65.1454C62.8999 65.2454 65.4999 65.3454 68.0999 65.0454C67.9999 64.8454 67.7999 64.6454 67.6999 64.4454C65.5999 69.8454 69.0999 76.5454 75.3999 76.1454C81.4999 75.7454 83.5999 69.1454 80.9999 64.3454C80.8999 64.5454 80.6999 64.8454 80.5999 65.0454C85.1999 65.2454 89.7999 65.4454 94.2999 65.0454C94.0999 64.8454 93.9999 64.7454 93.7999 64.5454C93.7999 67.8454 93.8999 71.2454 93.8999 74.5454C93.8999 74.9454 94.2999 75.0454 94.5999 74.9454C98.4999 73.2454 103.4 74.2454 104 79.0454C104.3 81.4454 103.6 84.1454 101.1 85.0454C99.2999 85.7454 97.0999 85.5454 95.2999 85.2454C94.9999 85.1454 94.5999 85.3454 94.6999 85.7454C94.8999 89.7454 94.9999 93.7454 95.0999 97.8454C95.2999 97.6454 95.4999 97.4454 95.5999 97.3454C91.3999 97.3454 87.2999 97.3454 83.0999 97.3454C83.2999 97.6454 83.3999 97.8454 83.5999 98.1454C85.1999 95.8454 86.2999 92.8454 85.9999 89.9454C85.4999 86.1454 82.1999 83.3454 78.3999 83.4454C75.0999 83.5454 72.1999 85.7454 71.1999 88.8454C69.9999 92.5454 71.4999 96.3454 74.6999 98.5454C74.7999 98.2454 74.8999 97.8454 74.9999 97.5454C69.5999 98.0454 64.0999 97.7454 58.6999 97.7454C57.9999 97.7454 57.9999 98.9454 58.6999 98.8454C64.0999 98.7454 69.5999 99.1454 74.9999 98.5454C75.5999 98.4454 75.7999 97.8454 75.2999 97.5454C72.3999 95.5454 70.9999 91.7454 72.5999 88.4454C73.8999 85.6454 77.0999 83.9454 80.0999 84.6454C86.3999 86.0454 85.6999 93.4454 82.7999 97.5454C82.5999 97.8454 82.8999 98.3454 83.2999 98.3454C87.4999 98.3454 91.5999 98.3454 95.7999 98.3454C96.0999 98.3454 96.2999 98.1454 96.2999 97.8454C96.1999 93.8454 96.0999 89.8454 95.8999 85.7454C95.6999 85.9454 95.4999 86.0454 95.2999 86.2454C97.6999 86.6454 100.6 86.8454 102.8 85.4454C105 84.0454 105.5 81.3454 105.2 78.8454C104.5 73.3454 98.8999 72.0454 94.3999 74.0454C94.5999 74.1454 94.8999 74.3454 95.0999 74.4454C95.0999 71.1454 94.9999 67.7454 94.9999 64.4454C94.9999 64.2454 94.7999 63.9454 94.4999 63.9454C89.8999 64.3454 85.3999 64.1454 80.7999 63.9454C80.3999 63.9454 80.1999 64.3454 80.3999 64.6454C82.8999 69.1454 80.6999 75.2454 74.9999 75.1454C69.5999 75.0454 66.9999 69.1454 68.7999 64.5454C68.8999 64.2454 68.5999 63.9454 68.3999 63.9454C64.8999 64.3454 61.1999 64.1454 57.5999 63.9454C57.3999 63.9454 57.1999 64.1454 57.1999 64.3454C57.3999 68.0454 57.4999 71.7454 57.6999 75.4454C57.8999 75.3454 58.0999 75.2454 58.2999 75.0454C55.7999 73.4454 51.6999 74.2454 50.1999 76.9454C48.2999 80.2454 49.2999 84.0454 52.1999 86.3454C53.2999 87.2454 54.5999 87.2454 55.9999 87.0454C56.5999 86.9454 57.6999 86.8454 58.1999 86.4454C58.5999 86.1454 58.2999 85.8454 58.1999 86.4454C57.8999 88.0454 58.2999 90.0454 58.3999 91.7454C58.4999 93.8454 58.4999 96.0454 58.4999 98.1454C58.3999 98.7454 58.8999 98.7454 58.8999 98.4454Z" fill="white"/>
</svg>
