<svg viewBox="0 0 662 415" fill="none" xmlns="http://www.w3.org/2000/svg">
<path d="M657.8 366.811L581.638 410.486L506.285 99.1654L582.447 55.4902L657.8 366.811Z" fill="#92C29C"/>
<path d="M499.208 7.43408L422.979 51.1093L506.285 99.1655L582.447 55.4903L499.208 7.43408Z" fill="#92C29C"/>
<path d="M498.601 27.7886L422.439 71.4638L505.678 119.52L581.908 75.8448L498.601 27.7886Z" fill="white"/>
<path d="M445.22 80.563L479.123 91.01L510.059 270.294L419.743 225.675L445.22 80.563Z" fill="#92C29C"/>
<path d="M414.958 314.306L477.168 277.371L418.463 253.916L414.958 314.306Z" fill="#92C29C"/>
<path d="M411.857 315.856L415.767 249.737L483.773 276.899L414.958 317.676L411.857 315.856ZM421.091 258.094L418.126 308.981L470.63 277.91L421.091 258.094Z" fill="#2E2E35"/>
<path d="M439.289 219.205L510.059 174.519L502.915 270.294L432.01 258.095L439.289 219.205Z" fill="#92C29C"/>
<path d="M439.289 229.854L510.126 185.101L502.982 280.876L432.01 268.744L439.289 229.854Z" fill="white"/>
<path d="M428.572 260.521L436.593 217.452L513.361 168.992L505.543 273.664L428.572 260.521ZM441.917 221.025L435.447 255.803L500.286 266.924L506.824 180.113L441.917 221.025Z" fill="#2E2E35"/>
<path d="M343.177 276.225L414.958 317.676L417.452 316.193L428.168 275.282L498.803 316.059L510.464 372.809L581.638 413.856L661.17 368.226L585.008 53.603L499.208 4.06396L420.619 49.1546L343.177 276.225ZM509.587 100.648L580.56 59.9386L654.497 365.328L583.525 406.038L515.249 123.901L509.587 100.648ZM442.659 217.789L452.028 181.933C454.319 173.508 457.218 162.454 460.52 148.974C461.801 143.784 462.879 139.134 463.823 135.022C464.699 140.279 465.777 146.345 466.991 153.288C469.619 168.385 475.483 198.176 484.312 241.851L442.659 217.789ZM428.842 51.1092L499.208 10.804L576.65 55.4902L506.285 95.8628L460.453 69.3746L428.842 51.1092Z" fill="#2E2E35"/>
<path d="M350.119 273.192L412.734 309.521L424.394 266.654L504.196 311.812L516.125 368.765L577.122 404.285L502.713 101.322L425.068 56.1641L350.119 273.192ZM435.852 220.822L461.868 114.937L467.26 118.913L492.064 251.557L492.266 252.905L435.852 220.822Z" fill="#92C29C"/>
<path d="M115.904 265.508L115.769 258.701L155.67 151.535L177.508 136.235L248.615 86.4939L294.514 54.3442L215.454 10.3994L215.252 10.4668C194.695 -0.65424 165.511 4.60296 127.362 26.5754C87.4615 49.6262 57.0641 79.8888 36.1701 117.431C15.2761 154.972 4.8291 197.906 4.8291 246.165C4.8291 294.962 15.3435 324.753 36.3723 338.166C37.3159 338.772 38.3269 339.311 39.2705 339.851L109.299 380.897L116.915 330.886L115.904 265.508Z" fill="#F25A22"/>
<path d="M115.904 265.508L115.769 258.701L155.67 151.535L177.508 136.235L248.615 86.4939L294.514 54.3442L215.454 10.3994L215.252 10.4668C194.695 -0.65424 165.511 4.60296 127.362 26.5754C87.4615 49.6262 57.0641 79.8888 36.1701 117.431C15.2761 154.972 4.8291 197.906 4.8291 246.165C4.8291 294.962 15.3435 324.753 36.3723 338.166C37.3159 338.772 38.3269 339.311 39.2705 339.851L109.299 380.897L116.915 330.886L115.904 265.508Z" stroke="#2E2E35" stroke-width="9" stroke-miterlimit="10" stroke-linecap="round" stroke-linejoin="round"/>
<path d="M253.804 410.216L129.047 360.273L208.04 349.691L253.804 410.216Z" fill="#F25A22"/>
<path d="M253.804 410.216L129.047 360.273L208.04 349.691L253.804 410.216Z" stroke="#2E2E35" stroke-width="9" stroke-miterlimit="10" stroke-linecap="round" stroke-linejoin="round"/>
<path d="M311.769 107.186L264.926 112.443L261.623 115.206L190.179 138.324C190.314 141.694 190.381 145.199 190.381 148.906C190.381 177.753 186.203 201.411 177.912 219.811C169.622 238.211 156.884 252.433 139.697 262.34C126.351 270.024 115.702 271.776 107.682 267.732L107.614 267.8L139.697 327.651L139.899 327.718V327.921L140.101 327.988L150.615 337.222L148.324 348.41L160.928 346.253L184.45 366.878L245.245 331.762L252.592 330.482L254.748 326.236L254.209 314.71L261.623 312.486L292.358 251.422L311.769 107.186Z" fill="#F25A22"/>
<path d="M311.769 107.186L264.926 112.443L261.623 115.206L190.179 138.324C190.314 141.694 190.381 145.199 190.381 148.906C190.381 177.753 186.203 201.411 177.912 219.811C169.622 238.211 156.884 252.433 139.697 262.34C126.351 270.024 115.702 271.776 107.682 267.732L107.614 267.8L139.697 327.651L139.899 327.718V327.921L140.101 327.988L150.615 337.222L148.324 348.41L160.928 346.253L184.45 366.878L245.245 331.762L252.592 330.482L254.748 326.236L254.209 314.71L261.623 312.486L292.358 251.422L311.769 107.186Z" stroke="#2E2E35" stroke-width="9" stroke-miterlimit="10" stroke-linecap="round" stroke-linejoin="round"/>
<path d="M225.159 33.3154C204.602 22.1944 175.418 27.4516 137.27 49.424C103.502 68.9026 76.6096 93.7058 56.457 123.564L142.055 174.047L158.298 153.49L180.406 124.508L258.455 109.275L304.354 77.1254L225.294 33.1806L225.159 33.3154Z" fill="white"/>
<path d="M40.349 148.435C31.1152 167.037 24.3078 186.92 19.9268 208.016L101.279 259.105L127.295 206.938L40.349 148.435Z" fill="white"/>
<path d="M208.04 349.691L284.134 262.408L203.456 211.184C201.434 220.418 198.806 228.775 195.436 236.257C187.146 254.657 174.407 268.811 157.22 278.786C143.875 286.47 133.226 288.222 125.205 284.178L125.138 284.246L151.761 333.92L208.04 349.691Z" fill="white"/>
<path d="M268.565 319.159C303.613 275.484 328.147 214.621 328.147 149.85C328.147 100.041 317.296 67.8242 295.795 53.8724C274.227 39.9206 245.919 47.4694 205.075 71.0594C164.972 94.245 137.27 122.418 116.241 160.23C95.2127 197.974 84.5635 241.784 84.5635 290.312C84.5635 339.985 88.9445 369.17 111.726 382.447C133.428 395.119 155.401 398.017 194.695 375.775L253.737 410.284L338.527 360.071L268.565 319.159ZM253.872 191.031C253.872 219.272 249.761 242.592 241.74 260.521C233.787 278.18 221.385 291.997 204.872 301.5C192.134 308.847 182.091 310.532 175.014 306.42C164.365 300.287 158.973 281.145 158.973 249.467C158.973 194.401 175.553 156.927 208.377 137.988C216.6 133.27 223.542 130.911 229.339 130.911C234.461 130.911 238.707 132.73 242.145 136.37C249.896 144.66 253.872 163.06 253.872 191.031Z" fill="#F25A22"/>
<path d="M268.565 319.159C303.613 275.484 328.147 214.621 328.147 149.85C328.147 100.041 317.296 67.8242 295.795 53.8724C274.227 39.9206 245.919 47.4694 205.075 71.0594C164.972 94.245 137.27 122.418 116.241 160.23C95.2127 197.974 84.5635 241.784 84.5635 290.312C84.5635 339.985 88.9445 369.17 111.726 382.447C133.428 395.119 155.401 398.017 194.695 375.775L253.737 410.284L338.527 360.071L268.565 319.159ZM253.872 191.031C253.872 219.272 249.761 242.592 241.74 260.521C233.787 278.18 221.385 291.997 204.872 301.5C192.134 308.847 182.091 310.532 175.014 306.42C164.365 300.287 158.973 281.145 158.973 249.467C158.973 194.401 175.553 156.927 208.377 137.988C216.6 133.27 223.542 130.911 229.339 130.911C234.461 130.911 238.707 132.73 242.145 136.37C249.896 144.66 253.872 163.06 253.872 191.031Z" stroke="#2E2E35" stroke-width="9" stroke-miterlimit="10" stroke-linecap="round" stroke-linejoin="round"/>
</svg>
