<?xml version="1.0" encoding="utf-8"?>
<!-- Generator: Adobe Illustrator 22.1.0, SVG Export Plug-In . SVG Version: 6.00 Build 0)  -->
<svg version="1.1" id="Layer_1" xmlns="http://www.w3.org/2000/svg" xmlns:xlink="http://www.w3.org/1999/xlink" x="0px" y="0px"
	 viewBox="0 0 185 185" style="enable-background:new 0 0 185 185;" xml:space="preserve">
<style type="text/css">
	.st0{fill:#FFFFFF;}
	.st1{fill:#FDE700;}
</style>
<circle class="st0" cx="92.5" cy="92.5" r="92.5"/>
<g>
	<path class="st1" d="M42.5,79.8h26.3v26.1H42.5V79.8z"/>
	<path d="M44.6,100l3.2,3.3l7.6-7.6l7.9,7.8l3.3-3.2l-7.8-7.7l1.5-1.4v-3l0.9-0.8v2.4l1.2,1l3.6-3.6l1.2,0.9c0.7-2.5-3.3-8.1-6.5-5
		l-3.7,3.7l0.8,0.9l-2,1.9l-1.9-1.8l1-0.9l-4.2-4c-3.1-2.6-6.3,1.3-6.4,5.1l1.2-1l3.5,3.7l1.2-1.1v-2.3l0.8,0.5v3l1.5,1.5L44.6,100z
		"/>
	<g>
		<path d="M85,91c0.8,0,1.5-0.3,2.1-0.6v0.4h2.8v-7.1h-2.8V84c-0.6-0.4-1.3-0.6-2.1-0.6c-2.1,0-3.7,1.7-3.7,3.8S82.9,91,85,91z
			 M85.6,85.7c0.9,0,1.7,0.7,1.7,1.5c0,0.8-0.7,1.5-1.7,1.5c-0.9,0-1.6-0.7-1.6-1.5C83.9,86.5,84.7,85.7,85.6,85.7z"/>
		<path d="M75.4,87.5l2.4,3.3h3.3l-2.9-4.1c3.4-1.6,2.1-6.1-1.4-6.2h-4.1v10.3h2.8V87.5z M75.4,82.9h1c1,0.1,1.3,2,0,2.2h-1V82.9z"
			/>
		<path d="M95.7,90.8h2.8V86h2.6v4.8h2.9v-4.9h1.8v-2.2h-1.9v-1.6c-0.1-0.5,1.3-0.8,1.8-0.4v-2.3c-2.7-0.8-4.8,0.6-4.8,2.9v1.2h-2.5
			v-1.5c0-0.5,1.2-0.8,1.9-0.4v-2.3c-2.3-0.7-4.8,0.4-4.7,2.9v1.2h-0.9v2.2h1v5H95.7z"/>
		<path d="M110,91c2.5,0,3.4-1.1,3.9-2.5h-2.5c-1.2,1.4-2.8,0.4-2.8-0.8h5.4c0-2.9-1.5-4.3-4-4.3c-2.5,0-4,1.7-4,3.8
			C105.9,89.4,107.8,91.1,110,91z M111.1,86.1H109C109,85.2,111,85.2,111.1,86.1z"/>
		<path d="M92.7,82.7c0.8,0,1.5-0.7,1.5-1.5c0-0.8-0.7-1.5-1.5-1.5c-0.9,0-1.5,0.7-1.5,1.5S91.9,82.7,92.7,82.7z"/>
		<rect x="91.2" y="83.8" width="2.9" height="7.1"/>
		<rect x="114.7" y="83.8" width="2.9" height="7.1"/>
		<path d="M116.2,79.7c-0.8,0-1.5,0.7-1.5,1.5c0,0.8,0.7,1.5,1.5,1.5c0.9,0,1.5-0.7,1.5-1.5S117,79.7,116.2,79.7z"/>
		<path d="M123.5,86.4c-1.7-0.3-1.5-0.5-1.5-0.7c0-0.3,1-0.4,2.1,0l0.9-1.7c-1-0.4-2-0.4-2.9-0.4c-2.7,0-3.6,3.1-2,4.1
			c0.9,0.7,2.4,0.4,2.3,1.2c-0.1,0.6-1.3,0.3-2.7-0.4l-0.9,1.9c0.8,0.4,1.7,0.7,2.9,0.8C125.8,91.4,126,86.8,123.5,86.4z"/>
		<path d="M129.7,83.5c-2.5,0-4,1.7-4,3.8c0,2.1,1.8,3.7,4,3.7c2.5,0,3.4-1.1,3.9-2.5h-2.5c-1.2,1.4-2.8,0.4-2.8-0.8h5.4
			C133.7,84.8,132.1,83.5,129.7,83.5z M128.8,86.1c0-0.9,2-0.9,2.1,0H128.8z"/>
		<path d="M137.4,84.3v-0.5h-2.6v7.1h2.7v-4.4c0.1-1.1,2.2-1.2,2.2,0v4.4h2.8v-4.5C142.5,83.9,139.8,82.7,137.4,84.3z"/>
		<polygon points="101.5,101.8 97.4,95.1 94.5,95.1 93.1,105.7 96,105.7 96.7,99.1 100.8,105.7 103.9,105.7 105.2,95.2 102.3,95.2 
					"/>
		<polygon points="112.9,95.1 109.6,98.9 110.1,95.1 107.2,95.1 105.2,105.7 108.2,105.7 109,101.8 111.8,105.7 115.7,105.7 
			111.9,100.2 116.8,95.1 		"/>
		<path d="M86.7,95.2l-5.5,10.5h3.1l0.9-1.9h3.5l0.5,1.9h2.9l-2.5-10.5H86.7z M86.2,101.6l1.3-2.8l0.6,2.8H86.2z"/>
		<path d="M80,100c2.1-2,1.1-4.8-1.2-4.8l-4.5,0.1l-1.8,10.5h5.1C81.1,105.7,82.5,101.5,80,100z M77,97.7h0.4c1.3,0,0.7,1.5-0.4,1.4
			h-0.4L77,97.7z M77.2,103.2H76l0.4-1.7h1.3C78.4,101.5,78.6,103.2,77.2,103.2z"/>
	</g>
</g>
</svg>
