<?xml version="1.0" encoding="utf-8"?>
<!-- Generator: Adobe Illustrator 22.1.0, SVG Export Plug-In . SVG Version: 6.00 Build 0)  -->
<svg version="1.1" id="Layer_1" xmlns="http://www.w3.org/2000/svg" xmlns:xlink="http://www.w3.org/1999/xlink" x="0px" y="0px"
	 viewBox="0 0 185 185" style="enable-background:new 0 0 185 185;" xml:space="preserve">
<style type="text/css">
	.st0{fill:#FFFFFF;}
	.st1{fill:#21A038;}
	.st2{fill:url(#SVGID_1_);}
	.st3{fill:url(#SVGID_2_);}
	.st4{fill:url(#SVGID_3_);}
	.st5{fill:url(#SVGID_4_);}
	.st6{fill:url(#SVGID_5_);}
	.st7{fill:url(#SVGID_6_);}
</style>
<circle class="st0" cx="92.5" cy="92.5" r="92.5"/>
<g>
	<g>
		<path class="st1" d="M106.7,67.5c0.9,1.1,1.5,2.3,2.1,3.6l-16.2,12l-6.7-4.3v-5.2l6.7,4.3L106.7,67.5z"/>
		<g>
			<linearGradient id="SVGID_1_" gradientUnits="userSpaceOnUse" x1="80.8207" y1="90.6924" x2="76.2225" y2="77.5764">
				<stop  offset="0.14" style="stop-color:#F1E813"/>
				<stop  offset="0.3" style="stop-color:#E6E418"/>
				<stop  offset="0.58" style="stop-color:#C9DA26"/>
				<stop  offset="0.89" style="stop-color:#A2CC39"/>
			</linearGradient>
			<path class="st2" d="M78.9,78.5c0-0.2,0-0.4,0-0.7l-4.1-0.2c0,0.3,0,0.6,0,0.9c0,2.3,0.4,4.7,1.3,6.9c0.9,2.2,2.2,4.2,3.9,5.8
				l2.9-3c-1.3-1.3-2.3-2.9-3-4.5C79.2,82.1,78.9,80.3,78.9,78.5z"/>
			<linearGradient id="SVGID_2_" gradientUnits="userSpaceOnUse" x1="81.1098" y1="66.3541" x2="92.7142" y2="61.9906">
				<stop  offset="6.000000e-02" style="stop-color:#0FA7DF"/>
				<stop  offset="0.54" style="stop-color:#0098F8"/>
				<stop  offset="0.92" style="stop-color:#0290EA"/>
			</linearGradient>
			<path class="st3" d="M92.6,64.6c0.2,0,0.4,0,0.7,0l0.2-4.2c-0.3,0-0.6,0-0.9,0c-2.3,0-4.6,0.4-6.8,1.3c-2.2,0.9-4.1,2.2-5.7,3.9
				l2.9,3c1.2-1.3,2.8-2.3,4.4-3S90.8,64.6,92.6,64.6z"/>
			<linearGradient id="SVGID_3_" gradientUnits="userSpaceOnUse" x1="91.4115" y1="94.0602" x2="104.5066" y2="91.1412">
				<stop  offset="0.12" style="stop-color:#A2CC39"/>
				<stop  offset="0.28" style="stop-color:#86C239"/>
				<stop  offset="0.87" style="stop-color:#219F38"/>
			</linearGradient>
			<path class="st4" d="M92.6,92.4c-0.2,0-0.4,0-0.7,0l-0.2,4.2c0.3,0,0.6,0,0.9,0c2.3,0,4.6-0.4,6.8-1.3c2.2-0.9,4.1-2.2,5.7-3.9
				l-2.9-3c-1.3,1.3-2.8,2.3-4.4,3C96.1,91.9,94.3,92.4,92.6,92.4z"/>
			<linearGradient id="SVGID_4_" gradientUnits="userSpaceOnUse" x1="91.6625" y1="61.9439" x2="102.8696" y2="65.3563">
				<stop  offset="6.000000e-02" style="stop-color:#0290EA"/>
				<stop  offset="0.79" style="stop-color:#0C89CA"/>
			</linearGradient>
			<path class="st5" d="M100.3,67l3.4-2.5c-3.2-2.6-7.1-4-11.1-4v4.2C95.3,64.6,98,65.5,100.3,67z"/>
			<path class="st1" d="M110.3,78.5c0-1.1-0.1-2.2-0.3-3.2l-3.9,2.9c0,0.1,0,0.2,0,0.3c0,2-0.4,3.9-1.2,5.6
				c-0.8,1.8-1.9,3.3-3.3,4.6l2.8,3.1c1.9-1.7,3.3-3.7,4.3-6.1C109.9,83.5,110.3,81,110.3,78.5z"/>
			<linearGradient id="SVGID_5_" gradientUnits="userSpaceOnUse" x1="80.3867" y1="90.0815" x2="92.5967" y2="94.5842">
				<stop  offset="0.13" style="stop-color:#F1E813"/>
				<stop  offset="0.3" style="stop-color:#EAE616"/>
				<stop  offset="0.53" style="stop-color:#D8DF1F"/>
				<stop  offset="0.8" style="stop-color:#BAD52D"/>
				<stop  offset="0.98" style="stop-color:#A2CC39"/>
			</linearGradient>
			<path class="st6" d="M92.6,92.4c-1.9,0-3.7-0.4-5.5-1.2s-3.3-2-4.6-3.4l-3.1,2.8c1.7,1.9,3.7,3.4,6,4.4c2.3,1,4.7,1.5,7.2,1.5
				v-4.1H92.6z"/>
			<linearGradient id="SVGID_6_" gradientUnits="userSpaceOnUse" x1="76.2761" y1="78.9664" x2="81.2763" y2="66.132">
				<stop  offset="7.000000e-02" style="stop-color:#A2CC39"/>
				<stop  offset="0.26" style="stop-color:#81C45E"/>
				<stop  offset="0.92" style="stop-color:#0FA7DF"/>
			</linearGradient>
			<path class="st7" d="M83.4,68.2l-2.8-3.1c-1.9,1.7-3.3,3.7-4.3,6.1c-1,2.3-1.5,4.9-1.5,7.3h4.1c0-2,0.4-3.9,1.2-5.6
				C80.9,71.1,82,69.5,83.4,68.2z"/>
		</g>
	</g>
	<g>
		<path class="st1" d="M105,109l4.2-3.1h-14v18.6h14v-3.1h-10v-4.7h8.6v-3.1h-8.6v-4.5h5.8V109z"/>
		<path class="st1" d="M85.7,113.2h-4.9V109h7.8l4.2-3.1h-16v18.6h8.4c4.7,0,7.4-2.1,7.4-5.8C92.7,115.1,90.1,113.2,85.7,113.2z
			 M85.1,121.5h-4.2v-5.2h4.2c2.5,0,3.7,0.9,3.7,2.5C88.8,120.6,87.5,121.5,85.1,121.5z"/>
		<path class="st1" d="M119.6,105.9H112v18.6h4v-5.3h3.6c4.9,0,7.9-2.5,7.9-6.7C127.5,108.5,124.4,105.9,119.6,105.9z M119.5,116.2
			h-3.5V109h3.5c2.5,0,4,1.3,4,3.5C123.4,114.9,122.1,116.2,119.5,116.2z"/>
		<path class="st1" d="M70.8,120.2c-1,0.6-2.2,0.9-3.4,0.9c-3.5,0-6.1-2.5-6.1-6c0-3.4,2.5-6,6.1-6c1.3,0,2.5,0.3,3.5,1.1l2.8-2.1
			l-0.2-0.1c-1.7-1.4-3.9-2.2-6.3-2.2c-2.8,0-5.2,0.9-6.9,2.5c-0.9,0.9-1.5,1.9-2.1,3c-0.4,1.1-0.7,2.3-0.7,3.6
			c0,1.2,0.2,2.5,0.7,3.6c0.4,1.1,1.2,2.2,2.1,3.1c1.8,1.8,4.2,2.6,6.9,2.6c2.9,0,5.3-1,6.9-2.8l-2.5-1.9L70.8,120.2z"/>
	</g>
</g>
</svg>
