<svg width="120" height="121" viewBox="0 0 120 121" fill="none" xmlns="http://www.w3.org/2000/svg">
<path d="M107.1 73.4417V22.2417H54.0999C54.0999 22.2417 54.0999 73.2417 54.0999 73.4417C54.1999 74.3417 54.8999 75.3417 56.2999 76.0417L75.9999 87.4417C78.5999 88.9417 82.5999 89.1417 84.8999 87.8417L105.5 75.9417C106.7 75.2417 107.2 74.3417 107.1 73.4417Z" fill="#89E1F3" stroke="#231F20" stroke-width="1.0038" stroke-miterlimit="10" stroke-linecap="round" stroke-linejoin="round"/>
<path d="M81.0999 89.1417C79.2999 89.1417 77.4 88.7417 75.9 87.8417L56.0999 76.3417C54.6999 75.5417 53.9 74.5417 53.7 73.4417C53.7 73.2417 53.7 41.2417 53.7 22.2417V21.8417H107.4V73.4417C107.5 74.5417 106.9 75.6417 105.7 76.3417L85.1999 88.1417C84.0999 88.7417 82.5999 89.1417 81.0999 89.1417ZM54.5 22.6417C54.5 27.4417 54.5 72.7417 54.5 73.4417C54.6 74.2417 55.3 75.0417 56.5 75.7417L76.1999 87.1417C77.4999 87.8417 78.9999 88.2417 80.5999 88.3417V32.4417L106.7 22.6417H54.5Z" fill="#2E2E35"/>
<path d="M105.6 24.7417L84.8999 36.6417C82.5999 37.9417 78.5999 37.8417 75.9999 36.2417L56.2999 24.8417C53.6999 23.3417 53.3999 21.0417 55.6999 19.7417L76.2999 7.8417C78.5999 6.5417 82.5999 6.6417 85.1999 8.2417L104.9 19.6417C107.5 21.1417 107.8 23.4417 105.6 24.7417Z" fill="#89E1F3" stroke="#231F20" stroke-width="1.0038" stroke-miterlimit="10" stroke-linecap="round" stroke-linejoin="round"/>
<path d="M104.9 22.5417L85.2 11.1417C82.6 9.64169 78.6001 9.44169 76.3001 10.7417L55.7001 22.6417C55.3001 22.8417 55 23.1417 54.8 23.3417C55.2 23.8417 55.7001 24.2417 56.4001 24.6417L76 36.1417C78.6 37.6417 82.6001 37.8417 84.9001 36.5417L105.5 24.6417C105.9 24.4417 106.2 24.1417 106.4 23.9417C106.1 23.3417 105.6 22.9417 104.9 22.5417Z" fill="white"/>
<path d="M81.0999 37.9417C79.2999 37.9417 77.4 37.5417 75.9 36.6417L56.0999 25.2417C54.5999 24.3417 53.7 23.1417 53.7 21.9417C53.7 20.9417 54.3 20.0417 55.4 19.3417L76.0999 7.44169C78.4999 6.04169 82.7 6.24169 85.4 7.84169L105.1 19.2417C106.6 20.1417 107.5 21.3417 107.5 22.5417C107.5 23.5417 106.9 24.4417 105.8 25.1417L85.1999 36.9417C84.0999 37.6417 82.5999 37.9417 81.0999 37.9417ZM80.0999 7.34169C78.6999 7.34169 77.4 7.64169 76.4 8.14169L55.9 20.0417C55 20.5417 54.5999 21.2417 54.5999 21.9417C54.5999 22.8417 55.2999 23.7417 56.5999 24.5417L76.3 35.9417C78.8 37.4417 82.6 37.5417 84.8 36.3417L105.4 24.4417C106.3 23.9417 106.7 23.2417 106.7 22.5417C106.7 21.6417 106 20.7417 104.7 19.9417L85 8.54169C83.6 7.74169 81.7999 7.34169 80.0999 7.34169Z" fill="#2E2E35"/>
<path d="M90.4002 17.8417L73.4001 18.8417C73.3001 18.8417 73.2002 18.9417 73.3002 19.0417L76.9001 21.1417C77.0001 21.1417 77.0001 21.2417 76.9001 21.2417L67.6001 26.6417C67.5001 26.6417 67.5001 26.7417 67.6001 26.7417L71.4001 28.9417L75.2001 31.1417C75.3001 31.1417 75.4001 31.1417 75.4001 31.1417L84.7001 25.7417C84.8001 25.7417 84.9002 25.7417 84.9002 25.7417L88.5001 27.8417C88.6001 27.9417 88.8002 27.8417 88.8002 27.7417L90.6001 17.9417C90.6001 17.8417 90.5002 17.8417 90.4002 17.8417Z" fill="#89E1F3"/>
<path d="M75.4 29.9417C75.3 29.9417 75.2 29.9417 75.1 29.8417L67.3 25.3417V25.0417C67.3 24.8417 67.4 24.7417 67.5 24.6417L76.3 19.5417L73.2 17.7417C73 17.6417 72.9 17.4417 73 17.2417C73.1 17.0417 73.3 16.8417 73.5 16.8417L90.5 15.8417C90.7 15.8417 90.9 15.9417 91 16.0417L91.1 16.1417V16.3417L89.3 26.1417C89.3 26.3417 89.2 26.4417 89 26.5417C88.8 26.6417 88.6 26.6417 88.4 26.5417L84.9 24.5417L75.7 29.8417C75.6 29.8417 75.5 29.9417 75.4 29.9417ZM68.4 25.0417L75.4 29.0417L84.6 23.7417C84.8 23.6417 85 23.6417 85.2 23.7417L88.5 25.6417L90.2 16.6417L74.6 17.6417L77.4 19.2417V19.5417C77.4 19.7417 77.3 19.8417 77.2 19.9417L68.4 25.0417Z" fill="#2E2E35"/>
<path d="M71.3 97.6417L71.2 71.1417H13L13.1 97.5417C13.1 97.7417 13.1 97.5417 13.1 97.7417C13.2 98.7417 14 99.8417 15.5 100.642L37.2 113.142C40.1 114.842 44.5 115.042 47 113.542L69.7 100.442C70.9 99.6417 71.5 98.6417 71.3 97.6417Z" fill="#F25A22"/>
<path d="M42.8001 114.942C40.8001 114.942 38.6001 114.442 37.0001 113.542L15.3001 101.042C13.8001 100.142 12.8001 99.0417 12.7001 97.8417C12.6001 97.7417 12.7001 97.5417 12.7001 97.5417L12.6001 70.7417H71.8001L71.9001 97.7417C72.1001 99.0417 71.3001 100.242 70.0001 101.042L47.3001 114.142C46.1001 114.642 44.5001 114.942 42.8001 114.942ZM13.6001 97.4417V97.5417C13.7001 98.4417 14.5001 99.3417 15.7001 100.042L37.4001 112.542C38.8001 113.342 40.5001 113.742 42.1001 113.842V84.4417L70.6001 71.5417H13.6001V97.4417Z" fill="#2E2E35"/>
<path d="M69.5999 74.0417L46.8999 87.0417C44.3999 88.4417 39.9999 88.3417 37.0999 86.6417L15.3999 74.1417C12.4999 72.4417 12.1999 69.9417 14.6999 68.4417L37.3999 55.3417C39.8999 53.9417 44.2999 54.0417 47.1999 55.7417L68.8999 68.2417C71.7999 70.0417 72.0999 72.5417 69.5999 74.0417Z" fill="#F25A22"/>
<path d="M36.8001 86.8417C39.7001 88.5417 44.1001 88.7417 46.6001 87.2417L69.3001 74.1417C69.6001 73.9417 69.9001 73.7417 70.1001 73.5417C69.7001 73.1417 69.2001 72.7417 68.7001 72.4417L46.9001 59.9417C44.0001 58.2417 39.6001 58.0417 37.1001 59.5417L14.4001 72.6417C14.1001 72.8417 13.8001 73.0417 13.6001 73.2417C14.0001 73.6417 14.5001 74.0417 15.0001 74.3417L36.8001 86.8417Z" fill="white"/>
<path d="M42.7 88.5417C40.7 88.5417 38.5 88.0417 36.9 87.1417L15.2 74.6417C13.5 73.6417 12.5 72.3417 12.5 70.9417C12.5 69.7417 13.2 68.7417 14.5 68.0417L37.2 54.9417C39.9 53.4417 44.5 53.6417 47.5 55.3417L69.2 67.8417C70.9 68.8417 71.9 70.1417 71.9 71.5417C71.9 72.6417 71.2 73.7417 69.9 74.4417L47.2 87.5417C46 88.2417 44.4 88.5417 42.7 88.5417ZM41.6 54.9417C40.1 54.9417 38.7 55.2417 37.6 55.8417L15 68.9417C14.1 69.4417 13.6 70.1417 13.6 70.9417C13.6 71.9417 14.4 72.9417 15.7 73.6417L37.4 86.1417C40.1 87.7417 44.3 87.9417 46.7 86.5417L69.4 73.4417L69.7 73.9417L69.4 73.4417C70.3 72.9417 70.8 72.2417 70.8 71.4417C70.8 70.4417 70 69.4417 68.7 68.7417L46.9 56.2417C45.4 55.4417 43.5 54.9417 41.6 54.9417Z" fill="#2E2E35"/>
<path d="M59.8998 72.1417C56.9998 71.2417 52.1998 70.3417 49.1998 72.0417C48.5998 72.3417 48.0998 72.6417 47.6998 72.9417L45.8998 72.1417C45.8998 71.5417 45.5998 70.8417 44.9998 70.2417L41.3998 67.0417C41.2998 66.9417 41.1998 66.8417 41.0998 66.8417V66.7417C40.8998 66.5417 40.5998 66.4417 40.3998 66.2417C37.5998 64.6417 33.1998 64.6417 30.3998 66.2417C27.5998 67.8417 27.5998 70.4417 30.3998 72.0417C30.6998 72.2417 30.8998 72.3417 31.1998 72.4417H31.2998C31.4998 72.5417 31.5998 72.5417 31.7998 72.6417L37.2998 74.6417C38.2998 75.0417 39.3998 75.1417 40.4998 75.1417L41.8998 76.2417C41.4998 76.5417 40.9998 76.7417 40.3998 77.1417C37.3998 78.8417 38.9998 81.6417 40.4998 83.3417C41.1998 84.1417 42.9998 84.3417 43.9998 83.6417L52.0998 78.9417L52.4998 78.7417L60.5998 74.1417C61.5998 73.5417 61.2998 72.4417 59.8998 72.1417Z" fill="#F25A22"/>
<path d="M42.4999 82.4417C41.4999 82.4417 40.5999 82.1417 40.0999 81.5417C39.0999 80.3417 37.9999 78.6417 38.1999 77.0417C38.3999 76.0417 38.9999 75.2417 40.0999 74.5417L40.8999 74.0417L40.2999 73.5417C39.0999 73.5417 37.9999 73.3417 37.0999 72.9417L31.5999 70.9417C31.3999 70.8417 31.2999 70.8417 31.0999 70.7417L29.8999 70.2417L30.0999 70.1417C28.6999 69.2417 27.8999 68.1417 27.8999 66.8417C27.8999 65.5417 28.6999 64.3417 30.1999 63.5417C33.0999 61.8417 37.7999 61.8417 40.6999 63.5417C40.8999 63.6417 40.9999 63.7417 41.1999 63.8417L41.4999 64.0417C41.6999 64.1417 41.7999 64.2417 41.8999 64.3417L45.3999 67.5417C45.9999 68.0417 46.3999 68.7417 46.4999 69.4417L47.7999 70.0417L49.0999 69.3417C52.1999 67.5417 56.7999 68.3417 60.1999 69.3417C61.0999 69.6417 61.6999 70.1417 61.7999 70.8417C61.8999 71.4417 61.4999 71.9417 60.8999 72.3417L44.3999 81.8417C43.7999 82.3417 43.0999 82.4417 42.4999 82.4417ZM40.6999 72.5417L42.8999 74.1417L40.6999 75.4417C39.8999 75.9417 39.3999 76.4417 39.2999 77.1417C39.0999 78.3417 40.0999 79.8417 40.8999 80.8417C41.3999 81.3417 42.8999 81.5417 43.7999 81.0417L60.2999 71.5417C60.5999 71.4417 60.6999 71.2417 60.6999 71.0417C60.6999 70.8417 60.3999 70.5417 59.8999 70.4417C57.2999 69.6417 52.4999 68.6417 49.5999 70.3417L47.8999 71.3417L45.4999 70.2417V69.8417C45.4999 69.3417 45.2999 68.8417 44.7999 68.4417L41.1999 65.2417C41.0999 65.1417 40.9999 65.0417 40.9999 65.0417L40.8999 64.9417C40.6999 64.7417 40.4999 64.6417 40.1999 64.4417C37.5999 62.9417 33.2999 62.9417 30.6999 64.4417C29.4999 65.1417 28.8999 65.9417 28.8999 66.8417C28.8999 67.7417 29.4999 68.6417 30.6999 69.2417C30.8999 69.3417 31.1999 69.5417 31.4999 69.6417H31.5999C31.7999 69.7417 31.8999 69.7417 32.0999 69.8417L37.5999 71.8417C38.4999 72.1417 39.4999 72.3417 40.5999 72.3417L40.6999 72.5417Z" fill="#2E2E35"/>
</svg>
