<svg width="120" height="121" viewBox="0 0 120 121" fill="none" xmlns="http://www.w3.org/2000/svg">
<path d="M107.5 94.2417C107.5 95.3417 106.6 96.2417 105.5 96.2417H19C17.9 96.2417 17 95.3417 17 94.2417V30.4417C17 29.3417 17.9 28.4417 19 28.4417H105.5C106.6 28.4417 107.5 29.3417 107.5 30.4417V94.2417Z" fill="#8C9EFB"/>
<path d="M101.5 94.0417H15C13.6 94.0417 12.5 92.9417 12.5 91.5417V27.7417C12.5 26.3417 13.6 25.2417 15 25.2417H101.5C102.9 25.2417 104 26.3417 104 27.7417V91.5417C104 92.9417 102.9 94.0417 101.5 94.0417ZM15 26.2417C14.2 26.2417 13.5 26.9417 13.5 27.7417V91.5417C13.5 92.3417 14.2 93.0417 15 93.0417H101.5C102.3 93.0417 103 92.3417 103 91.5417V27.7417C103 26.9417 102.3 26.2417 101.5 26.2417H15Z" fill="white"/>
<path d="M73.0999 47.8417H21.5999V89.5417H73.0999V47.8417Z" fill="white"/>
<path d="M70.8999 87.3417H18.3999V44.6417H70.8999V87.3417ZM19.3999 86.3417H69.8999V45.6417H19.3999V86.3417Z" fill="#2E2E35"/>
<path d="M106.2 39.7417V30.4417C106.2 29.3417 105.3 28.4417 104.2 28.4417H17.7C16.6 28.4417 15.7 29.3417 15.7 30.4417V39.7417H106.2Z" fill="white"/>
<path d="M104 37.5417H12.5V27.7417C12.5 26.3417 13.6 25.2417 15 25.2417H101.5C102.9 25.2417 104 26.3417 104 27.7417V37.5417ZM13.5 36.5417H103V27.7417C103 26.9417 102.3 26.2417 101.5 26.2417H15C14.2 26.2417 13.5 26.9417 13.5 27.7417V36.5417Z" fill="white"/>
<path d="M84.3001 29.7417H81.1001V32.9417H84.3001V29.7417Z" fill="white"/>
<path d="M84.8001 33.4417H80.6001V29.2417H84.8001V33.4417ZM81.6001 32.4417H83.8001V30.2417H81.6001V32.4417Z" fill="#2E2E35"/>
<path d="M90.7 29.7417H87.5V32.9417H90.7V29.7417Z" fill="white"/>
<path d="M91.2 33.4417H87V29.2417H91.2V33.4417ZM88 32.4417H90.2V30.2417H88V32.4417Z" fill="#2E2E35"/>
<path d="M97.2 29.7417H94V32.9417H97.2V29.7417Z" fill="white"/>
<path d="M97.7 33.4417H93.5V29.2417H97.7V33.4417ZM94.5 32.4417H96.7V30.2417H94.5V32.4417Z" fill="#2E2E35"/>
<path d="M36.7 71.9417H32.3V70.0417C31.6 69.8417 30.9 69.6417 30.2 69.3417L29 70.8417L25.5 68.1417L26.7 66.5417C26.2 65.9417 25.8 65.3417 25.5 64.7417L23.6 65.2417L22.5 61.0417L24.5 60.5417C24.5 60.4417 24.5 60.3417 24.5 60.3417C24.5 59.8417 24.5 59.3417 24.6 58.9417L22.7 58.2417L24.2 54.1417L26.2 54.8417C26.4 54.4417 26.7 54.1417 27 53.8417L25.7 52.1417L29.2 49.5417L30.5 51.2417C31.1 50.9417 31.7 50.7417 32.3 50.6417V48.4417H36.7V50.6417C37.4 50.8417 38 51.0417 38.7 51.3417L40 49.6417L43.5 52.3417L42.2 54.0417C42.7 54.5417 43.1 55.1417 43.4 55.7417L45.4 55.2417L46.5 59.4417L44.5 59.9417C44.5 60.1417 44.5 60.2417 44.5 60.4417C44.5 60.8417 44.5 61.2417 44.4 61.6417L46.3 62.3417L44.8 66.4417L42.9 65.7417C42.7 66.1417 42.4 66.5417 42.1 66.8417L43.3 68.4417L39.8 71.0417L38.6 69.5417C38 69.8417 37.3 70.0417 36.6 70.2417V71.9417H36.7ZM33.3 70.9417H35.7V69.2417L36.1 69.1417C37 68.9417 37.8 68.7417 38.6 68.3417L39 68.1417L40.1 69.5417L42 68.1417L40.9 66.7417L41.2 66.4417C41.6 65.9417 42 65.4417 42.4 64.8417L42.6 64.4417L44.3 65.0417L45.1 62.8417L43.4 62.2417L43.5 61.8417C43.6 61.3417 43.6 60.8417 43.6 60.3417C43.6 60.0417 43.6 59.8417 43.6 59.5417V59.1417L45.4 58.6417L44.8 56.3417L43 56.8417L42.8 56.4417C42.4 55.6417 41.9 54.9417 41.3 54.2417L41 53.9417L42.2 52.4417L40.3 51.0417L39.1 52.6417L38.7 52.4417C37.9 52.0417 37.1 51.7417 36.2 51.6417L35.8 51.5417V49.5417H33.4V51.5417L33 51.6417C32.2 51.7417 31.4 52.0417 30.6 52.4417L30.2 52.6417L29 50.8417L27.1 52.2417L28.3 53.8417L28 54.1417C27.6 54.6417 27.2 55.1417 26.8 55.6417L26.6 56.0417L24.8 55.3417L24 57.5417L25.8 58.2417L25.7 58.6417C25.6 59.1417 25.5 59.7417 25.5 60.3417C25.5 60.5417 25.5 60.7417 25.5 60.9417V61.3417L23.8 61.7417L24.4 64.0417L26.2 63.5417L26.4 63.9417C26.8 64.7417 27.3 65.5417 27.9 66.2417L28.2 66.5417L27 68.0417L28.9 69.4417L30 68.0417L30.4 68.2417C31.2 68.6417 32.1 68.9417 33 69.1417L33.4 69.2417V70.9417H33.3ZM34.5 67.1417C30.7 67.1417 27.5 64.0417 27.5 60.1417C27.5 56.3417 30.6 53.1417 34.5 53.1417C38.3 53.1417 41.5 56.2417 41.5 60.1417C41.4 64.0417 38.3 67.1417 34.5 67.1417ZM34.5 54.2417C31.2 54.2417 28.5 56.9417 28.5 60.2417C28.5 63.5417 31.2 66.2417 34.5 66.2417C37.8 66.2417 40.5 63.5417 40.5 60.2417C40.4 56.9417 37.8 54.2417 34.5 54.2417Z" fill="#2E2E35"/>
<path d="M63.5999 72.7417L65.2999 72.6417L64.9999 69.2417L63.2999 69.3417C62.9999 68.4417 62.5999 67.5417 62.0999 66.7417L63.2999 65.5417L60.8999 63.2417L59.6999 64.4417C58.7999 63.8417 57.8999 63.4417 56.7999 63.2417V61.5417H53.3999V63.2417C52.0999 63.5417 50.8999 64.0417 49.7999 64.8417L48.4999 63.7417L46.2999 66.2417L47.5999 67.3417C47.0999 68.3417 46.6999 69.3417 46.5999 70.5417L44.8999 70.6417L45.1999 74.0417L46.8999 73.9417C47.1999 74.8417 47.5999 75.7417 48.0999 76.5417L46.8999 77.8417L49.2999 80.1417L50.4999 78.8417C51.3999 79.3417 52.2999 79.7417 53.2999 79.9417V81.7417H56.6999V79.9417C57.9999 79.6417 59.1999 79.1417 60.1999 78.3417L61.4999 79.5417L63.6999 77.0417L62.3999 75.8417C63.0999 74.9417 63.3999 73.8417 63.5999 72.7417ZM55.0999 74.3417C53.5999 74.3417 52.3999 73.1417 52.3999 71.6417C52.3999 70.1417 53.5999 68.9417 55.0999 68.9417C56.5999 68.9417 57.7999 70.1417 57.7999 71.6417C57.7999 73.1417 56.5999 74.3417 55.0999 74.3417Z" fill="white"/>
<path d="M57.3 82.3417H52.9V80.4417C52.1 80.2417 51.4 79.9417 50.7 79.5417L49.4 80.9417L46.2 77.9417L47.5 76.5417C47.1 75.9417 46.8 75.2417 46.6 74.5417L44.8 74.6417L44.5 70.2417L46.3 70.1417C46.4 69.2417 46.7 68.3417 47.1 67.5417L45.7 66.3417L48.6 63.0417L50 64.2417C50.9 63.6417 51.9 63.1417 53 62.8417V61.0417H57.4V62.8417C58.2 63.0417 59 63.3417 59.7 63.7417L60.9 62.4417L64.1 65.4417L62.9 66.7417C63.3 67.3417 63.6 68.0417 63.8 68.7417L65.6 68.6417L65.9 73.0417L64 73.2417C63.8 74.1417 63.6 74.9417 63.1 75.8417L64.5 77.0417L61.6 80.3417L60.2 79.1417C59.3 79.7417 58.3 80.2417 57.2 80.4417V82.3417H57.3ZM53.9 81.3417H56.3V79.6417L56.7 79.5417C57.9 79.3417 59 78.7417 60 78.0417L60.3 77.7417L61.6 78.8417L63.1 77.0417L61.8 75.9417L62 75.5417C62.5 74.6417 62.9 73.6417 63 72.5417L63.1 72.1417L64.7 72.0417L64.5 69.6417L63 69.9417L62.9 69.5417C62.7 68.6417 62.3 67.8417 61.8 67.1417L61.5 66.7417L62.6 65.5417L60.9 63.9417L59.8 65.1417L59.5 64.9417C58.7 64.4417 57.7 64.0417 56.8 63.8417L56.3 63.7417V62.1417H53.9V63.7417L53.5 63.8417C52.3 64.0417 51.1 64.6417 50.2 65.3417L49.9 65.6417L48.7 64.5417L47.2 66.3417L48.4 67.4417L48.1 67.7417C47.6 68.6417 47.3 69.6417 47.1 70.7417V71.1417L45.5 71.2417L45.7 73.6417L47.4 73.5417L47.5 73.9417C47.7 74.8417 48.1 75.6417 48.7 76.3417L48.9 76.6417L47.7 77.8417L49.4 79.4417L50.6 78.2417L50.9 78.4417C51.7 78.9417 52.6 79.3417 53.6 79.5417L54 79.6417V81.3417H53.9ZM55.1 74.8417C53.3 74.8417 51.9 73.4417 51.9 71.6417C51.9 69.8417 53.3 68.4417 55.1 68.4417C56.9 68.4417 58.3 69.8417 58.3 71.6417C58.3 73.4417 56.9 74.8417 55.1 74.8417ZM55.1 69.5417C53.9 69.5417 52.9 70.5417 52.9 71.7417C52.9 72.9417 53.9 73.9417 55.1 73.9417C56.3 73.9417 57.3 72.9417 57.3 71.7417C57.3 70.5417 56.3 69.5417 55.1 69.5417Z" fill="#2E2E35"/>
<path d="M57.7999 71.7417C57.7999 73.2417 56.5999 74.4417 55.0999 74.4417C53.5999 74.4417 52.3999 73.2417 52.3999 71.7417C52.3999 70.2417 53.5999 69.0417 55.0999 69.0417C56.5999 69.0417 57.7999 70.2417 57.7999 71.7417Z" fill="white"/>
<path d="M55.0999 74.8417C53.2999 74.8417 51.8999 73.4417 51.8999 71.6417C51.8999 69.8417 53.2999 68.4417 55.0999 68.4417C56.8999 68.4417 58.2999 69.8417 58.2999 71.6417C58.2999 73.4417 56.8999 74.8417 55.0999 74.8417ZM55.0999 69.5417C53.8999 69.5417 52.8999 70.5417 52.8999 71.7417C52.8999 72.9417 53.8999 73.9417 55.0999 73.9417C56.2999 73.9417 57.2999 72.9417 57.2999 71.7417C57.2999 70.5417 56.2999 69.5417 55.0999 69.5417Z" fill="#2E2E35"/>
<path d="M98.8001 47.8417H75.6001V48.8417H98.8001V47.8417Z" fill="#2E2E35"/>
<path d="M81.0001 61.9417H75.6001V62.9417H81.0001V61.9417Z" fill="#2E2E35"/>
<path d="M98.9002 61.9417H83.2002V62.9417H98.9002V61.9417Z" fill="#2E2E35"/>
<path d="M84.5001 54.4417H75.6001V55.4417H84.5001V54.4417Z" fill="#2E2E35"/>
<path d="M98.9 54.4417H87V55.4417H98.9V54.4417Z" fill="#2E2E35"/>
<path d="M98.8001 69.1417H75.6001V70.1417H98.8001V69.1417Z" fill="#2E2E35"/>
<path d="M81.0001 83.2417H75.6001V84.2417H81.0001V83.2417Z" fill="#2E2E35"/>
<path d="M98.9002 83.2417H83.2002V84.2417H98.9002V83.2417Z" fill="#2E2E35"/>
<path d="M84.5001 75.7417H75.6001V76.7417H84.5001V75.7417Z" fill="#2E2E35"/>
<path d="M98.9 75.7417H87V76.7417H98.9V75.7417Z" fill="#2E2E35"/>
</svg>
