<?xml version="1.0" encoding="utf-8"?>
<!-- Generator: Adobe Illustrator 22.1.0, SVG Export Plug-In . SVG Version: 6.00 Build 0)  -->
<svg version="1.1" id="Layer_1" xmlns="http://www.w3.org/2000/svg" xmlns:xlink="http://www.w3.org/1999/xlink" x="0px" y="0px"
	 viewBox="0 0 185 185" style="enable-background:new 0 0 185 185;" xml:space="preserve">
<style type="text/css">
	.st0{fill:#FFFFFF;}
	.st1{fill:#FFDD2D;}
</style>
<circle class="st0" cx="92.5" cy="92.5" r="92.5"/>
<g>
	<path class="st0" d="M120.7,80.3l0.7-2.4l-2.5,0.1c-0.2,0-1.8,0-3.2-1.1c0.1,0,0.2,0,0.4,0c1.5,0,3-0.9,3.6-2.2l1-2.3
		c-1.3,0-2.5-0.2-2.5-0.2s-0.9-0.1-2.1-1.2c-0.8-0.8-1.8-1.2-2.9-1.2c-0.5,0-0.9,0.1-1.2,0.2c0.1-0.2,0.1-0.4,0.2-0.6
		c0.4-2.2-1.1-3.9-1.1-3.9l-1.9-2.3l-1.1,2.7c0,0-0.3,0.7-0.8,0.9c-0.2-0.7-0.6-1.7-1.4-2.5c-1.6-1.6-3.5-1.9-4.5-1.9
		c-0.5,0-0.7,0.1-0.8,0.1l-2.2,0.5c0.1-0.5,0.4-1.4,0.9-2.1l1.2-1.9l-3.2,0.4l-1-2.1l-2,1l-1.8-1.8L90.7,58l-2-1l-1,2.1l-3-0.4
		l1.2,2c0.5,0.7,0.7,1.7,0.9,2.1l-2.1-0.5h-0.1c-0.1,0-0.5-0.1-0.9-0.1c-1,0-2.9,0.3-4.5,1.9C78.4,65,78,66,77.8,66.7
		c-0.6-0.3-0.8-0.9-0.8-0.9l-1.1-2.7L74,65.4c-0.2,0.3-1.4,1.9-1,3.8c0,0.2,0.1,0.4,0.2,0.6c-0.4-0.1-0.7-0.2-1.2-0.2
		c-1,0-2.1,0.5-2.9,1.2C67.9,71.9,67,72,67,72s-1,0.2-2.6,0.2l1,2.3c0.6,1.3,2.1,2.2,3.6,2.2c0.1,0,0.2,0,0.4,0
		c-1.5,1-3,1.1-3.2,1.1l-2.5-0.1l0.7,2.4c0.4,1.2,1.7,3.3,4.1,3.5c-0.3,1.1-0.8,2.3-2.1,2.9l-1.9,0.7l1,1.8c0.6,0.9,2,2.1,3.9,2.1
		c0.4,0,0.8,0,1.2-0.1c0.1,0.5,0.2,0.8,0.4,1.3c0.6,1.7,0.1,2.9,0.1,2.9l-0.9,2l2.1,0.6c0,0,0.7,0.2,1.4,0.2c0.4,0,0.7,0,1-0.1
		c0.3-0.1,0.5-0.1,0.7-0.2c0.3,0.5,0.6,0.9,0.9,1.3c1.3,1.4,3.2,2.1,5.6,2.1l0,0h1.7l-3.6,1.5l2.7,1.3c0.9,0.5,2.1,1,3.3,1.5
		l-0.4,0.9l0.9,0.4c0.1,0,1.9,0.8,4.8,1c0,0,0.7,0,1.1,0c0.4,0,1.1,0,1.1,0c2.9-0.2,4.7-0.9,4.8-1l0.9-0.4l-0.4-0.9
		c1.2-0.5,2.4-1,3.4-1.5l2.6-1.3l-3.6-1.5h1.7c2.4,0,4.3-0.7,5.6-2.1c0.4-0.4,0.7-0.8,0.9-1.3c0.2,0.1,0.5,0.2,0.7,0.2
		c0.3,0.1,0.7,0.1,1,0.1c0.7,0,1.4-0.2,1.4-0.2l2.1-0.6l-0.9-1.9c0-0.1-0.6-1.2,0.1-3c0.2-0.5,0.3-0.8,0.4-1.3
		c0.4,0.1,0.8,0.1,1.2,0.1c2.4,0,3.6-1.7,3.9-2.1l1-1.8l-1.9-0.7c-1.3-0.6-1.9-1.8-2.1-2.9C119,83.5,120.4,81.5,120.7,80.3z
		 M87.1,63.6L87.1,63.6L87.1,63.6L87.1,63.6z"/>
	<path class="st0" d="M92.6,63.5c-2,0-3.5,0.7-3.8,1.4l3.8,1.5l3.8-1.5C96.1,64.2,94.6,63.5,92.6,63.5z"/>
	<path class="st0" d="M92.6,103.2L92.6,103.2L92.6,103.2L92.6,103.2L92.6,103.2c-1.3,0-3-0.3-3.7-0.5l-0.9,2.6
		c0.7,0.2,2.8,0.7,4.7,0.7c1.9,0,4-0.5,4.7-0.7l-0.9-2.6C95.5,103,93.8,103.2,92.6,103.2z"/>
	<path class="st0" d="M99.9,100.6c-0.7,0.4-2.3,1-3.3,1.3l0.7,2.1c1.4-0.4,2.6-0.8,3.6-1.3l-1.6-0.6L99.9,100.6z"/>
	<path class="st0" d="M85.2,100.6l0.5,1.6l-1.6,0.6c1,0.5,2.1,0.9,3.6,1.3l0.7-2.1C87.5,101.7,86,101,85.2,100.6z"/>
	<path class="st0" d="M92.6,61.1c1.5,0,3,0.4,4.1,1c0.1-0.4,0.3-0.7,0.5-1.2h-0.5L96.2,61l-0.2-0.4l-0.6-1.2l-1,0.6l-0.4,0.2
		l-0.3-0.3l-1.1-1.1l-1.1,1.1l-0.5,0.2l-0.4-0.2l-1-0.6l-0.6,1.2l-0.2,0.4l-0.5-0.1L88,60.7c0.2,0.5,0.4,0.8,0.5,1.2
		C89.6,61.4,91.1,61.1,92.6,61.1z"/>
	<path class="st0" d="M115.5,75c0.2,0.1,0.4,0.1,0.6,0.1c0.8,0,1.7-0.6,2-1.2c0,0-1.6-0.1-3.3-1.8c-0.6-0.6-1.1-0.7-1.6-0.7
		c-0.7,0-1.3,0.4-1.3,0.4C114,72.9,114.4,74.6,115.5,75z"/>
	<path class="st0" d="M68.9,75.1c0.2,0,0.4,0,0.6-0.1c1.1-0.4,1.6-2.1,3.6-3.2c0,0-0.6-0.4-1.3-0.4c-0.5,0-1,0.2-1.6,0.7
		C68.6,73.9,67,74,67,74C67.4,74.6,68.1,75.1,68.9,75.1z"/>
	<path class="st0" d="M116.1,81.9L116.1,81.9c2.2,0,2.9-2.2,2.9-2.2l0,0c-0.4,0-3.6-0.1-5.8-2.9c-1.5-1.9-2.7-3.5-5-4.1h-0.3
		l-0.1-0.3c-0.1-0.4,0.2-0.7,0.7-1c3.3-2.1,1-4.9,1-4.9s-0.9,2.1-3,2.1c-0.1,0-0.1,0-0.2,0c-0.3,0-0.5,0-0.7-0.1l-0.4-0.1
		c0,0,0.6-1.6-0.8-3.1c-1.1-1.1-2.4-1.3-3.2-1.3c-0.4,0-0.7,0.1-0.7,0.1c0.7,0.9,1.2,2.5,0.4,3.5c-0.7,0.8-2.5,0.8-2.5,2.1
		c0,0.6,0.5,1.1,1.4,1.7c2.6,1.7,5.3,3.8,6.4,6.8c1.4,3.6-0.2,6.2-2.3,7.6c0,0,0.7,0.7,1.7,0.7c0.2,0,0.4,0,0.6,0c2.1,0,3.2-1,3.2-1
		s-0.2,1.4-1.3,2.6c-1,1.2-2.3,1.9-4.4,1.9c0,0-0.1,0.9,0.8,1.8c0.6,0.5,1.9,0.7,1.9,0.7s-2.5,0.5-2.8,4.2c-0.2,2-0.7,2.7-0.7,2.7
		l0,0c5.8,0,5.6-5,5.6-5s0.4,1.5,2.1,1.9c0.2,0.1,0.4,0.1,0.6,0.1c0.6,0,0.9-0.1,0.9-0.1s-0.8-1.8,0-4.2c0.7-2.1,0.6-3.6,0.6-3.6
		s0.7,1.2,2.7,1.2l0,0c1.6,0,2.3-1.2,2.3-1.2c-3.8-1.6-3.5-6.7-3.5-6.7S115.1,81.9,116.1,81.9z M114.9,87.4
		c-1.6-0.7-2.5-2.8-2.8-3.6c-0.3,4-2.2,6.8-4.6,9.5c-1.2,1.4-1.6,2.8-1.6,2.8s0.2-1.6,1.3-2.8c2.1-2.6,4.2-5.8,4.4-9.5
		c0.1-2.6-0.6-4.7-1.6-6.4c0.6,1.8,0.5,4-1.5,6.1c0,0,3.9-4.8-1.6-9.5c-2.2-1.9-4.7-3-5.9-3.8c4.5,1.5,6.7-0.2,6.7-0.2
		c-1.4,1.2-3.3,1.2-4.5,1c0.3,0.2,0.7,0.3,1,0.5c3.8,2.1,7.2,5.4,7.9,10.1l0,0C113,86.1,114.9,87.4,114.9,87.4z"/>
	<path class="st0" d="M78.5,92.5c0,0,1.3-0.2,1.9-0.7c0.9-0.8,0.8-1.8,0.8-1.8c-2.1,0-3.4-0.7-4.4-1.9c-1.1-1.3-1.3-2.6-1.3-2.6
		s1.1,1,3.2,1c0.2,0,0.4,0,0.6,0c1-0.1,1.7-0.7,1.7-0.7c-2.2-1.4-3.7-3.8-2.3-7.6c1.1-3,3.7-5.1,6.4-6.8c0.8-0.6,1.4-1.1,1.4-1.7
		c0-1.2-1.8-1.3-2.5-2.1c-0.8-0.9-0.3-2.5,0.4-3.5c0,0-0.3-0.1-0.7-0.1c-0.7,0-2.1,0.2-3.2,1.3c-1.4,1.5-0.8,3.1-0.8,3.1l-0.4,0.1
		c-0.2,0.1-0.5,0.1-0.7,0.1c-0.1,0-0.1,0-0.2,0c-2.1,0-3-2.1-3-2.1s-2.2,2.7,1,4.9c0.6,0.4,0.8,0.7,0.7,1L77,72.7h-0.3
		c-2.3,0.7-3.6,2.2-5,4.1c-2.2,2.8-5.4,2.9-5.8,2.9l0,0c0,0,0.7,2.2,2.8,2.2h0.1c0.9,0,1.5-0.4,1.5-0.4s0.4,5.1-3.5,6.7
		c0,0,0.7,1.2,2.3,1.2l0,0c2,0,2.7-1.2,2.7-1.2s-0.1,1.5,0.6,3.6c0.8,2.5,0,4.2,0,4.2s0.5,0.1,0.9,0.1c0.2,0,0.4,0,0.6-0.1
		c1.6-0.4,2.1-1.9,2.1-1.9s-0.2,5,5.6,5l0,0c0,0-0.5-0.7-0.7-2.7C81,93,78.5,92.5,78.5,92.5z M77.5,93.3c-2.3-2.7-4.3-5.5-4.6-9.5
		c-0.3,0.7-1.2,2.8-2.8,3.6c0,0,2-1.2,2.9-5.8l0,0c0.6-4.7,4-8,7.9-10.1c0.4-0.2,0.7-0.4,1-0.5c-1.1,0.2-3,0.2-4.5-1
		c0,0,2.2,1.6,6.7,0.2c-1.2,0.8-3.6,2-5.9,3.8c-5.5,4.9-1.6,9.5-1.6,9.5c-2-2.1-2.1-4.3-1.5-6.1c-1,1.8-1.7,3.8-1.6,6.4
		c0.2,3.7,2.2,6.9,4.4,9.5c1,1.2,1.3,2.8,1.3,2.8S78.8,94.7,77.5,93.3z"/>
	<path class="st0" d="M88.3,74.5c0.1,0.1,0.2,0.2,0.3,0.3c0,0,0,0.1,0.1,0.1c0.1,0.1,0.2,0.2,0.3,0.4c0,0,0,0.1,0.1,0.1
		c0.1,0.2,0.2,0.3,0.3,0.5c0.8,1.4,2.1,2.2,3.4,2.2c1.2,0,2.5-0.8,3.4-2.2c0.1-0.2,0.2-0.3,0.3-0.5c0,0,0,0,0-0.1
		c0.1-0.1,0.2-0.3,0.3-0.4c0,0,0-0.1,0.1-0.1c0.1-0.1,0.2-0.2,0.3-0.4l0,0c0.5-0.5,0.9-0.7,1.6-0.9l-0.3-0.2l0,0l-1.2-0.7l-1.3-0.7
		l-3.2,1.8l0,0l0,0l-3.2-1.8l-1.2,0.7L87,73.2l0,0l-0.3,0.2C87.3,73.6,87.8,74,88.3,74.5C88.3,74.4,88.3,74.5,88.3,74.5z M91.3,74.3
		h1.4h1.4v0.9c-0.3-0.4-0.9-0.3-0.9-0.3v1.3c0,0,0,0.7,0.3,0.9h-0.7h-0.7c0.3-0.3,0.3-0.9,0.3-0.9v-1.3c0,0-0.7-0.1-0.9,0.3v-0.9
		H91.3z"/>
	<path class="st0" d="M92.3,72.5v-5.4l-3.5-1.2l0.9,5.2L92.3,72.5z M91.6,68.4v0.8l-0.2-0.1c0,0-0.3-0.1-0.7-0.4
		c-0.7-0.6-0.7-1-0.7-1L91.6,68.4z"/>
	<path class="st0" d="M95.4,71.2l0.9-5.2l-3.5,1.2v5.4L95.4,71.2z M93.6,68.4l1.6-0.7c0,0,0,0.5-0.7,1c-0.5,0.4-0.7,0.4-0.7,0.4
		l-0.2,0.1V68.4L93.6,68.4z"/>
	<path class="st0" d="M87.4,85.1c0.4,0.1,0.7,0.2,0.9,0.2v-0.1c0-0.1,0-0.1,0.1-0.2c0.1-0.3,0.1-0.7,0.1-0.8
		c-0.2-0.1-0.4-0.3-0.5-0.5c-0.1-0.3-0.3-0.4-0.6-0.4c-0.4,0-0.7,0.2-0.8,0.3C86.4,84.3,87,84.9,87.4,85.1z"/>
	<path class="st0" d="M95,82.2c-0.7,0.7-1.9,2-2,2L93,84.3l-4-0.1c0,0.4-0.1,0.7-0.1,0.9v0.1l4.8,0.8c0.5-0.4,1.9-1.3,2.4-1.7
		c-0.4-0.6-0.5-1.2-0.4-1.7C95.4,82.6,95.2,82.4,95,82.2z"/>
	<path class="st0" d="M95.6,77.5c-0.9,0.9-1.8,1.2-2.6,1.3c-0.2,0-0.3,0-0.5,0l0,0l0,0c-0.2,0-0.3,0-0.5,0c-0.1,0-0.3,0-0.5-0.1
		c-0.1,0.2-0.1,0.7,0.1,1s0.5,0.7,1,0.8l0.2,0.1v0.2c0,0.1,0,1.2,1.3,1.5c0.2-0.2,0.4-0.4,0.6-0.6c-0.3-0.6-0.1-1.2,0.3-1.5
		c0,0.1-0.2,1.6,1,2.1l0.2,0.1l-0.1,0.2c0,0.1-0.5,1.5,1,2.1l0.3,0.1l-0.1,0.3c0,0.1-0.7,1.4,0.7,2.1h3v-2.3c-1-0.1-1.5-0.9-1.6-1.6
		c-0.5-0.1-0.8-0.3-1.1-0.7c-0.7-0.8-0.1-1.6-0.1-1.6s0,0.8,0.5,1.3c0.3,0.3,0.6,0.4,0.9,0.5h0.2v0.2c0,0.1,0.1,1.1,1.1,1.3v-4.8
		c0-0.7,0.2-1.5,0.5-2.1H95.6L95.6,77.5z"/>
	<path class="st0" d="M87.6,79.6l-0.1,3.1l0.4,0.1l0.8-2.9l-0.5-0.9L87.6,79.6z"/>
	<path class="st0" d="M97,93.6C97.1,93.6,97.1,93.6,97,93.6c0.7,0.2,0.7,2.1,1.7,2.2c0.1,0,0.2,0,0.3,0c0.3,0,0.5-0.1,0.6-0.3
		c0,0-0.5-0.7-0.8-1.2C98.2,93.7,97.8,93,97,93c0,0,0,0-0.1,0c-0.3,0-0.5,0.2-0.5,0.2c-0.4-0.2-0.7-0.3-0.9-0.3
		c-0.6,0-0.9,0.3-1.2,0.3l0,0l-2-0.2c-0.3,0-0.6-0.4-0.7-0.5v-0.1c0-0.1,0-0.1,0-0.2C91.6,90.6,90.4,90,90,90c0,0,0.1-0.3-0.1-0.4
		l-0.5,0.6L88,89.5l1,1.1l-0.7,0.8c-0.1,0.1-0.1,0.3-0.1,0.3l0.4,0.3l0.5-0.3h0.1c0.1,0,0.3,0,0.5,0s0.4,0,0.4-0.2
		c-0.1,0.6-0.6,1.6-0.3,2.4l0.3,0.6l-1.7-0.3l-0.8,1.3c-0.3,0.5-0.3,0.9-0.1,1.2l0.3,0.4c0,0,0.4-0.5,0.6-0.7l-0.1-0.2
		c-0.1-0.1-0.1-0.3,0-0.4l0.5-0.8l2.1,0.5l0.1-0.2c0.1-0.2,0.4-0.3,0.6-0.3c0.1,0,0.2,0,0.3,0c0.4,0.1,1,0.2,1.6,0.2
		c0.7,0,1.3-0.1,1.7-0.6c0.7,1.1,2.2,1.2,2.1,1.8l-0.4,1.9c0.3,0,0.5,0,0.7-0.1l0.4-2c0-0.2,0.1-0.5,0.1-0.5
		c-0.2-0.2-0.5-0.5-0.7-0.8c-0.3-0.5-0.1-0.7-0.4-1.4C96.8,93.8,96.8,93.6,97,93.6z M89.4,90.9c-0.1,0-0.2-0.1-0.2-0.2
		c0-0.1,0.1-0.2,0.2-0.2c0.1,0,0.2,0.1,0.2,0.2C89.6,90.8,89.5,90.9,89.4,90.9z"/>
	<path class="st0" d="M86.7,95.4c0,0,0.7-0.3,0.7-0.5l-0.1-0.3c-0.1-0.2-0.1-0.3,0.1-0.4l0.7-0.5l1.2,0.2c0,0-0.2-0.3-0.2-0.7
		l-1.1-0.3L87,93.7c-0.5,0.4-0.5,0.9-0.4,1.2L86.7,95.4z"/>
	<path class="st0" d="M95.2,98.5c0.2,0,0.5,0,0.7,0c0,0,0.7-1.8,0.7-1.9c-0.4-0.2-1-0.6-1.3-0.7c0.2,0.3,0.7,0.6,0.6,0.8L95.2,98.5z
		"/>
	<path class="st1" d="M101.2,87.8H84v6.4c0,2.6,1.9,4.3,4.8,4.3c2.3,0,3,0.1,3.8,0.9c0.6-0.6,1.1-0.8,2.1-0.9v-0.1l0.6-1.7l-0.9-1
		c-0.4,0.1-0.7,0.1-1.1,0.1c-0.5,0-1.1-0.1-1.7-0.2c-0.1,0-0.1,0-0.2,0c-0.1,0-0.1,0-0.1,0l-0.2,0.2l-0.2,0.3h-0.4l-1.7-0.4
		l-0.2,0.4l0,0l0.2,0.2l-0.1,0.3c-0.1,0.4-0.6,0.8-0.7,0.9L87.7,98l-0.4-0.5l-0.3-0.4c-0.3-0.4-0.4-0.8-0.2-1.4l0,0l-0.5,0.3
		l-0.2-0.5l-0.2-0.3c-0.3-0.6-0.2-1.4,0.6-1.9l1.3-0.7l1.3,0.3c0-0.1,0.1-0.6,0.1-0.7h-0.1l-0.7,0.3l-0.7-0.5c0,0-0.3-0.3,0-0.6
		l0.7-1l-1.7-2.1l2.6,1.1l0.2-0.2l0.4-0.5l0.4,0.4c0.1,0.1,0.2,0.3,0.2,0.4c0.7,0.3,2.1,1.1,2.1,2.4l-0.4,0.2l0,0
		c0.1,0.1,0.2,0.2,0.2,0.2l1.9,0.2c0.1,0,0.1,0,0.2-0.1c0.3-0.1,0.6-0.2,1-0.2c0.4,0,0.7,0.1,1,0.2c0.1,0,0.3-0.1,0.5-0.1h0.1
		c1,0,1.5,0.7,2,1.3c0.1,0.1,0.1,0.2,0.2,0.3c0.4,0.5,0.8,1.2,0.8,1.2l0.2,0.3l-0.3,0.3c-0.2,0.2-0.5,0.5-1,0.5c-0.1,0-0.2,0-0.4,0
		c-0.1,0-0.2-0.1-0.3-0.1c0,0.1,0,0.2-0.1,0.3l-0.4,1.7c2-0.5,3.3-2,3.3-4.1L101.2,87.8z"/>
	<path class="st1" d="M84,87.3h13.4c-0.7-0.7-0.7-1.6-0.5-2.1c-0.2-0.1-0.4-0.2-0.5-0.3c-0.6,0.4-2.1,1.5-2.5,1.9l-0.1,0.1l-5.2-0.9
		h-0.1c-0.1,0-0.3,0-0.5,0c-0.1,0.3-0.3,0.4-0.5,0.4h-0.1c-0.1,0-0.3-0.1-0.4-0.2C87,86,87,85.8,87,85.7v-0.1
		c-0.6-0.4-1-1.2-0.8-2.1v-0.1l0.1-0.1c0,0,0.1-0.1,0.3-0.2L86.1,83c-0.2,0-0.3-0.2-0.2-0.3c0-0.2,0.2-0.3,0.3-0.2l0.9,0.2l0.1-3.2
		l1.3-1.4l0.8,1.8L88.5,83l0.8,0.1c0.2,0,0.3,0.2,0.2,0.3c0,0.1-0.1,0.2-0.3,0.2l0,0l-0.7-0.1c0,0,0,0,0,0.1
		c0.1,0.2,0.2,0.3,0.3,0.3l4,0.1c0.2-0.2,0.6-0.6,1-1c-1-0.4-1.3-1.2-1.4-1.8c-0.6-0.2-0.9-0.6-1.1-1c-0.3-0.6-0.2-1.1-0.1-1.4
		c-0.6-0.2-1.1-0.6-1.7-1.1h-6c0.3,0.7,0.5,1.4,0.5,2.1L84,87.3L84,87.3z"/>
	<path d="M89.5,90.5c-0.1,0-0.2,0.1-0.2,0.2c0,0.1,0.1,0.2,0.2,0.2c0.1,0,0.2-0.1,0.2-0.2C89.6,90.6,89.6,90.5,89.5,90.5z"/>
	<path d="M101.1,102.2l-1-0.4l0.4-1l0.3-1.1c0,0-1.8,0.9-4.2,1.7c-0.7,0.2-1.2,0.3-1.2,0.3v0.7c0,0-1.3,0.2-2.6,0.2l0,0l0,0l0,0l0,0
		c-1.3,0-2.6-0.2-2.6-0.2v-0.7c0,0-0.6-0.1-1.2-0.3c-2.4-0.7-4.2-1.7-4.2-1.7l0.3,1.1l0.3,1l-1,0.4l-1.1,0.4c1.3,0.6,3,1.5,4.6,2
		l-0.4,1c0,0,2.1,0.9,5.4,0.9l0,0l0,0l0,0l0,0l0,0l0,0c3.4,0,5.4-0.9,5.4-0.9l-0.5-1c1.6-0.5,3.4-1.3,4.6-2L101.1,102.2z
		 M84.1,102.7l1.6-0.6l-0.5-1.6c0.7,0.4,2.3,1,3.3,1.3l-0.7,2.1C86.2,103.6,85,103.2,84.1,102.7z M92.6,106c-1.9,0-4-0.5-4.7-0.7
		l0.9-2.6c0.8,0.2,2.4,0.5,3.6,0.5l0,0l0,0l0,0l0,0c1.2,0,2.9-0.3,3.6-0.5l0.9,2.6C96.6,105.5,94.5,106,92.6,106z M97.5,104
		l-0.7-2.1c0.9-0.3,2.5-0.9,3.3-1.3l-0.5,1.6l1.6,0.6C100.1,103.2,98.9,103.6,97.5,104z"/>
	<path d="M92.6,61.7c2.1,0,3.6,0.7,4.5,1.4c0,0,0.3-1.6,1.1-3l-1.6,0.2l-0.8-1.8l-1.6,0.8l-1.6-1.6L91,59.3l-1.6-0.8l-0.8,1.8
		L87,60.1c0.9,1.4,1.1,3,1.1,3C88.9,62.3,90.5,61.7,92.6,61.7z M88.4,60.9l0.5,0.1l0.2-0.4l0.6-1.2l1,0.6l0.4,0.2l0.3-0.3l1.1-1.1
		l1.1,1.1l0.3,0.3l0.4-0.2l1-0.6l0.6,1.2L96,61l0.5-0.1l0.5-0.1c-0.2,0.5-0.4,0.8-0.5,1.2c-1.1-0.7-2.6-1-4.1-1s-3,0.4-4.1,1
		c-0.1-0.4-0.3-0.7-0.5-1.2L88.4,60.9z"/>
	<path d="M116.1,82.7c2.6,0,3.5-2.6,3.6-2.7L120,79H119l0,0c-0.4,0-3.2-0.1-5.2-2.6l-0.2-0.3c-1.3-1.7-2.6-3.3-4.9-4
		c0.1-0.1,0.2-0.1,0.3-0.2c1.2-0.7,1.9-1.8,2.1-2.8c0.3-1.7-0.8-3-0.8-3.1l-0.7-0.9l-0.5,1c0,0.1-0.7,1.8-2.4,1.8h-0.1
		c-0.1,0-0.2,0-0.3,0c0.1-0.7-0.1-2-1.1-3c-1.3-1.3-2.9-1.5-3.6-1.5c-0.5,0-0.7,0.1-0.7,0.1l-1.1,0.2l0.7,0.8c0.6,0.7,1,2,0.5,2.6
		c-0.2,0.2-0.6,0.4-0.9,0.6c-0.7,0.4-1.8,0.8-1.8,2c0,0.7,0.6,1.6,1.7,2.2c3.3,2.1,5.2,4.1,6.1,6.4c1.3,3.6-0.4,5.6-2.1,6.7
		l-0.7,0.5l0.7,0.6c0.1,0.1,0.9,0.7,2.1,0.9c0.2,0,0.5,0,0.7,0c0.7,0,1.4-0.1,2-0.3c-0.2,0.3-0.3,0.6-0.6,0.7
		c-0.9,1.1-2.1,1.6-3.8,1.7h-0.7l-0.1,0.7c0,0.1-0.1,1.3,1,2.3c0.2,0.2,0.4,0.3,0.6,0.4c-0.7,0.7-1.5,1.9-1.7,3.9
		c-0.1,1.7-0.6,2.3-0.6,2.3l-0.7,1h1.3c2.1,0,3.7-0.6,4.9-1.7c0.7-0.7,1-1.4,1.2-2.1c0.4,0.3,0.8,0.6,1.5,0.7
		c0.3,0.1,0.5,0.1,0.7,0.1c0.6,0,1.1-0.1,1.1-0.1l0.8-0.2l-0.4-0.7c0-0.1-0.7-1.6,0-3.7c0.3-0.9,0.5-1.8,0.6-2.4
		c0.5,0.3,1.2,0.5,2.1,0.5c2.1,0,2.9-1.5,2.9-1.6l0.4-0.7l-0.7-0.3c-2.4-1-2.9-3.6-3-5c0.2,0,0.5,0.1,0.7,0.1L116.1,82.7L116.1,82.7
		z M118.1,88.3c0,0-0.7,1.2-2.3,1.2l0,0c-2,0-2.7-1.2-2.7-1.2s0.1,1.5-0.6,3.6c-0.8,2.5,0,4.2,0,4.2s-0.5,0.1-0.9,0.1
		c-0.2,0-0.4,0-0.6-0.1c-1.6-0.4-2.1-1.9-2.1-1.9s0.2,5-5.6,5l0,0c0,0,0.5-0.7,0.7-2.7c0.3-3.6,2.8-4.2,2.8-4.2s-1.3-0.2-1.9-0.7
		c-0.9-0.8-0.8-1.8-0.8-1.8c2.1,0,3.4-0.7,4.4-1.9c1.1-1.3,1.3-2.6,1.3-2.6s-1.1,1-3.2,1c-0.2,0-0.4,0-0.6,0c-1-0.1-1.7-0.7-1.7-0.7
		c2.2-1.4,3.7-3.8,2.3-7.6c-1.1-3-3.7-5.1-6.4-6.8c-0.8-0.6-1.4-1.1-1.4-1.7c0-1.2,1.8-1.3,2.5-2.1c0.8-0.9,0.3-2.5-0.4-3.5
		c0,0,0.3-0.1,0.7-0.1c0.7,0,2.1,0.2,3.2,1.3c1.4,1.5,0.8,3.1,0.8,3.1l0.4,0.1c0.2,0.1,0.5,0.1,0.7,0.1c0.1,0,0.1,0,0.2,0
		c2.1,0,3-2.1,3-2.1s2.2,2.7-1,4.9c-0.6,0.4-0.8,0.7-0.7,1l0.1,0.3h0.3c2.3,0.7,3.6,2.2,5,4.1c2.2,2.8,5.4,2.9,5.8,2.9l0,0
		c0,0-0.7,2.2-2.8,2.2h-0.1c-0.9,0-1.5-0.4-1.5-0.4S114.2,86.7,118.1,88.3z"/>
	<path d="M111.6,72.4c0.9,0.6,1.5,1.2,2.1,1.8c0.5,0.6,0.9,1.2,1.7,1.4c0.3,0.1,0.6,0.1,0.8,0.1c1.1,0,2.1-0.7,2.6-1.6l0.4-0.9
		l-1-0.1c-0.1,0-1.3-0.1-2.8-1.6c-0.6-0.6-1.3-0.9-2.1-0.9c-0.9,0-1.7,0.5-1.7,0.6l-0.9,0.7L111.6,72.4z M113.2,71.4
		c0.5,0,1,0.2,1.6,0.7c1.7,1.7,3.3,1.8,3.3,1.8c-0.3,0.7-1.1,1.2-2,1.2c-0.2,0-0.4,0-0.6-0.1c-1.1-0.4-1.6-2.1-3.6-3.2
		C111.9,71.8,112.5,71.4,113.2,71.4z"/>
	<path d="M112,81.6L112,81.6c-0.6-4.7-4-8-7.9-10.1c-0.4-0.2-0.7-0.4-1-0.5c1.1,0.2,3,0.2,4.5-1c0,0-2.2,1.6-6.7,0.2
		c1.2,0.8,3.6,2,5.9,3.8c5.5,4.9,1.6,9.5,1.6,9.5c2-2.1,2.1-4.3,1.5-6.1c1,1.8,1.7,3.8,1.6,6.4c-0.2,3.7-2.2,6.9-4.4,9.5
		c-1,1.2-1.3,2.8-1.3,2.8s0.4-1.4,1.6-2.8c2.3-2.7,4.3-5.5,4.6-9.5c0.3,0.7,1.2,2.8,2.8,3.6C114.9,87.4,113,86.1,112,81.6z"/>
	<path d="M82.5,98.9c0,0-0.4-0.7-0.6-2.3c-0.2-2.1-0.9-3.2-1.7-3.9c0.2-0.1,0.5-0.2,0.6-0.4c1.1-1,1-2.1,1-2.3v-0.7h-0.7
		c-1.7,0-2.9-0.6-3.8-1.7c-0.2-0.3-0.4-0.6-0.6-0.7c0.6,0.2,1.2,0.3,2,0.3c0.2,0,0.5,0,0.7,0c1.2-0.1,2.1-0.8,2.1-0.9l0.7-0.6
		l-0.7-0.5C79.8,84,78,82,79.4,78.4c0.8-2.3,2.9-4.5,6.1-6.4c1.1-0.7,1.7-1.5,1.7-2.2c0-1.2-1-1.7-1.8-2c-0.4-0.2-0.7-0.4-0.9-0.6
		c-0.6-0.7-0.1-2,0.5-2.6l0.7-0.8l-1.1-0.3c0,0-0.3-0.1-0.7-0.1c-0.8,0-2.4,0.2-3.6,1.5c-1,1.1-1.2,2.2-1.1,3c-0.1,0-0.2,0-0.3,0
		h-0.1c-1.6,0-2.3-1.7-2.4-1.8l-0.5-1L74.9,66c0,0.1-1.1,1.4-0.8,3.1c0.2,1.1,0.8,2.1,2.1,2.8c0.1,0.1,0.2,0.2,0.3,0.2
		c-2.2,0.7-3.6,2.3-4.9,4l-0.2,0.3c-2.1,2.6-5,2.6-5.2,2.6h-0.9l0.3,0.9c0,0.1,0.9,2.7,3.6,2.7h0.1c0.3,0,0.6,0,0.7-0.1
		c-0.1,1.4-0.7,4.1-3,5l-0.7,0.3l0.4,0.7c0,0.1,0.9,1.6,2.9,1.6c0.8,0,1.6-0.2,2.1-0.5c0.1,0.7,0.3,1.5,0.6,2.4
		c0.7,2.1,0.1,3.6,0,3.7l-0.4,0.7l0.8,0.2c0.1,0,0.6,0.1,1.1,0.1c0.3,0,0.6,0,0.7-0.1c0.7-0.2,1.1-0.4,1.5-0.7
		c0.2,0.7,0.6,1.4,1.2,2.1c1.1,1.1,2.7,1.7,4.9,1.7h1.3L82.5,98.9z M81.8,99.3c-5.8,0-5.6-5-5.6-5s-0.4,1.5-2.1,1.9
		c-0.2,0.1-0.4,0.1-0.6,0.1c-0.6,0-0.9-0.1-0.9-0.1s0.8-1.8,0-4.2c-0.7-2.1-0.6-3.6-0.6-3.6s-0.7,1.2-2.7,1.2l0,0
		c-1.6,0-2.3-1.2-2.3-1.2c3.8-1.6,3.5-6.7,3.5-6.7s-0.5,0.4-1.5,0.4h-0.1c-2.1,0-2.8-2.2-2.8-2.2l0,0c0.4,0,3.6-0.1,5.8-2.9
		c1.5-1.9,2.7-3.5,5-4.1h0.3l0.1-0.3c0.1-0.4-0.2-0.7-0.7-1c-3.3-2.1-1-4.9-1-4.9s0.9,2.1,3,2.1c0.1,0,0.1,0,0.2,0
		c0.3,0,0.5,0,0.7-0.1l0.4-0.1c0,0-0.6-1.6,0.8-3.1c1.1-1.1,2.4-1.3,3.2-1.3c0.4,0,0.7,0.1,0.7,0.1c-0.7,0.9-1.2,2.5-0.4,3.5
		c0.7,0.8,2.5,0.8,2.5,2.1c0,0.6-0.5,1.1-1.4,1.7c-2.6,1.7-5.3,3.8-6.4,6.8c-1.4,3.6,0.2,6.2,2.3,7.6c0,0-0.7,0.7-1.7,0.7
		c-0.2,0-0.4,0-0.6,0c-2.1,0-3.2-1-3.2-1s0.2,1.4,1.3,2.6c1,1.2,2.3,1.9,4.4,1.9c0,0,0.1,0.9-0.8,1.8c-0.6,0.5-1.9,0.7-1.9,0.7
		s2.5,0.5,2.8,4.2C81.4,98.6,81.9,99.3,81.8,99.3L81.8,99.3z"/>
	<path d="M68.9,75.8c0.3,0,0.6,0,0.8-0.1c0.7-0.3,1.2-0.8,1.7-1.4c0.5-0.7,1-1.3,2.1-1.8l1-0.6l-0.9-0.7c-0.1-0.1-0.7-0.6-1.7-0.6
		c-0.7,0-1.5,0.3-2.1,0.9c-1.4,1.5-2.7,1.6-2.8,1.6l-1,0.1l0.4,0.9C66.8,75.1,67.9,75.8,68.9,75.8z M70.3,72.1
		c0.6-0.6,1.1-0.7,1.6-0.7c0.7,0,1.3,0.4,1.3,0.4c-2.1,1-2.4,2.8-3.6,3.2C69.3,75,69.1,75,68.9,75c-0.8,0-1.7-0.6-2-1.2
		C67.1,73.9,68.6,73.8,70.3,72.1z"/>
	<path d="M73.5,83.8c-0.1-2.6,0.6-4.7,1.6-6.4c-0.6,1.8-0.5,4,1.5,6.1c0,0-3.9-4.8,1.6-9.5c2.2-1.9,4.7-3,5.9-3.8
		c-4.5,1.5-6.7-0.2-6.7-0.2c1.4,1.2,3.3,1.2,4.5,1c-0.3,0.2-0.7,0.3-1,0.5c-3.8,2.1-7.2,5.4-7.9,10.1l0,0c-0.8,4.6-2.9,5.8-2.9,5.8
		c1.6-0.7,2.5-2.8,2.8-3.6c0.3,4,2.2,6.8,4.6,9.5c1.2,1.4,1.6,2.8,1.6,2.8s-0.3-1.6-1.3-2.8C75.8,90.7,73.7,87.5,73.5,83.8z"/>
	<path d="M91.3,74.3v0.9c0.3-0.4,0.9-0.3,0.9-0.3v1.3c0,0,0,0.7-0.3,0.9h0.7h0.7c-0.2-0.3-0.3-0.9-0.3-0.9v-1.3c0,0,0.7-0.1,0.9,0.3
		v-0.9h-1.4H91.3z"/>
	<path d="M90.6,68.8c0.5,0.4,0.7,0.4,0.7,0.4l0.2,0.1v-0.8l-1.6-0.7C90,67.7,90,68.2,90.6,68.8z"/>
	<path d="M94.5,68.8c0.7-0.6,0.7-1,0.7-1l-1.6,0.7v0.8l0.2-0.1C93.8,69.1,94,69.1,94.5,68.8z"/>
	<path d="M97.3,65.2c0-1.3-2.2-2.5-4.8-2.5l0,0l0,0l0,0c-2.5,0-4.8,1.2-4.8,2.5l0.1,0.4l1,5.7l-1,0.6l-2.6,1.5l0,0
		c0,0-0.6,0.3-0.8,0.5c-0.9,0.7-1.2,1.7-0.7,2.1c0.2-0.8,0.7-1.7,2-1.7c0.8,0,1.5,0.5,2.1,1.1c0.1,0.2,0.3,0.4,0.4,0.6
		c0.2,0.3,0.3,0.5,0.5,0.7h-6.6c0.5,0.9,0.9,2,0.9,3.1v14.6c0,3.6,2.7,5.2,5.7,5.2c2.2,0,2.6-0.1,3.8,1.1c1.2-1.2,1.6-1.1,3.8-1.1
		c3,0,5.7-1.7,5.7-5.2V79.6c0-1.1,0.5-2.1,0.9-3.1h-6.6c0.2-0.2,0.3-0.4,0.5-0.7c0.1-0.2,0.3-0.4,0.4-0.6c0.6-0.7,1.2-1.1,2.1-1.1
		c1.2,0,1.9,0.8,2,1.7c0.6-0.4,0.4-1.4-0.7-2.1c-0.3-0.2-0.8-0.5-0.8-0.5l0,0L97,71.8l-1-0.6l1-5.7L97.3,65.2z M88.8,65.9l3.5,1.2
		v5.4l-2.5-1.3L88.8,65.9z M89.5,77.5c0.6,0.6,1.1,0.9,1.7,1.1c-0.1,0.3-0.2,0.8,0.1,1.4c0.2,0.5,0.6,0.8,1.1,1
		c0.1,0.6,0.4,1.4,1.4,1.8c-0.5,0.5-0.8,0.8-1,1l-4-0.1c-0.1,0-0.3-0.2-0.3-0.3c0,0,0,0,0-0.1l0.7,0.1l0,0c0.1,0,0.3-0.1,0.3-0.2
		c0-0.2-0.1-0.3-0.2-0.3l-0.8-0.1l0.9-3.1L88.5,78l-1.3,1.4l-0.1,3.2l-0.9-0.2c-0.2,0-0.3,0.1-0.3,0.2c0,0.1,0.1,0.3,0.2,0.3
		l0.4,0.2c-0.1,0.1-0.2,0.1-0.3,0.2l-0.1,0.1v0.1c-0.2,0.9,0.3,1.8,0.8,2.1v0.1c0,0.1,0,0.3,0.1,0.4c0.1,0.1,0.2,0.2,0.4,0.2h0.1
		c0.3,0,0.5-0.2,0.5-0.4c0.2,0,0.4,0,0.5,0h0.1l5.2,0.9l0.1-0.1c0.4-0.3,2.1-1.4,2.5-1.9c0.2,0.1,0.3,0.3,0.5,0.4
		c-0.2,0.6-0.2,1.4,0.5,2.1H84v-7.7c0-0.7-0.2-1.5-0.5-2.1L89.5,77.5L89.5,77.5z M96,84.5c-0.6,0.4-1.9,1.4-2.4,1.7l-4.8-0.8v-0.1
		c0.1-0.3,0.1-0.6,0.1-0.9l4,0.1l0.1-0.1c0.1-0.1,1.3-1.3,2-2c0.2,0.2,0.4,0.4,0.6,0.6C95.6,83.2,95.6,83.9,96,84.5z M88,83.6
		c0.1,0.3,0.3,0.4,0.5,0.5c0,0.2,0,0.6-0.1,0.8c0,0.1,0,0.1-0.1,0.2v0.1c-0.2,0-0.7,0-0.9-0.2c-0.4-0.1-0.9-0.8-0.8-1.6
		c0.2-0.1,0.6-0.3,0.8-0.3C87.7,83.2,87.9,83.3,88,83.6z M87.5,82.7l0.1-3.1l0.7-0.7l0.5,0.9l-0.8,2.9L87.5,82.7z M96,98.5
		c-0.3,0-0.5,0-0.7,0l0.6-1.8c0.1-0.3-0.4-0.6-0.6-0.8c0.3,0.2,1,0.6,1.3,0.7C96.6,96.7,96,98.5,96,98.5z M97.7,96.5l-0.4,2
		c-0.3,0-0.5,0.1-0.7,0.1l0.4-1.9c0.1-0.6-1.4-0.7-2.1-1.8c-0.4,0.4-1,0.6-1.7,0.6c-0.7,0-1.2-0.1-1.6-0.2c-0.1,0-0.2,0-0.3,0
		c-0.2,0-0.4,0.1-0.6,0.3l-0.1,0.2l-2.1-0.5l-0.5,0.8c-0.1,0.1-0.1,0.3,0,0.4l0.1,0.2c-0.1,0.3-0.5,0.7-0.5,0.7l-0.3-0.4
		c-0.3-0.3-0.2-0.7,0.1-1.2l0.8-1.3l1.7,0.3l-0.3-0.6c-0.4-0.8,0.2-1.8,0.3-2.4c0,0.2-0.2,0.2-0.4,0.2c-0.2,0-0.4,0-0.5,0
		c-0.1,0-0.1,0-0.1,0l-0.5,0.3L88.4,92c0-0.1-0.1-0.2,0.1-0.3l0.8-0.9l-1-1.1l1.4,0.7l0.5-0.6c0.1,0.1,0.1,0.4,0.1,0.4
		c0.5,0,1.7,0.7,1.7,2.2c0,0.1,0,0.1,0,0.2c0,0,0,0,0,0.1c0.1,0.1,0.3,0.5,0.7,0.5l2,0.2l0,0c0.2,0,0.7-0.3,1.2-0.3
		c0.3,0,0.7,0.1,0.9,0.3c0,0,0.2-0.1,0.5-0.2c0,0,0,0,0.1,0c0.8,0,1.2,0.7,1.7,1.4c0.4,0.5,0.8,1.2,0.8,1.2
		c-0.2,0.2-0.4,0.3-0.6,0.3c-0.1,0-0.2,0-0.3,0c-0.9-0.2-1-2.1-1.6-2.2h-0.1C97.1,93.8,97,94,97,94c0.3,0.7,0.1,0.9,0.4,1.4
		c0.2,0.4,0.6,0.7,0.7,0.8C97.8,96.1,97.7,96.3,97.7,96.5z M87.4,94.6l0.1,0.2c-0.1,0.2-0.7,0.5-0.7,0.5L86.5,95
		c-0.2-0.4-0.1-0.9,0.4-1.2l1.1-0.7l1.1,0.3c0,0.4,0.2,0.7,0.2,0.7l-1.2-0.2l-0.7,0.4C87.3,94.4,87.3,94.6,87.4,94.6z M97.9,98.3
		l0.4-1.7c0-0.1,0-0.2,0.1-0.3c0.1,0,0.2,0.1,0.3,0.1s0.3,0,0.4,0c0.5,0,0.8-0.3,1-0.5l0.3-0.3l-0.2-0.3c0,0-0.5-0.7-0.8-1.2
		c-0.1-0.1-0.1-0.2-0.2-0.3c-0.4-0.6-0.9-1.3-2-1.3h-0.1c-0.2,0-0.3,0-0.5,0.1c-0.3-0.2-0.7-0.2-1-0.2s-0.7,0.1-1,0.2
		c-0.1,0-0.1,0-0.2,0.1l-1.9-0.2c0,0-0.1-0.1-0.2-0.2l0,0l0.4-0.2c-0.1-1.3-1.4-2.1-2.1-2.4c0-0.1-0.1-0.3-0.2-0.4L90,89l-0.4,0.5
		l-0.2,0.2l-2.6-1.1l1.7,2.1l-0.7,0.7c-0.3,0.3,0,0.6,0,0.6l0.7,0.5l0.7-0.3h0.1c0,0.1-0.1,0.6-0.1,0.7l-1.3-0.3l-1.3,0.7
		c-0.7,0.5-0.7,1.3-0.6,1.9l0.2,0.3l0.2,0.5l0.5-0.2l0,0c-0.2,0.6-0.1,1,0.2,1.4l0.3,0.4l0.4,0.5l0.4-0.5c0.1-0.1,0.5-0.6,0.7-0.9
		l0.1-0.3l-0.2-0.2l0,0l0.2-0.4l1.7,0.4l0.4,0.1l0.2-0.3l0.1-0.2c0,0,0,0,0.1,0c0.1,0,0.1,0,0.2,0c0.7,0.1,1.2,0.2,1.7,0.2
		c0.5,0,0.7,0,1.1-0.1c0,0,0.8,1,0.9,1l-0.6,1.7v0.1c-1,0.1-1.5,0.3-2.1,0.9c-0.8-0.8-1.5-0.9-3.8-0.9c-2.8,0-4.8-1.7-4.8-4.3v-6.4
		h17.2v6.4C101.2,96.3,99.9,97.8,97.9,98.3z M101.7,77.5c-0.3,0.7-0.5,1.4-0.5,2.1v4.8c-1-0.2-1.1-1.2-1.1-1.3v-0.2h-0.2
		c-0.5,0-0.7-0.2-0.9-0.5c-0.5-0.5-0.5-1.3-0.5-1.3s-0.6,0.7,0.1,1.6c0.3,0.4,0.7,0.6,1.1,0.7c0.1,0.6,0.6,1.4,1.6,1.6v2.3h-3
		c-1.4-0.7-0.7-2.1-0.7-2.1l0.1-0.3l-0.3-0.1c-1.5-0.6-1.1-2.1-1-2.1l0.1-0.2l-0.2-0.1c-1.4-0.6-1.2-2.1-1.2-2.1
		c-0.4,0.3-0.5,0.9-0.3,1.5c-0.2,0.2-0.4,0.4-0.6,0.6C93,82,93,80.8,93,80.8v-0.2l-0.2-0.1c-0.5-0.2-0.8-0.5-1-0.8s-0.1-0.8-0.1-1
		c0.2,0,0.3,0.1,0.5,0.1s0.3,0,0.5,0l0,0l0,0c0.2,0,0.3,0,0.5,0c0.7-0.1,1.7-0.4,2.6-1.3H101.7L101.7,77.5z M97,72.6l1.2,0.7l0,0
		l0.3,0.2c-0.7,0.2-1.2,0.5-1.6,0.9l0,0c-0.1,0.1-0.2,0.2-0.3,0.4c0,0,0,0-0.1,0.1c-0.1,0.1-0.2,0.3-0.3,0.4c0,0,0,0,0,0.1
		c-0.1,0.2-0.2,0.3-0.3,0.5c-0.8,1.4-2.1,2.2-3.4,2.2s-2.5-0.8-3.4-2.2c-0.1-0.2-0.2-0.3-0.3-0.5c0,0,0-0.1-0.1-0.1
		c-0.1-0.1-0.2-0.3-0.3-0.4c0,0,0-0.1-0.1-0.1c-0.1-0.1-0.2-0.2-0.3-0.3c0,0,0,0-0.1-0.1c-0.5-0.5-0.9-0.7-1.6-0.9l0.3-0.2l0,0
		l1.2-0.7l1.2-0.7l3.2,1.8l0,0l0,0l3.2-1.8L97,72.6z M95.4,71.2l-2.5,1.3v-5.4l3.5-1.2L95.4,71.2z M92.6,66.4l-3.8-1.5
		c0.3-0.7,1.9-1.4,3.8-1.4c2,0,3.5,0.7,3.8,1.4L92.6,66.4z"/>
	<path d="M49.4,128.3v-6.7h4v-2.4H42.5v2.4h4v6.7H49.4z M57.3,124.5v-5.3h-2.8v9.2h2.4l4.9-5.3v5.3h2.8v-9.2h-2.4L57.3,124.5z
		 M74,124.8v3.5h2.8v-9.2H74v3.4h-4.5v-3.4h-2.8v9.2h2.8v-3.5H74z M84.6,128.3c0.7,0,1.2-0.1,1.8-0.2c1.4-0.4,2.4-1.6,2.4-3.2
		c0-1.5-0.8-2.6-2.1-3.1c-0.7-0.2-1.3-0.3-2.1-0.3h-2.9v-2.4h-2.8v9.2H84.6z M84.1,123.7c0.4,0,0.7,0,1.1,0.1c0.5,0.2,0.7,0.6,0.7,1
		s-0.3,0.9-0.7,1.1c-0.3,0.1-0.7,0.1-1.1,0.1h-2.3v-2.3C81.8,123.7,84.1,123.7,84.1,123.7z M93.8,124.8l3.4,3.5h3.7l-4.7-4.8
		l4.5-4.4h-3.6l-3.4,3.5H93v-3.5h-2.8v9.2H93v-3.5H93.8z M106.6,118.9c-3.7,0-6,2.1-6,4.9c0,2.7,2.2,4.9,6,4.9c3.7,0,6-2.1,6-4.9
		C112.6,120.9,110.4,118.9,106.6,118.9z M106.6,126.3c-1.9,0-3.1-1.1-3.1-2.6s1.2-2.6,3.1-2.6c1.9,0,3.1,1.1,3.1,2.6
		C109.7,125.2,108.5,126.3,106.6,126.3z M121.9,118.6h-2.8v0.9c-3.6,0.1-5.6,1.6-5.6,4.2c0,2.6,2.1,4,5.6,4.1v0.9h2.8v-0.9
		c3.6-0.1,5.6-1.4,5.6-4.1s-2.1-4.1-5.6-4.2V118.6z M119.1,125.8c-2-0.1-2.8-0.8-2.8-2.1c0-1.2,0.8-2.1,2.8-2.2V125.8z M121.9,121.5
		c2,0.1,2.8,0.9,2.8,2.2c0,1.2-0.8,2.1-2.8,2.1V121.5z M136.9,118.6h-2.8v0.9c-3.6,0.1-5.6,1.6-5.6,4.2c0,2.6,2.1,4,5.6,4.1v0.9h2.8
		v-0.9c3.6-0.1,5.6-1.4,5.6-4.1s-2.1-4.1-5.6-4.2V118.6z M134.1,125.8c-2-0.1-2.8-0.8-2.8-2.1c0-1.2,0.8-2.1,2.8-2.2V125.8z
		 M136.9,121.5c2,0.1,2.8,0.9,2.8,2.2c0,1.2-0.8,2.1-2.8,2.1V121.5z"/>
</g>
</svg>
