<?xml version="1.0" encoding="utf-8"?>
<!-- Generator: Adobe Illustrator 22.1.0, SVG Export Plug-In . SVG Version: 6.00 Build 0)  -->
<svg version="1.1" id="Layer_1" xmlns="http://www.w3.org/2000/svg" xmlns:xlink="http://www.w3.org/1999/xlink" x="0px" y="0px"
	 viewBox="0 0 185 185" style="enable-background:new 0 0 185 185;" xml:space="preserve">
<style type="text/css">
	.st0{fill:#FFFFFF;}
	.st1{fill:#1FB2E5;}
</style>
<circle class="st0" cx="92.5" cy="92.5" r="92.5"/>
<path id="path1397" class="st1" d="M131.4,103.6c-2.9,0-5.7-1.1-7.7-3.3c-2.1-2.1-3.3-4.8-3.3-7.9c0-3,1.1-5.8,3.3-7.9
	c2.1-2.1,4.8-3.3,7.7-3.3s5.8,1.1,7.9,3.3c2.1,2.1,3.3,5,3.3,7.9c0,2.9-1.1,5.8-3.3,7.9C137.2,102.4,134.5,103.6,131.4,103.6z
	 M131.4,86.5c-1.6,0-2.9,0.6-4.1,1.7c-1.1,1.1-1.6,2.5-1.6,4.2c0,3.3,2.4,5.9,5.7,5.9c1.6,0,2.9-0.6,4.1-1.7
	c1.1-1.1,1.7-2.5,1.7-4.2c0-1.6-0.6-3-1.7-4.2C134.5,87.1,133.1,86.5,131.4,86.5z M92.7,103.4c-0.2,0-0.2-0.1-0.2-0.2V81.7
	c0-0.2,0.2-0.2,0.2-0.2h4.6c0.1,0,0.2,0.1,0.2,0.2v21.5c0,0.2-0.2,0.2-0.2,0.2H92.7z M79.7,103.4c-0.1,0-0.2-0.1-0.2-0.2l-3-10.3
	l0,0c-0.1-0.2-0.2-0.4-0.5-0.4c-0.2,0-0.5,0.2-0.5,0.4l-2.9,10.2v0.1c-0.1,0.1-0.2,0.2-0.2,0.2h-4.2c-0.2,0-0.2-0.1-0.2-0.2l-6-21.5
	v-0.1c0-0.2,0.2-0.2,0.2-0.2h4.8c0.1,0,0.2,0.1,0.2,0.2L69.8,92c0,0.2,0.2,0.5,0.5,0.5c0.2,0,0.4-0.2,0.5-0.4l2.9-10.5
	c0-0.1,0.2-0.2,0.2-0.2h4c0.1,0,0.2,0.1,0.2,0.2l2.9,10.5c0,0.2,0.2,0.5,0.5,0.5c0.2,0,0.5-0.2,0.5-0.4l2.7-10.4v-0.1
	c0-0.1,0.2-0.2,0.2-0.2h4.7c0.1,0,0.2,0.1,0.2,0.2v0.2l-6,21.4v0.1c-0.1,0.1-0.2,0.2-0.2,0.2L79.7,103.4z M114.1,103.3
	c-0.1,0-0.2-0.1-0.2-0.1l-6.7-10c-0.1-0.2-0.2-0.2-0.5-0.2c-0.2,0-0.5,0.2-0.6,0.5v9.6c0,0.2-0.2,0.2-0.2,0.2h-4.6
	c-0.2,0-0.2-0.1-0.2-0.2V81.6c0-0.2,0.2-0.2,0.2-0.2h4.2c0.1,0,0.2,0,0.2,0.1v0.1l6.3,9.6c0.1,0.2,0.2,0.2,0.5,0.2s0.6-0.2,0.6-0.6
	v-9.1c0-0.2,0.2-0.2,0.2-0.2h4.6c0.1,0,0.2,0.1,0.2,0.2v21.6c0,0.2-0.2,0.2-0.2,0.2L114.1,103.3z M48.9,103.4
	c-0.2,0-0.2-0.1-0.2-0.2V86.8c0-0.2-0.2-0.5-0.5-0.5h-5.4c-0.2,0-0.2-0.2-0.2-0.2v-4.4c0-0.2,0.2-0.2,0.2-0.2h17.2
	c0.2,0,0.2,0.2,0.2,0.2V86c0,0.2-0.2,0.2-0.2,0.2h-5.6c-0.2,0-0.5,0.2-0.5,0.5v16.4c0,0.2-0.2,0.4-0.2,0.4L48.9,103.4L48.9,103.4z"
	/>
</svg>
