<svg width="16" height="12"  viewBox="0 0 19 11" fill="none" xmlns="http://www.w3.org/2000/svg"><path d="M10.3447 11C3.85315 11 0.151848 6.8783 0 0.00880725H3.26474C3.36913 5.04644 5.76074 7.17774 7.65884 7.61809V0.00880725H10.7243V4.35068C12.5939 4.16573 14.5679 2.18415 15.2323 0H18.2882C18.039 1.13062 17.5413 2.20141 16.8261 3.14546C16.1108 4.08952 15.1935 4.88656 14.1314 5.48679C15.3167 6.03426 16.3634 6.80868 17.2027 7.759C18.0419 8.70932 18.6544 9.81393 19 11H15.6309C14.9096 8.91273 13.1064 7.29223 10.7243 7.07206V11H10.3541H10.3447Z" fill="white"></path></svg>